fira-sans_two-italic.sfdir
StartChar: exclam
Encoding: 33 33 2126
Width: 234
Flags: MW
HStem: -4 14<81 85> 660 20G<175 177 177 177>
VStem: 76 101
LayerCount: 2
Back
Fore
SplineSet
107 188 m 1
 175 680 l 1
 177 680 l 1
 109 188 l 1
 107 188 l 1
83 10 m 0
 87 10 90 7 90 3 c 0
 90 -1 87 -4 83 -4 c 0
 79 -4 76 -1 76 3 c 0
 76 7 79 10 83 10 c 0
EndSplineSet
EndChar
StartChar: quotedbl
Encoding: 34 34 2132
Width: 316
Flags: MW
HStem: 660 20G<149 151 151 151 283 285 285 285>
VStem: 117 168
LayerCount: 2
Back
Fore
SplineSet
117 446 m 1
 149 680 l 1
 151 680 l 1
 119 446 l 1
 117 446 l 1
251 446 m 1
 283 680 l 1
 285 680 l 1
 253 446 l 1
 251 446 l 1
EndSplineSet
EndChar

StartChar: dollar
Encoding: 36 36 1064
Width: 527
Flags: MW
HStem: -9 21G<216.86 216.86>
VStem: 38 435
LayerCount: 2
Fore
SplineSet
318 669 m 1
 316 669 l 1
 335 805 l 1
 337 805 l 1
 318 669 l 1
313 667 m 0
 173 667 124 581.999 124 503.999 c 0
 124 436.999 165 396.999 279 358.999 c 0
 384 322.999 438 270.999 438 187.999 c 0
 438 93.3594 382.42 -8.23047 218.86 -8.99023 c 1
 200 -144 l 1
 198 -144 l 1
 216.86 -9 l 1
 140.92 -8.95996 79.9697 21.0303 38 67 c 1
 39 69 l 1
 81 23 141 -7 217 -7 c 0
 381 -7 436 94 436 188 c 0
 436 270 382 321 278 357 c 0
 165 395 122 435 122 504 c 0
 122 583 173 669 313 669 c 0
 389 669 431 643 473 607 c 1
 471 605 l 1
 430 642 387 667 313 667 c 0
EndSplineSet
Substitution2: "'onum' Oldstyle Figures lookup 22 subtable" dollar.osf
Substitution2: "'tnum' Tabular Numbers lookup 21 subtable" dollar.tf
AlternateSubs2: "'aalt' Access All Alternates lookup 1 subtable" dollar.tf dollar.osf
EndChar

StartChar: percent
Encoding: 37 37 1113
Width: 745
Flags: MW
HStem: -9 21G<108 110 108 108 480 570> 670 20G
VStem: 104 559<448.5 690>
LayerCount: 2
Fore
SplineSet
663 690 m 1
 110 -9 l 1
 108 -9 l 1
 661 690 l 1
 663 690 l 1
251 670 m 0
 318 670 356 628 356 554 c 0
 356 482 321 366 209 366 c 0
 141 366 104 412 104 485 c 0
 104 557 139 670 251 670 c 0
251 668 m 0
 139 668 106 555 106 485 c 0
 106 413 142 368 209 368 c 0
 320 368 354 483 354 554 c 0
 354 628 316 668 251 668 c 0
556 295 m 0
 623 295 661 253 661 179 c 0
 661 107 626 -9 514 -9 c 0
 446 -9 409 37 409 110 c 0
 409 182 444 295 556 295 c 0
556 293 m 0
 444 293 411 180 411 110 c 0
 411 38 447 -7 514 -7 c 0
 625 -7 659 108 659 179 c 0
 659 253 621 293 556 293 c 0
EndSplineSet
Substitution2: "'onum' Oldstyle Figures lookup 22 subtable" percent.osf
Substitution2: "'tnum' Tabular Numbers lookup 21 subtable" percent.tf
AlternateSubs2: "'aalt' Access All Alternates lookup 1 subtable" percent.tf percent.osf
EndChar

StartChar: ampersand
Encoding: 38 38 1221
Width: 734
Flags: MW
HStem: -9 21G<227.5 329> 0 21G<618 618> 671 20G<301.5 393>
VStem: 112 506<0 183>
LayerCount: 2
Fore
SplineSet
356 691 m 0x70
 430 691 487 642 487 573 c 0
 487 487 440 440 289 361 c 1
 512 116 l 1
 565 186 588 257 612 334 c 1
 614 334 l 1
 589 254 565 184 513 115 c 1
 618 0 l 1
 616 -1 l 1x70
 512 114 l 1
 451 34 379 -9 279 -9 c 0xb0
 176 -9 112 61 112 145 c 0
 112 221 144 292 285 361 c 1
 226 424 201 476 201 532 c 0
 201 604 247 691 356 691 c 0x70
356 689 m 0
 248 689 203 603 203 532 c 0
 203 477 227 426 287 362 c 1
 445 444 485 492 485 573 c 0
 485 641 429 689 356 689 c 0
287 360 m 1
 141 288 114 216 114 145 c 0
 114 62 177 -7 279 -7 c 0
 379 -7 449 35 511 115 c 1
 287 360 l 1
EndSplineSet
EndChar
StartChar: quotesingle
Encoding: 39 39 2133
Width: 182
Flags: MW
HStem: 660 20G<149 151 151 151>
VStem: 117 34
LayerCount: 2
Back
Fore
SplineSet
117 446 m 1
 149 680 l 1
 151 680 l 1
 119 446 l 1
 117 446 l 1
EndSplineSet
EndChar

StartChar: parenleft
Encoding: 40 40 1009
Width: 329
Flags: MW
HStem: -125 950<194 327>
VStem: 84.26 243.74
LayerCount: 2
Fore
SplineSet
328 824 m 1
 221 693 126 577 95 350 c 0
 63 123 125 7 196 -124 c 1
 194 -125 l 1
 122 7 61 123 93 350 c 0
 124 577 218 693 327 825 c 1
 328 824 l 1
EndSplineSet
Substitution2: "'case' Case-Sensitive Forms lookup 25 subtable" parenleft.case
Substitution2: "'dnom' Denominators lookup 14 subtable" parenleft.dnom
Substitution2: "'numr' Numerators lookup 13 subtable" parenleft.numr
Substitution2: "'sups' Superscript lookup 12 subtable" parenleftsuperior
Substitution2: "'subs' Subscript lookup 11 subtable" uni208D
AlternateSubs2: "'aalt' Access All Alternates lookup 1 subtable" uni208D parenleftsuperior parenleft.numr parenleft.dnom parenleft.case
EndChar
StartChar: parenright
Encoding: 41 41 2151
Width: 327
Flags: MW
HStem: -125 950<27 160>
VStem: 25 243.36
LayerCount: 2
Back
Fore
SplineSet
160 825 m 1
 231 693 291 577 260 350 c 0
 228 123 135 7 27 -125 c 1
 25 -124 l 1
 132 7 226 123 258 350 c 0
 289 577 229 693 158 824 c 1
 160 825 l 1
EndSplineSet
Substitution2: "'case' Case-Sensitive Forms lookup 29 subtable" parenright.case
Substitution2: "'dnom' Denominators lookup 17 subtable" parenright.dnom
Substitution2: "'numr' Numerators lookup 16 subtable" parenright.numr
Substitution2: "'sups' Superscript lookup 15 subtable" uni207E
Substitution2: "'subs' Subscript lookup 14 subtable" uni208E
AlternateSubs2: "'aalt' Access All Alternates lookup 1 subtable" uni208E uni207E parenright.numr parenright.dnom parenright.case
EndChar

StartChar: asterisk
Encoding: 42 42 980
Width: 428
Flags: MW
HStem: 545 20G<255 255 259 259> 547 20G<256 256 258 258> 707 20G<278 280 280 280>
VStem: 109 308<614 614>
LayerCount: 2
Fore
SplineSet
417 614 m 1x70
 259 565 l 1
 334 436 l 1
 332 435 l 1
 257 564 l 1
 145 435 l 1
 143 436 l 1
 255 565 l 1
 109 614 l 1
 110 616 l 1xb0
 256 567 l 1
 278 727 l 1
 280 727 l 1
 258 567 l 1
 417 616 l 1
 417 614 l 1x70
EndSplineSet
EndChar
StartChar: plus
Encoding: 43 43 2273
Width: 478
GlyphClass: 2
Flags: MW
HStem: 330 158<95 272 270 272 270 403 250 272>
VStem: 95 309<330 332>
LayerCount: 2
Back
Fore
SplineSet
272 488 m 1
 251 332 l 1
 404 332 l 1
 403 330 l 1
 250 330 l 1
 228 174 l 1
 226 174 l 1
 248 330 l 1
 95 330 l 1
 96 332 l 1
 249 332 l 1
 270 488 l 1
 272 488 l 1
EndSplineSet
Substitution2: "'onum' Oldstyle Figures lookup 26 subtable" plus.osf
Substitution2: "'tnum' Tabular Numbers lookup 25 subtable" plus.tf
Substitution2: "'dnom' Denominators lookup 17 subtable" plus.dnom
Substitution2: "'numr' Numerators lookup 16 subtable" plus.numr
Substitution2: "'sups' Superscript lookup 15 subtable" uni207A
Substitution2: "'subs' Subscript lookup 14 subtable" uni208A
AlternateSubs2: "'aalt' Access All Alternates lookup 1 subtable" uni208A uni207A plus.numr plus.dnom plus.tf plus.osf
EndChar
StartChar: comma
Encoding: 44 44 2123
Width: 120
Flags: MW
HStem: -4 14<22 22>
VStem: 16 14<1.5 5>
LayerCount: 2
Back
Fore
SplineSet
23 10 m 0
 27 10 30 7 30 3 c 0
 30 0 29 -2 27 -6 c 2
 -23 -109 l 1
 -26 -109 l 1
 22 -4 l 1
 18 -3 16 0 16 3 c 0
 16 7 19 10 23 10 c 0
EndSplineSet
EndChar
StartChar: hyphen
Encoding: 45 45 2168
Width: 400
Flags: MW
HStem: 311 2<93 323 93 323>
VStem: 93 230<311 313 311 313>
LayerCount: 2
Back
Fore
SplineSet
93 311 m 1
 93 313 l 1
 323 313 l 1
 323 311 l 1
 93 311 l 1
EndSplineSet
Substitution2: "'case' Case-Sensitive Forms lookup 29 subtable" hyphen.case
Substitution2: "'aalt' Access All Alternates lookup 0 subtable" hyphen.case
EndChar

StartChar: period
Encoding: 46 46 990
Width: 120
Flags: MW
HStem: -4 14<21 25>
VStem: 16 14<1 5>
LayerCount: 2
Fore
SplineSet
23 10 m 0
 27 10 30 7 30 3 c 0
 30 -1 27 -4 23 -4 c 0
 19 -4 16 -1 16 3 c 0
 16 7 19 10 23 10 c 0
EndSplineSet
EndChar
StartChar: slash
Encoding: 47 47 2135
Width: 520
Flags: MW
HStem: -92 886<96 450>
VStem: 94 358
LayerCount: 2
Back
Fore
SplineSet
450 794 m 1
 452 793 l 1
 96 -92 l 1
 94 -91 l 1
 450 794 l 1
EndSplineSet
Substitution2: "'frac' Diagonal Fractions lookup 18 subtable" fraction
Substitution2: "'aalt' Access All Alternates lookup 0 subtable" fraction
EndChar
StartChar: zero
Encoding: 48 48 2017
Width: 536
Flags: MW
HStem: -9 21G<180.5 330>
VStem: 81 395<134 525>
LayerCount: 2
Back
Fore
SplineSet
325 670 m 0
 427 670 476 597 476 453 c 0
 476 289 429 -9 231 -9 c 0
 130 -9 81 63 81 205 c 0
 81 373 127 670 325 670 c 0
325 668 m 0
 198 668 119 542 92 338 c 0
 85 284 83 242 83 205 c 0
 83 65 131 -7 231 -7 c 0
 361 -6 437 123 465 323 c 0
 473 378 474 423 474 453 c 0
 474 597 425 668 325 668 c 0
EndSplineSet
Substitution2: "'zero' Slashed Zero lookup 32 subtable" zero.zero
Substitution2: "'onum' Oldstyle Figures lookup 26 subtable" zero.osf
Substitution2: "'tnum' Tabular Numbers lookup 25 subtable" zero.tf
Substitution2: "'frac' Diagonal Fractions lookup 19 subtable" zero.numr
Substitution2: "'dnom' Denominators lookup 17 subtable" zero.dnom
Substitution2: "'numr' Numerators lookup 16 subtable" zero.numr
Substitution2: "'sups' Superscript lookup 15 subtable" uni2070
Substitution2: "'subs' Subscript lookup 14 subtable" uni2080
AlternateSubs2: "'aalt' Access All Alternates lookup 1 subtable" uni2080 uni2070 zero.numr zero.dnom zero.tf zero.osf zero.zero
EndChar
StartChar: one
Encoding: 49 49 2018
Width: 385
Flags: MW
HStem: 0 21G<207 209 207 207>
VStem: 100 201<543 660>
LayerCount: 2
Back
Fore
SplineSet
301 660 m 1
 209 0 l 1
 207 0 l 1
 299 658 l 1
 101 541 l 1
 100 543 l 1
 299 660 l 1
 301 660 l 1
EndSplineSet
Substitution2: "'onum' Oldstyle Figures lookup 26 subtable" one.osf
Substitution2: "'tnum' Tabular Numbers lookup 25 subtable" one.tf
Substitution2: "'frac' Diagonal Fractions lookup 19 subtable" one.numr
Substitution2: "'dnom' Denominators lookup 17 subtable" one.dnom
Substitution2: "'numr' Numerators lookup 16 subtable" one.numr
Substitution2: "'sups' Superscript lookup 15 subtable" uni00B9
Substitution2: "'subs' Subscript lookup 14 subtable" uni2081
AlternateSubs2: "'aalt' Access All Alternates lookup 1 subtable" uni2081 uni00B9 one.numr one.dnom one.tf one.osf
EndChar
StartChar: two
Encoding: 50 50 2019
Width: 463
Flags: MW
HStem: 0 21G<15 358 15 15>
VStem: 15 409
LayerCount: 2
Back
Fore
SplineSet
278 670 m 0
 368 670 424 608 424 528 c 0
 424 405 364 344 18 2 c 1
 358 2 l 1
 358 0 l 1
 15 0 l 1
 15 2 l 1
 365 348 422 408 422 528 c 0
 422 607 367 668 278 668 c 0
 204 668 153 638 99 587 c 1
 97 588 l 1
 151 639 203 670 278 670 c 0
EndSplineSet
Substitution2: "'onum' Oldstyle Figures lookup 26 subtable" two.osf
Substitution2: "'tnum' Tabular Numbers lookup 25 subtable" two.tf
Substitution2: "'frac' Diagonal Fractions lookup 19 subtable" two.numr
Substitution2: "'dnom' Denominators lookup 17 subtable" two.dnom
Substitution2: "'numr' Numerators lookup 16 subtable" two.numr
Substitution2: "'sups' Superscript lookup 15 subtable" uni00B2
Substitution2: "'subs' Subscript lookup 14 subtable" uni2082
AlternateSubs2: "'aalt' Access All Alternates lookup 1 subtable" uni2082 uni00B2 two.numr two.dnom two.tf two.osf
EndChar

StartChar: three
Encoding: 51 51 882
Width: 469
Flags: MW
HStem: -9 21G<136 251.5>
VStem: 8 405
LayerCount: 2
Fore
SplineSet
273 670 m 0
 363 670 413 617 413 539 c 0
 413 456 359 361 244 353 c 1
 328 347 385 300 385 203 c 0
 385 121 328 -9 175 -9 c 0
 97 -9 50 15 8 72 c 1
 10 73 l 1
 52 16 98 -7 175 -7 c 0
 328 -7 383 124 383 203 c 0
 383 302 322 352 225 352 c 2
 191 352 l 1
 191 354 l 1
 228 354 l 2
 355 354 411 457 411 539 c 0
 411 616 361 668 273 668 c 0
 216 668 159 648 104 598 c 1
 102 599 l 1
 157 649 214 670 273 670 c 0
EndSplineSet
Substitution2: "'onum' Oldstyle Figures lookup 22 subtable" three.osf
Substitution2: "'tnum' Tabular Numbers lookup 21 subtable" three.tf
Substitution2: "'frac' Diagonal Fractions lookup 16 subtable" three.numr
Substitution2: "'dnom' Denominators lookup 14 subtable" three.dnom
Substitution2: "'numr' Numerators lookup 13 subtable" three.numr
Substitution2: "'sups' Superscript lookup 12 subtable" threesuperior
Substitution2: "'subs' Subscript lookup 11 subtable" threeinferior
AlternateSubs2: "'aalt' Access All Alternates lookup 1 subtable" threeinferior threesuperior three.numr three.dnom three.tf three.osf
EndChar

StartChar: four
Encoding: 52 52 883
Width: 493
Flags: MW
HStem: 0 198<320 322 320 320>
VStem: 46 399<196 198>
LayerCount: 2
Fore
SplineSet
444 196 m 1
 349.66 196 l 1
 322 0 l 1
 320 0 l 1
 347.86 196 l 1
 46 196 l 1
 47 199 l 1
 321 670 l 1
 323 669 l 1
 49 198 l 1
 348.14 198 l 1
 379 418 l 1
 381 418 l 1
 349.94 198 l 1
 445 198 l 1
 444 196 l 1
EndSplineSet
Substitution2: "'onum' Oldstyle Figures lookup 22 subtable" four.osf
Substitution2: "'tnum' Tabular Numbers lookup 21 subtable" four.tf
Substitution2: "'frac' Diagonal Fractions lookup 16 subtable" four.numr
Substitution2: "'dnom' Denominators lookup 14 subtable" four.dnom
Substitution2: "'numr' Numerators lookup 13 subtable" four.numr
Substitution2: "'sups' Superscript lookup 12 subtable" foursuperior
Substitution2: "'subs' Subscript lookup 11 subtable" fourinferior
AlternateSubs2: "'aalt' Access All Alternates lookup 1 subtable" fourinferior foursuperior four.numr four.dnom four.tf four.osf
EndChar

StartChar: five
Encoding: 53 53 884
Width: 470
Flags: MW
HStem: -9 21G<141 259> 407 253<218.5 294.5>
VStem: 22 413
LayerCount: 2
Fore
SplineSet
435 658 m 1
 149 658 l 1
 108 362 l 1
 147 390 189 409 247 409 c 0
 343 409 396 353 396 257 c 0
 396 153 344 -9 174 -9 c 0
 108 -9 55 18 22 63 c 1
 24 64 l 1
 55 20 109 -7 174 -7 c 0
 347 -7 394 160 394 257 c 0
 394 351 342 407 247 407 c 0
 190 407 151 390 108 360 c 1
 106 360 l 1
 147 660 l 1
 435 660 l 1
 435 658 l 1
EndSplineSet
Substitution2: "'onum' Oldstyle Figures lookup 22 subtable" five.osf
Substitution2: "'tnum' Tabular Numbers lookup 21 subtable" five.tf
Substitution2: "'frac' Diagonal Fractions lookup 16 subtable" five.numr
Substitution2: "'dnom' Denominators lookup 14 subtable" five.dnom
Substitution2: "'numr' Numerators lookup 13 subtable" five.numr
Substitution2: "'sups' Superscript lookup 12 subtable" fivesuperior
Substitution2: "'subs' Subscript lookup 11 subtable" fiveinferior
AlternateSubs2: "'aalt' Access All Alternates lookup 1 subtable" fiveinferior fivesuperior five.numr five.dnom five.tf five.osf
EndChar
StartChar: six
Encoding: 54 54 2023
Width: 504
Flags: MW
HStem: -9 21G<176.5 311.5> 421 249<283 339.5>
VStem: 77 374
LayerCount: 2
Back
Fore
SplineSet
356 668 m 0
 210 668 116 504 85 289 c 1
 137 359 206 423 296 423 c 0
 384 423 437 372 437 269 c 0
 437 166 391 -9 232 -9 c 0
 121 -9 77 80 77 201 c 0
 77 228 79 257 83 287 c 0
 114 506 210 670 356 670 c 0
 397 670 428 656 451 634 c 1
 449 633 l 1
 427 654 397 668 356 668 c 0
296 421 m 0
 208 421 138 358 85 286 c 1
 81 256 79 228 79 201 c 0
 79 81 122 -7 232 -7 c 0
 391 -7 435 170 435 269 c 0
 435 371 383 421 296 421 c 0
EndSplineSet
Substitution2: "'onum' Oldstyle Figures lookup 26 subtable" six.osf
Substitution2: "'tnum' Tabular Numbers lookup 25 subtable" six.tf
Substitution2: "'frac' Diagonal Fractions lookup 19 subtable" six.numr
Substitution2: "'dnom' Denominators lookup 17 subtable" six.dnom
Substitution2: "'numr' Numerators lookup 16 subtable" six.numr
Substitution2: "'sups' Superscript lookup 15 subtable" uni2076
Substitution2: "'subs' Subscript lookup 14 subtable" uni2086
AlternateSubs2: "'aalt' Access All Alternates lookup 1 subtable" uni2086 uni2076 six.numr six.dnom six.tf six.osf
EndChar

StartChar: seven
Encoding: 55 55 886
Width: 435
Flags: MW
HStem: -4 21G<62 62>
VStem: 62 379
LayerCount: 2
Fore
SplineSet
441 658 m 1
 64 -5 l 1
 62 -4 l 1
 439 658 l 1
 101 658 l 1
 101 660 l 1
 441 660 l 1
 441 658 l 1
EndSplineSet
Substitution2: "'onum' Oldstyle Figures lookup 22 subtable" seven.osf
Substitution2: "'tnum' Tabular Numbers lookup 21 subtable" seven.tf
Substitution2: "'frac' Diagonal Fractions lookup 16 subtable" seven.numr
Substitution2: "'dnom' Denominators lookup 14 subtable" seven.dnom
Substitution2: "'numr' Numerators lookup 13 subtable" seven.numr
Substitution2: "'sups' Superscript lookup 12 subtable" sevensuperior
Substitution2: "'subs' Subscript lookup 11 subtable" seveninferior
AlternateSubs2: "'aalt' Access All Alternates lookup 1 subtable" seveninferior sevensuperior seven.numr seven.dnom seven.tf seven.osf
EndChar
StartChar: eight
Encoding: 56 56 2025
Width: 523
Flags: MW
HStem: -9 21G<172.5 290>
VStem: 56 407<92.5 581>
LayerCount: 2
Back
Fore
SplineSet
308 339 m 1
 402 299 442 261 442 183 c 0
 442 77 353 -9 227 -9 c 0
 118 -9 56 48 56 137 c 0
 56 223 93 304 242 365 c 1
 163 398 134 438 134 504 c 0
 134 600 225 670 319 670 c 0
 400 670 463 624 463 538 c 0
 463 467 438 402 308 339 c 1
136 504 m 0
 136 429 173 395 253 362 c 2
 306 340 l 1
 437 403 461 469 461 538 c 0
 461 623 399 668 319 668 c 0
 226 668 136 599 136 504 c 0
227 -7 m 0
 352 -7 440 78 440 183 c 0
 440 271 387 305 282 348 c 2
 244 364 l 1
 90 301 58 218 58 137 c 0
 58 49 119 -7 227 -7 c 0
EndSplineSet
Substitution2: "'onum' Oldstyle Figures lookup 26 subtable" eight.osf
Substitution2: "'tnum' Tabular Numbers lookup 25 subtable" eight.tf
Substitution2: "'frac' Diagonal Fractions lookup 19 subtable" eight.numr
Substitution2: "'dnom' Denominators lookup 17 subtable" eight.dnom
Substitution2: "'numr' Numerators lookup 16 subtable" eight.numr
Substitution2: "'sups' Superscript lookup 15 subtable" uni2078
Substitution2: "'subs' Subscript lookup 14 subtable" uni2088
AlternateSubs2: "'aalt' Access All Alternates lookup 1 subtable" uni2088 uni2078 eight.numr eight.dnom eight.tf eight.osf
EndChar

StartChar: nine
Encoding: 57 57 888
Width: 499
Flags: MW
HStem: -9 21G
VStem: 441.7 8.3
LayerCount: 2
Fore
SplineSet
301 670 m 0
 407 670 449.999 600.999 449.999 483.999 c 0
 449.999 299.999 385.999 77.999 87.999 -11.001 c 1
 86.999 -9.00098 l 1
 257.489 40.8486 408.109 154.329 441.699 386.939 c 1
 388.829 303.3 317.31 261 233 261 c 0
 148 261 90 321 90 422 c 0
 90 524 151 670 301 670 c 0
232.999 262.999 m 0
 316.489 262.999 390.099 306.459 442.049 391.439 c 1
 446.019 424.27 447.999 455.119 447.999 482.999 c 0
 447.999 599.999 405.999 667.999 300.999 667.999 c 0
 151.999 667.999 91.999 522.999 91.999 421.999 c 0
 91.999 321.999 148.999 262.999 232.999 262.999 c 0
EndSplineSet
Substitution2: "'onum' Oldstyle Figures lookup 22 subtable" nine.osf
Substitution2: "'tnum' Tabular Numbers lookup 21 subtable" nine.tf
Substitution2: "'frac' Diagonal Fractions lookup 16 subtable" nine.numr
Substitution2: "'dnom' Denominators lookup 14 subtable" nine.dnom
Substitution2: "'numr' Numerators lookup 13 subtable" nine.numr
Substitution2: "'sups' Superscript lookup 12 subtable" ninesuperior
Substitution2: "'subs' Subscript lookup 11 subtable" nineinferior
AlternateSubs2: "'aalt' Access All Alternates lookup 1 subtable" nineinferior ninesuperior nine.numr nine.dnom nine.tf nine.osf
EndChar
StartChar: colon
Encoding: 58 58 2122
Width: 120
Flags: MW
HStem: -4 14<21 25> 425 14<81 85>
VStem: 16 74
LayerCount: 2
Back
Fore
SplineSet
83 439 m 0
 87 439 90 436 90 432 c 0
 90 428 87 425 83 425 c 0
 79 425 76 428 76 432 c 0
 76 436 79 439 83 439 c 0
23 10 m 0
 27 10 30 7 30 3 c 0
 30 -1 27 -4 23 -4 c 0
 19 -4 16 -1 16 3 c 0
 16 7 19 10 23 10 c 0
EndSplineSet
EndChar
StartChar: less
Encoding: 60 60 2261
Width: 494
GlyphClass: 2
Flags: MW
HStem: 175 312<392 436>
VStem: 100 337<332 485 334 485>
LayerCount: 2
Back
Fore
SplineSet
436 487 m 1
 437 485 l 1
 102 333 l 1
 393 177 l 1
 392 175 l 1
 100 332 l 1
 100 334 l 1
 436 487 l 1
EndSplineSet
Substitution2: "'onum' Oldstyle Figures lookup 26 subtable" less.osf
Substitution2: "'tnum' Tabular Numbers lookup 25 subtable" less.tf
AlternateSubs2: "'aalt' Access All Alternates lookup 1 subtable" less.tf less.osf
EndChar

StartChar: equal
Encoding: 61 61 1095
Width: 478
Flags: MW
HStem: 255 152<107 392 84 415>
VStem: 84 331<255 407>
LayerCount: 2
Fore
SplineSet
107 407 m 1
 415 407 l 1
 414 405 l 1
 106 405 l 1
 107 407 l 1
85 257 m 1
 393 257 l 1
 392 255 l 1
 84 255 l 1
 85 257 l 1
EndSplineSet
Substitution2: "'onum' Oldstyle Figures lookup 22 subtable" equal.osf
Substitution2: "'tnum' Tabular Numbers lookup 21 subtable" equal.tf
Substitution2: "'dnom' Denominators lookup 14 subtable" equal.dnom
Substitution2: "'numr' Numerators lookup 13 subtable" equal.numr
Substitution2: "'sups' Superscript lookup 12 subtable" equalsuperior
AlternateSubs2: "'aalt' Access All Alternates lookup 1 subtable" equalsuperior equal.numr equal.dnom equal.tf equal.osf
EndChar

StartChar: greater
Encoding: 62 62 1098
Width: 496
Flags: MW
HStem: 175 312<79 123>
VStem: 78 339<177 334>
LayerCount: 2
Fore
SplineSet
417 334 m 1
 417 332 l 1
 79 175 l 1
 78 177 l 1
 415 333 l 1
 122 485 l 1
 123 487 l 1
 417 334 l 1
EndSplineSet
Substitution2: "'onum' Oldstyle Figures lookup 22 subtable" greater.osf
Substitution2: "'tnum' Tabular Numbers lookup 21 subtable" greater.tf
AlternateSubs2: "'aalt' Access All Alternates lookup 1 subtable" greater.tf greater.osf
EndChar

StartChar: question
Encoding: 63 63 991
Width: 448
Flags: MW
HStem: -5 14<187 191> 670 20G<261 335.5>
VStem: 123 293<490 612>
LayerCount: 2
Fore
SplineSet
296 690 m 0
 375 690 416 636 416 581 c 0
 416 399 190 416 192 267 c 0
 192 248 196 228 202 209 c 1
 200 209 l 1
 194 228 190 248 190 267 c 0
 188 417 414 400 414 581 c 0
 414 636 374 688 296 688 c 0
 227 688 180 663 125 611 c 1
 123 612 l 1
 178 664 226 690 296 690 c 0
189 9 m 0
 193 9 196 6 196 2 c 0
 196 -2 193 -5 189 -5 c 0
 185 -5 182 -2 182 2 c 0
 182 6 185 9 189 9 c 0
EndSplineSet
EndChar

StartChar: at
Encoding: 64 64 1220
Width: 1020
Flags: MW
HStem: -192 210<419 492.5 419 503> 472 219<472.5 581.5>
VStem: 99 229<124.5 239 124.5 280>
LayerCount: 2
Fore
SplineSet
586 691 m 0
 816 691 924 544 924 363 c 0
 924 215 864 14 720 14 c 0
 631 14 621 107 627 161 c 1
 585 67 528 16 456 16 c 0
 381 16 326 70 326 178 c 0
 326 301 388 474 556 474 c 0
 606 474 644 457 668 442 c 1
 631 175 l 2
 617 71 654 16 720 16 c 0
 863 16 922 216 922 363 c 0
 922 543 815 689 586 689 c 0
 242 689 101 382 101 177 c 0
 101 -52 261 -190 473 -190 c 0
 533 -190 605 -178 656 -159 c 1
 656 -161 l 1
 605 -180 533 -192 473 -192 c 0
 260 -192 99 -53 99 177 c 0
 99 383 241 691 586 691 c 0
456 18 m 0
 529 18 585 71 628 167 c 1
 666 441 l 1
 644 455 607 472 556 472 c 0
 389 472 328 300 328 178 c 0
 328 71 382 18 456 18 c 0
EndSplineSet
EndChar

StartChar: A
Encoding: 65 65 1
Width: 556
GlyphClass: 2
Flags: MW
HStem: 0 21G<-1 1 -1 -1 483 483 483 485> 660 20G<336 337 337 337>
VStem: -1 486<0 0>
AnchorPoint: "Anchor-11" 0 0 basechar 0
AnchorPoint: "Anchor-10" 198 517 basechar 0
AnchorPoint: "Anchor-9" 337 680 basechar 0
AnchorPoint: "Anchor-8" 495 0 basechar 0
LayerCount: 2
Fore
SplineSet
436.68 213 m 1
 106.55 213 l 1
 1 0 l 1
 -1 0 l 1
 336 680 l 1
 337 680 l 1
 485 0 l 1
 483 0 l 1
 436.68 213 l 1
436.24 215 m 1
 336 676 l 1
 107.54 215 l 1
 436.24 215 l 1
EndSplineSet
Substitution2: "Single Substitution lookup 30 subtable" ordfeminine
Substitution2: "'c2sc' Capitals to Small Capitals lookup 23 subtable" a.sc
AlternateSubs2: "'aalt' Access All Alternates lookup 1 subtable" ordfeminine a.sc
Position2: "'cpsp' Capital Spacing lookup 0 subtable" dx=5 dy=0 dh=10 dv=0
EndChar

StartChar: C
Encoding: 67 67 14
Width: 530
GlyphClass: 2
Flags: MW
HStem: -9 21G<239 346> 670 20G<284.5 440>
VStem: 91 456<168 633>
AnchorPoint: "Anchor-11" 306 0 basechar 0
AnchorPoint: "Anchor-10" 0 0 basechar 0
AnchorPoint: "Anchor-9" 403 680 basechar 0
AnchorPoint: "Anchor-8" 0 0 basechar 0
LayerCount: 2
Fore
SplineSet
403 690 m 0
 477 690 517 664 547 633 c 1
 546 631 l 1
 514 663 478 688 403 688 c 0
 166 688 93 424 93 253 c 0
 93 84 175 -7 305 -7 c 0
 386 -7 438 25 474 52 c 1
 475 50 l 1
 439 23 387 -9 305 -9 c 0
 173 -9 91 83 91 253 c 0
 91 429 166 690 403 690 c 0
EndSplineSet
Substitution2: "'c2sc' Capitals to Small Capitals lookup 23 subtable" c.sc
Substitution2: "'aalt' Access All Alternates lookup 0 subtable" c.sc
Position2: "'cpsp' Capital Spacing lookup 0 subtable" dx=5 dy=0 dh=10 dv=0
EndChar
StartChar: D
Encoding: 68 68 50
Width: 613
GlyphClass: 2
Flags: MW
HStem: 0 21G<94 205 94 94> 660 20G<189 293 293 357>
VStem: 94 453<0 537>
AnchorPoint: "Anchor-14" 321 340 basechar 0
AnchorPoint: "Anchor-13" 0 0 basechar 0
AnchorPoint: "Anchor-12" 348 680 basechar 0
AnchorPoint: "Anchor-11" 0 0 basechar 0
AnchorPoint: "Anchor-10" 252 0 basechar 0
LayerCount: 2
Back
Fore
SplineSet
293 680 m 2
 421 680 547 638 547 436 c 0
 547 233 461 0 205 0 c 2
 94 0 l 1
 189 680 l 1
 293 680 l 2
293 678 m 2
 191 678 l 1
 96 2 l 1
 205 2 l 2
 459 2 545 234 545 436 c 0
 545 636 420 678 293 678 c 2
EndSplineSet
Substitution2: "'c2sc' Capitals to Small Capitals lookup 27 subtable" d.sc
Substitution2: "'aalt' Access All Alternates lookup 0 subtable" d.sc
Position2: "'cpsp' Capital Spacing lookup 0 subtable" dx=5 dy=0 dh=10 dv=0
EndChar

StartChar: E
Encoding: 69 69 24
Width: 495
GlyphClass: 2
Flags: MW
HStem: 0 21G<94 409 94 94> 360 320<189 407 147 494>
VStem: 94 400
AnchorPoint: "Anchor-11" 248 0 basechar 0
AnchorPoint: "Anchor-10" 88 517 basechar 0
AnchorPoint: "Anchor-9" 343 680 basechar 0
AnchorPoint: "Anchor-8" 389 0 basechar 0
LayerCount: 2
Fore
SplineSet
494 678 m 1
 191 678 l 1
 147 362 l 1
 407 362 l 1
 407 360 l 1
 147 360 l 1
 96 2 l 1
 409 2 l 1
 409 0 l 1
 94 0 l 1
 189 680 l 1
 494 680 l 1
 494 678 l 1
EndSplineSet
Substitution2: "'c2sc' Capitals to Small Capitals lookup 23 subtable" e.sc
Substitution2: "'aalt' Access All Alternates lookup 0 subtable" e.sc
Position2: "'cpsp' Capital Spacing lookup 0 subtable" dx=5 dy=0 dh=10 dv=0
EndChar
StartChar: F
Encoding: 70 70 93
Width: 470
GlyphClass: 2
Flags: MW
HStem: 0 21G<94 96 94 94> 345 335<189 402 144 489> 660 20G<189 489 489 489>
VStem: 94 395
AnchorPoint: "Anchor-14" 0 0 basechar 0
AnchorPoint: "Anchor-13" 0 0 basechar 0
AnchorPoint: "Anchor-12" 339 680 basechar 0
AnchorPoint: "Anchor-11" 0 0 basechar 0
AnchorPoint: "Anchor-10" 0 0 basechar 0
LayerCount: 2
Back
Fore
SplineSet
489 680 m 1xb0
 489 678 l 1xb0
 191 678 l 1
 144 347 l 1
 402 347 l 1
 402 345 l 1
 144 345 l 1xd0
 96 0 l 1
 94 0 l 1
 189 680 l 1
 489 680 l 1xb0
EndSplineSet
Substitution2: "'c2sc' Capitals to Small Capitals lookup 27 subtable" f.sc
Substitution2: "'aalt' Access All Alternates lookup 0 subtable" f.sc
Position2: "'cpsp' Capital Spacing lookup 0 subtable" dx=5 dy=0 dh=10 dv=0
EndChar
StartChar: I
Encoding: 73 73 115
Width: 262
GlyphClass: 2
Flags: MW
HStem: 0 21G<94 96 94 94> 660 20G<189 191 191 191>
VStem: 94 97
AnchorPoint: "Anchor-14" 0 0 basechar 0
AnchorPoint: "Anchor-13" 0 0 basechar 0
AnchorPoint: "Anchor-12" 190 680 basechar 0
AnchorPoint: "Anchor-11" 105 0 basechar 0
AnchorPoint: "Anchor-10" 95 0 basechar 0
LayerCount: 2
Back
Fore
SplineSet
191 680 m 1
 96 0 l 1
 94 0 l 1
 189 680 l 1
 191 680 l 1
EndSplineSet
Substitution2: "'c2sc' Capitals to Small Capitals lookup 27 subtable" i.sc
Substitution2: "'aalt' Access All Alternates lookup 0 subtable" i.sc
Position2: "'cpsp' Capital Spacing lookup 0 subtable" dx=5 dy=0 dh=10 dv=0
EndChar

StartChar: J
Encoding: 74 74 54
Width: 274
GlyphClass: 2
Flags: MW
HStem: 660 20G<207 209 209 209>
VStem: -19 228
AnchorPoint: "Anchor-11" 0 0 basechar 0
AnchorPoint: "Anchor-10" 0 0 basechar 0
AnchorPoint: "Anchor-9" 209 680 basechar 0
AnchorPoint: "Anchor-8" 0 0 basechar 0
LayerCount: 2
Fore
SplineSet
126 85 m 2
 113 -7 88 -50 -18 -91 c 1
 -19 -89 l 1
 86 -49 111 -6 124 85 c 2
 207 680 l 1
 209 680 l 1
 126 85 l 2
EndSplineSet
Substitution2: "'c2sc' Capitals to Small Capitals lookup 23 subtable" j.sc
Substitution2: "'aalt' Access All Alternates lookup 0 subtable" j.sc
Position2: "'cpsp' Capital Spacing lookup 0 subtable" dx=5 dy=0 dh=10 dv=0
EndChar
StartChar: K
Encoding: 75 75 137
Width: 504
GlyphClass: 2
Flags: MW
HStem: 0 21G<450 453 450 450> 660 20G<189 191 191 191 529 532 532 532>
VStem: 94 438
AnchorPoint: "Anchor-14" 0 0 basechar 0
AnchorPoint: "Anchor-13" 0 0 basechar 0
AnchorPoint: "Anchor-12" 343 680 basechar 0
AnchorPoint: "Anchor-11" 0 0 basechar 0
AnchorPoint: "Anchor-10" 248 0 basechar 0
LayerCount: 2
Back
Fore
SplineSet
191 680 m 1
 96 1 l 1
 94 1 l 1
 189 680 l 1
 191 680 l 1
532 680 m 1
 153 366 l 1
 453 0 l 1
 450 0 l 1
 150 366 l 1
 529 680 l 1
 532 680 l 1
EndSplineSet
Substitution2: "'c2sc' Capitals to Small Capitals lookup 27 subtable" k.sc
Substitution2: "'aalt' Access All Alternates lookup 0 subtable" k.sc
Position2: "'cpsp' Capital Spacing lookup 0 subtable" dx=5 dy=0 dh=10 dv=0
EndChar
StartChar: L
Encoding: 76 76 141
Width: 445
GlyphClass: 2
Flags: MW
HStem: 0 21G<94 384 94 94> 660 20G<189 191 191 191>
VStem: 94 290<0 2>
AnchorPoint: "Anchor-14" 363 355 basechar 0
AnchorPoint: "Anchor-13" 251 680 basechar 0
AnchorPoint: "Anchor-12" 190 680 basechar 0
AnchorPoint: "Anchor-11" 0 0 basechar 0
AnchorPoint: "Anchor-10" 239 0 basechar 0
LayerCount: 2
Back
Fore
SplineSet
191 680 m 1
 96 2 l 1
 384 2 l 1
 384 0 l 1
 94 0 l 1
 189 680 l 1
 191 680 l 1
EndSplineSet
Substitution2: "'c2sc' Capitals to Small Capitals lookup 27 subtable" l.sc
Substitution2: "'aalt' Access All Alternates lookup 0 subtable" l.sc
Position2: "'cpsp' Capital Spacing lookup 0 subtable" dx=5 dy=0 dh=10 dv=0
EndChar
StartChar: N
Encoding: 78 78 156
Width: 654
GlyphClass: 2
Flags: MW
HStem: 0 21G<94 96 94 94 485 488 485 485> 660 20G<189 192 192 192 581 583 583 583>
VStem: 94 489
AnchorPoint: "Anchor-14" 0 0 basechar 0
AnchorPoint: "Anchor-13" 0 0 basechar 0
AnchorPoint: "Anchor-12" 390 680 basechar 0
AnchorPoint: "Anchor-11" 0 0 basechar 0
AnchorPoint: "Anchor-10" 285 0 basechar 0
LayerCount: 2
Back
Fore
SplineSet
583 680 m 1
 488 0 l 1
 485 0 l 1
 191 677 l 1
 176 572 l 1
 96 0 l 1
 94 0 l 1
 189 680 l 1
 192 680 l 1
 486 4 l 1
 505 136 l 1
 581 680 l 1
 583 680 l 1
EndSplineSet
Substitution2: "'c2sc' Capitals to Small Capitals lookup 27 subtable" n.sc
Substitution2: "'aalt' Access All Alternates lookup 0 subtable" n.sc
Position2: "'cpsp' Capital Spacing lookup 0 subtable" dx=5 dy=0 dh=10 dv=0
EndChar

StartChar: P
Encoding: 80 80 83
Width: 552
GlyphClass: 2
Flags: MW
HStem: 0 21G<94 96 94 94> 660 20G<189 311 311 382>
VStem: 94 428
LayerCount: 2
Fore
SplineSet
311 680 m 2
 453 680 522 634 522 525 c 0
 522 411 462 291 253 291 c 2
 136.77 291 l 1
 96 0 l 1
 94 0 l 1
 189 680 l 1
 311 680 l 2
254 293 m 2
 461 293 520 412 520 525 c 0
 520 633 452 678 311 678 c 2
 191 678 l 1
 137.05 293 l 1
 254 293 l 2
EndSplineSet
Substitution2: "'c2sc' Capitals to Small Capitals lookup 23 subtable" p.sc
Substitution2: "'aalt' Access All Alternates lookup 0 subtable" p.sc
Position2: "'cpsp' Capital Spacing lookup 0 subtable" dx=5 dy=0 dh=10 dv=0
EndChar

StartChar: Q
Encoding: 81 81 85
Width: 674
GlyphClass: 2
Flags: MW
HStem: -8.91 21G 670 20G<286 472>
VStem: 90 531<168.5 512.5>
LayerCount: 2
Fore
SplineSet
621 429 m 0
 621 268.9 557.319 15.2207 338.06 -7.01953 c 1
 443.909 -8.16992 514.35 -21.3301 568.989 -72 c 1
 566.989 -73 l 1
 513.97 -24.8896 450.34 -7.62988 313.62 -8.91016 c 0
 311.16 -9 308.68 -9 306 -9 c 0
 169 -9 90 86 90 251 c 0
 90 418 169 690 403 690 c 0
 541 690 621 596 621 429 c 0
91.9893 253 m 0
 91.9893 88 169.989 -7 305.989 -7 c 0
 549.989 -7 618.989 265 618.989 429 c 0
 618.989 595 539.989 688 402.989 688 c 0
 169.989 688 91.9893 415 91.9893 253 c 0
EndSplineSet
Substitution2: "'c2sc' Capitals to Small Capitals lookup 23 subtable" q.sc
Substitution2: "'aalt' Access All Alternates lookup 0 subtable" q.sc
Position2: "'cpsp' Capital Spacing lookup 0 subtable" dx=5 dy=0 dh=10 dv=0
EndChar

StartChar: R
Encoding: 82 82 86
Width: 561
GlyphClass: 2
Flags: MW
HStem: 0 21G<94 96 94 94 467 470 467 467> 660 20G<189 326 326 397>
VStem: 94 425
AnchorPoint: "Anchor-11" 265 0 basechar 0
AnchorPoint: "Anchor-10" 0 0 basechar 0
AnchorPoint: "Anchor-9" 340 680 basechar 0
AnchorPoint: "Anchor-8" 0 0 basechar 0
LayerCount: 2
Fore
SplineSet
519 539 m 0
 519 446.31 464.37 337.73 324.42 334.03 c 1
 470 0 l 1
 467 0 l 1
 322.43 334 l 1
 142.8 334 l 1
 96 0 l 1
 94 0 l 1
 189 680 l 1
 326 680 l 2
 468 680 519 626 519 539 c 0
317 336.001 m 2
 458 336.001 517 442.001 517 539.001 c 0
 517 625.001 467 678.001 326 678.001 c 2
 191 678.001 l 1
 143.08 336.001 l 1
 317 336.001 l 2
EndSplineSet
Substitution2: "'c2sc' Capitals to Small Capitals lookup 23 subtable" r.sc
Substitution2: "'aalt' Access All Alternates lookup 0 subtable" r.sc
Position2: "'cpsp' Capital Spacing lookup 0 subtable" dx=5 dy=0 dh=10 dv=0
EndChar

StartChar: S
Encoding: 83 83 90
Width: 540
GlyphClass: 2
Flags: MW
HStem: -9 21G<177 306> 670 20G<250.5 363>
VStem: 38 451
AnchorPoint: "Anchor-11" 225 0 basechar 0
AnchorPoint: "Anchor-10" 0 0 basechar 0
AnchorPoint: "Anchor-9" 332 680 basechar 0
AnchorPoint: "Anchor-8" 0 0 basechar 0
LayerCount: 2
Fore
SplineSet
324 690 m 0
 402 690 452 663 489 626 c 1
 487 625 l 1
 450 662 400 688 324 688 c 0
 178 688 127 590 127 524 c 0
 127 441 169 409 286 370 c 0
 395 333 451 294 451 198 c 0
 451 118 389 -9 223 -9 c 0
 131 -9 81 22 38 69 c 1
 39 71 l 1
 82 24 131 -7 223 -7 c 0
 388 -7 449 121 449 197 c 0
 449 293 393 331 285 368 c 0
 168 407 125 439 125 524 c 0
 125 591 177 690 324 690 c 0
EndSplineSet
Substitution2: "'c2sc' Capitals to Small Capitals lookup 23 subtable" s.sc
Substitution2: "'aalt' Access All Alternates lookup 0 subtable" s.sc
Position2: "'cpsp' Capital Spacing lookup 0 subtable" dx=5 dy=0 dh=10 dv=0
EndChar

StartChar: T
Encoding: 84 84 96
Width: 472
GlyphClass: 2
Flags: MW
HStem: 0 21G<199 201 199 199> 660 20G<79 511 511 511>
VStem: 79 432<678 680 678 680>
AnchorPoint: "Anchor-11" 200 0 basechar 0
AnchorPoint: "Anchor-10" 0 0 basechar 0
AnchorPoint: "Anchor-9" 282 680 basechar 0
AnchorPoint: "Anchor-8" 0 0 basechar 0
LayerCount: 2
Fore
SplineSet
511 678 m 1
 296 678 l 1
 201 0 l 1
 199 0 l 1
 294 678 l 1
 79 678 l 1
 79 680 l 1
 511 680 l 1
 511 678 l 1
EndSplineSet
Substitution2: "'c2sc' Capitals to Small Capitals lookup 23 subtable" t.sc
Substitution2: "'aalt' Access All Alternates lookup 0 subtable" t.sc
Position2: "'cpsp' Capital Spacing lookup 0 subtable" dx=5 dy=0 dh=10 dv=0
EndChar
StartChar: V
Encoding: 86 86 282
Width: 523
GlyphClass: 2
Flags: MW
HStem: 0 21G<226 228 226 226> 660 20G<94 96 96 96 545 547 547 547>
VStem: 94 453<680 680>
LayerCount: 2
Back
Fore
SplineSet
547 680 m 1
 228 0 l 1
 226 0 l 1
 94 680 l 1
 96 680 l 1
 227 2 l 1
 545 680 l 1
 547 680 l 1
EndSplineSet
Substitution2: "'c2sc' Capitals to Small Capitals lookup 27 subtable" v.sc
Substitution2: "'aalt' Access All Alternates lookup 0 subtable" v.sc
Position2: "'cpsp' Capital Spacing lookup 0 subtable" dx=5 dy=0 dh=10 dv=0
EndChar

StartChar: W
Encoding: 87 87 113
Width: 776
GlyphClass: 2
Flags: MW
HStem: 0 21G<169 171 169 169 533 535 533 533> 660 20G<104 106 106 106 446 448 448 448 788 790 790 790>
VStem: 104 686<680 680>
AnchorPoint: "Anchor-11" 0 0 basechar 0
AnchorPoint: "Anchor-10" 0 0 basechar 0
AnchorPoint: "Anchor-9" 447 680 basechar 0
AnchorPoint: "Anchor-8" 0 0 basechar 0
LayerCount: 2
Fore
SplineSet
535 0 m 1
 533 0 l 1
 447 678 l 1
 171 0 l 1
 169 0 l 1
 104 680 l 1
 106 680 l 1
 170 2 l 1
 446 680 l 1
 448 680 l 1
 534 3 l 1
 788 680 l 1
 790 680 l 1
 535 0 l 1
EndSplineSet
Substitution2: "'c2sc' Capitals to Small Capitals lookup 23 subtable" w.sc
Substitution2: "'aalt' Access All Alternates lookup 0 subtable" w.sc
Position2: "'cpsp' Capital Spacing lookup 0 subtable" dx=5 dy=0 dh=10 dv=0
EndChar

StartChar: Z
Encoding: 90 90 124
Width: 504
GlyphClass: 2
Flags: MW
HStem: 0 21G<9 401 9 9> 660 20G<141 513 513 513>
VStem: 9 504
AnchorPoint: "Anchor-11" 0 0 basechar 0
AnchorPoint: "Anchor-10" 0 0 basechar 0
AnchorPoint: "Anchor-9" 313 680 basechar 0
AnchorPoint: "Anchor-8" 0 0 basechar 0
LayerCount: 2
Fore
SplineSet
513 678 m 1
 12 2 l 1
 401 2 l 1
 401 0 l 1
 9 0 l 1
 9 2 l 1
 510 678 l 1
 141 678 l 1
 141 680 l 1
 513 680 l 1
 513 678 l 1
EndSplineSet
Substitution2: "'c2sc' Capitals to Small Capitals lookup 23 subtable" z.sc
Substitution2: "'aalt' Access All Alternates lookup 0 subtable" z.sc
Position2: "'cpsp' Capital Spacing lookup 0 subtable" dx=5 dy=0 dh=10 dv=0
EndChar
StartChar: bracketleft
Encoding: 91 91 2148
Width: 310
Flags: MW
HStem: -100 890<59 295 59 295>
VStem: 59 236
LayerCount: 2
Back
Fore
SplineSet
295 790 m 1
 295 788 l 1
 187 788 l 1
 61 -98 l 1
 169 -98 l 1
 169 -100 l 1
 59 -100 l 1
 185 790 l 1
 295 790 l 1
EndSplineSet
Substitution2: "'case' Case-Sensitive Forms lookup 29 subtable" bracketleft.case
Substitution2: "'aalt' Access All Alternates lookup 0 subtable" bracketleft.case
EndChar

StartChar: backslash
Encoding: 92 92 981
Width: 520
Flags: MW
HStem: -92 886<220 326>
VStem: 218 110
LayerCount: 2
Fore
SplineSet
328 -91 m 1
 326 -92 l 1
 218 793 l 1
 220 794 l 1
 328 -91 l 1
EndSplineSet
EndChar

StartChar: bracketright
Encoding: 93 93 1008
Width: 310
Flags: MW
HStem: -100 890<39 275 39 275>
VStem: 39 236
LayerCount: 2
Fore
SplineSet
149 -100 m 1
 39 -100 l 1
 41 -98 l 1
 149 -98 l 1
 272 788 l 1
 164 788 l 1
 165 790 l 1
 275 790 l 1
 149 -100 l 1
EndSplineSet
Substitution2: "'case' Case-Sensitive Forms lookup 25 subtable" bracketright.case
Substitution2: "'aalt' Access All Alternates lookup 0 subtable" bracketright.case
EndChar

StartChar: asciicircum
Encoding: 94 94 1230
Width: 528
Flags: MW
HStem: 507 20G<127 129 127 127 463 465 463 463>
VStem: 127 338<527 527>
LayerCount: 2
Fore
SplineSet
465 527 m 1
 463 527 l 1
 336 815 l 1
 129 527 l 1
 127 527 l 1
 337 817 l 1
 339 817 l 1
 465 527 l 1
EndSplineSet
EndChar
StartChar: underscore
Encoding: 95 95 2137
Width: 520
Flags: MW
HStem: -87 2<5 419 5 419>
VStem: 5 414<-87 -85 -87 -85>
LayerCount: 2
Back
Fore
SplineSet
5 -87 m 1
 5 -85 l 1
 419 -85 l 1
 419 -87 l 1
 5 -87 l 1
EndSplineSet
EndChar

StartChar: grave
Encoding: 96 96 1259
Width: 228
Flags: MW
HStem: 662 84
VStem: 98 156<663 744>
LayerCount: 2
Fore
SplineSet
254 663 m 1
 253 662 l 1
 98 744 l 1
 99 746 l 1
 254 663 l 1
EndSplineSet
Substitution2: "'case' Case-Sensitive Forms lookup 25 subtable" grave.case
Substitution2: "'smcp' Lowercase to Small Capitals lookup 24 subtable" grave.sc
Substitution2: "'c2sc' Capitals to Small Capitals lookup 23 subtable" grave.sc
AlternateSubs2: "'aalt' Access All Alternates lookup 1 subtable" grave.sc grave.case
EndChar
StartChar: a
Encoding: 97 97 335
Width: 539
GlyphClass: 2
Flags: MW
HStem: -9 21G<178 259 442 442> -7 21G<178.5 259 443 443> 507 20G<238 362>
VStem: 398.89 43.11
AnchorPoint: "Anchor-14" 0 0 basechar 0
AnchorPoint: "Anchor-13" 0 0 basechar 0
AnchorPoint: "Anchor-12" 336 517 basechar 0
AnchorPoint: "Anchor-11" 452 -9 basechar 0
AnchorPoint: "Anchor-10" 257 0 basechar 0
LayerCount: 2
Back
Fore
SplineSet
337 527 m 0x70
 387 527 428 511 462 487 c 1
 406 121 l 2
 403 99 401 81 401 65 c 0
 401 28 413 4 443 -7 c 1
 442 -9 l 1x70
 388 12 398 71 403 116 c 1
 357 31 291 -9 227 -9 c 0xb0
 129 -9 74 72 74 183 c 0
 74 326 139 527 337 527 c 0x70
337 525 m 0
 140 525 76 325 76 183 c 0
 76 73 130 -7 227 -7 c 0
 291 -7 357 34 404 121 c 1
 460 486 l 1
 426 510 386 525 337 525 c 0
EndSplineSet
Substitution2: "Single Substitution lookup 41 subtable" ordfeminine
Substitution2: "'smcp' Lowercase to Small Capitals lookup 28 subtable" a.sc
AlternateSubs2: "'aalt' Access All Alternates lookup 1 subtable" ordfeminine a.sc
EndChar

StartChar: b
Encoding: 98 98 146
Width: 562
GlyphClass: 2
Flags: MW
HStem: -9 21G<220.5 338> 507 20G<301.045 391> 710 20G<191 193 193 193>
VStem: 94 395<27 399>
LayerCount: 2
Fore
SplineSet
150 420 m 1
 200 481 259.09 527 343 527 c 0
 439 527 489 459 489 339 c 0
 489 207 425 -9 251 -9 c 0
 190 -9 150 2 94 27 c 1
 191 730 l 1
 193 730 l 1
 150 420 l 1
343 525 m 0
 261 525 205 483 150 418 c 1
 96 28 l 1
 153 3 192 -7 251 -7 c 0
 424 -7 487 208 487 339 c 0
 487 458 438 525 343 525 c 0
EndSplineSet
Substitution2: "'smcp' Lowercase to Small Capitals lookup 24 subtable" b.sc
Substitution2: "'aalt' Access All Alternates lookup 0 subtable" b.sc
EndChar

StartChar: c
Encoding: 99 99 147
Width: 469
GlyphClass: 2
Flags: MW
HStem: -9 21G<185.5 273.5> 507 20G<256 345.5>
VStem: 75.39 365.61
AnchorPoint: "Anchor-11" 249 -1 basechar 0
AnchorPoint: "Anchor-10" 0 0 basechar 0
AnchorPoint: "Anchor-9" 305 517 basechar 0
AnchorPoint: "Anchor-8" 0 0 basechar 0
LayerCount: 2
Fore
SplineSet
319 527 m 0
 372 527 410 510 441 477 c 1
 439 476 l 1
 408 509 370 525 319 525 c 0
 195 525 105 424 82 256 c 0
 58 88 129 -7 243 -7 c 0
 302 -7 344 14 383 45 c 1
 384 44 l 1
 346 13 304 -9 243 -9 c 0
 128 -9 56 86 80 256 c 0
 104 426 193 527 319 527 c 0
EndSplineSet
Substitution2: "'smcp' Lowercase to Small Capitals lookup 24 subtable" c.sc
Substitution2: "'aalt' Access All Alternates lookup 0 subtable" c.sc
EndChar

StartChar: d
Encoding: 100 100 153
Width: 572
GlyphClass: 2
Flags: MW
HStem: -9 21G<183.999 277.574> 0 21G<408.999 410.999 408.999 408.999> 507 20G<228.499 361.034> 710 20G<511 513 513 513>
VStem: 80 433
LayerCount: 2
Fore
SplineSet
513 730 m 1x78
 410.999 0 l 1
 408.999 0 l 1x78
 429.999 149 l 1
 382.999 65 326.149 -9 228.999 -9 c 0xb8
 138.999 -9 79.999 61 79.999 182 c 0
 79.999 315 138.999 527 317.999 527 c 0
 404.069 527 450.01 473.16 468.41 423.59 c 1
 511 730 l 1
 513 730 l 1x78
317.999 525 m 0
 139.999 525 81.999 314 81.999 182 c 0
 81.999 62 139.999 -7 228.999 -7 c 0
 326.389 -7 382.999 68 429.999 152 c 1
 467.999 420 l 1
 447.999 474 402.729 525 317.999 525 c 0
EndSplineSet
Substitution2: "'smcp' Lowercase to Small Capitals lookup 24 subtable" d.sc
Substitution2: "'aalt' Access All Alternates lookup 0 subtable" d.sc
EndChar

StartChar: e
Encoding: 101 101 157
Width: 529
GlyphClass: 2
Flags: MW
HStem: -9 21G<188 271.5> 507 20G<229 362.5>
VStem: 75 390<125.5 451>
AnchorPoint: "Anchor-11" 229 0 basechar 0
AnchorPoint: "Anchor-10" 0 0 basechar 0
AnchorPoint: "Anchor-9" 308 517 basechar 0
AnchorPoint: "Anchor-8" 344 10 basechar 0
LayerCount: 2
Fore
SplineSet
465 414 m 0
 465 306.13 348.279 231.18 77.9795 218.04 c 1
 77.3096 208.26 77 198.87 77 190 c 0
 77 62 138 -7 239 -7 c 0
 304 -7 348 14 400 52 c 1
 401 50 l 1
 349 12 304 -9 239 -9 c 0
 137 -9 75 61 75 190 c 0
 75 310 133 527 325 527 c 0
 400 527 465 488 465 414 c 0
324.999 525 m 0
 150.009 525 86.9785 342.608 78.1182 220.049 c 1
 348.309 233.199 462.999 308.14 462.999 414 c 0
 462.999 487 398.999 525 324.999 525 c 0
EndSplineSet
Substitution2: "'smcp' Lowercase to Small Capitals lookup 24 subtable" e.sc
Substitution2: "'aalt' Access All Alternates lookup 0 subtable" e.sc
EndChar
StartChar: f
Encoding: 102 102 447
Width: 299
GlyphClass: 2
Flags: MW
HStem: -190 21G<-33 -33> 497 20G<71 164 164 164 166 316 316 316> 515 219<71 327 71 327 272.5 316 165 327>
VStem: -33 448
AnchorPoint: "Anchor-14" 0 0 basechar 0
AnchorPoint: "Anchor-13" 0 0 basechar 0
AnchorPoint: "Anchor-12" 310 727 basechar 0
AnchorPoint: "Anchor-11" 0 0 basechar 0
AnchorPoint: "Anchor-10" 65 -188 basechar 0
LayerCount: 2
Back
Fore
SplineSet
305 732 m 0xb0
 241 732 191 693 180 618 c 2
 166 517 l 1xd0
 316 517 l 1
 316 515 l 1
 165 515 l 1
 93 1 l 2
 76 -118 43 -154 -32 -191 c 1
 -33 -190 l 1
 41 -153 75 -117 91 1 c 2
 163 515 l 1xb0
 71 515 l 1
 71 517 l 1
 164 517 l 1xd0
 178 618 l 2
 189 694 240 734 305 734 c 0
 349 734 383 721 415 696 c 1
 413 695 l 1
 382 719 349 732 305 732 c 0xb0
EndSplineSet
Substitution2: "'smcp' Lowercase to Small Capitals lookup 28 subtable" f.sc
Substitution2: "'locl' Localized Forms in Latin lookup 11 subtable" f.loclEWE
AlternateSubs2: "'aalt' Access All Alternates lookup 1 subtable" f.loclEWE f.sc
EndChar
StartChar: h
Encoding: 104 104 468
Width: 580
GlyphClass: 2
Flags: MW
HStem: 0 21G<89 91 89 89 422 424 422 422> 507 20G<322 411.5> 710 20G<191 193 193 193>
VStem: 89 389.77
AnchorPoint: "Anchor-14" 281 259 basechar 0
AnchorPoint: "Anchor-13" 0 0 basechar 0
AnchorPoint: "Anchor-12" 321 727 basechar 0
AnchorPoint: "Anchor-11" 0 0 basechar 0
AnchorPoint: "Anchor-10" 257 0 basechar 0
LayerCount: 2
Back
Fore
SplineSet
365 527 m 0
 458 527 489 467 476 368 c 2
 424 0 l 1
 422 0 l 1
 474 368 l 2
 487 466 457 525 365 525 c 0
 279 525 208 471 137 329 c 1
 91 0 l 1
 89 0 l 1
 191 730 l 1
 193 730 l 1
 138 335 l 1
 207 473 279 527 365 527 c 0
EndSplineSet
Substitution2: "'smcp' Lowercase to Small Capitals lookup 28 subtable" h.sc
Substitution2: "'aalt' Access All Alternates lookup 0 subtable" h.sc
EndChar

StartChar: i
Encoding: 105 105 176
Width: 252
GlyphClass: 2
Flags: MW
HStem: 0 21G<89 91 89 89> 497 20G<161 163 163 163> 694 12<185 189>
VStem: 89 104
AnchorPoint: "Anchor-11" 0 0 basechar 0
AnchorPoint: "Anchor-10" 0 0 basechar 0
AnchorPoint: "Anchor-9" 162 517 basechar 0
AnchorPoint: "Anchor-8" 101 0 basechar 0
LayerCount: 2
Fore
SplineSet
187 706 m 0
 191 706 193 703 193 700 c 0
 193 697 191 694 187 694 c 0
 183 694 181 697 181 700 c 0
 181 703 183 706 187 706 c 0
91 0 m 1
 89 0 l 1
 161 517 l 1
 163 517 l 1
 91 0 l 1
EndSplineSet
Substitution2: "'smcp' Lowercase to Small Capitals lookup 24 subtable" i.sc
Substitution2: "'locl' Localized Forms in Latin lookup 10 subtable" i.loclTRK
Substitution2: "'locl' Localized Forms in Latin lookup 8 subtable" i.loclTRK
Substitution2: "'locl' Localized Forms in Latin lookup 6 subtable" i.loclTRK
Substitution2: "'locl' Localized Forms in Latin lookup 3 subtable" i.loclTRK
Substitution2: "'locl' Localized Forms in Latin lookup 2 subtable" i.loclTRK
AlternateSubs2: "'aalt' Access All Alternates lookup 1 subtable" i.loclTRK i.sc
EndChar
StartChar: j
Encoding: 106 106 497
Width: 252
GlyphClass: 2
Flags: MW
HStem: -190 21G<-35 -35> 497 20G<161 163 163 163> 694 12<186 190>
VStem: -35 229
AnchorPoint: "Anchor-14" 0 0 basechar 0
AnchorPoint: "Anchor-13" 0 0 basechar 0
AnchorPoint: "Anchor-12" 189 706 basechar 0
AnchorPoint: "Anchor-11" 0 0 basechar 0
AnchorPoint: "Anchor-10" 63 -188 basechar 0
LayerCount: 2
Back
Fore
SplineSet
188 706 m 0
 192 706 194 703 194 700 c 0
 194 697 192 694 188 694 c 0
 184 694 182 697 182 700 c 0
 182 703 184 706 188 706 c 0
163 517 m 1
 91 1 l 2
 74 -118 41 -154 -34 -191 c 1
 -35 -190 l 1
 39 -153 73 -117 89 1 c 2
 161 517 l 1
 163 517 l 1
EndSplineSet
Substitution2: "'smcp' Lowercase to Small Capitals lookup 28 subtable" j.sc
Substitution2: "'aalt' Access All Alternates lookup 0 subtable" j.sc
EndChar
StartChar: k
Encoding: 107 107 505
Width: 509
GlyphClass: 2
Flags: MW
HStem: 0 21G<89 91 89 89 408 410 408 408> 507 20G<322.5 400.5> 710 20G<191 193 193 193>
VStem: 89 382<0 455.5>
AnchorPoint: "Anchor-14" 0 0 basechar 0
AnchorPoint: "Anchor-13" 0 0 basechar 0
AnchorPoint: "Anchor-12" 348 727 basechar 0
AnchorPoint: "Anchor-11" 0 0 basechar 0
AnchorPoint: "Anchor-10" 228 0 basechar 0
LayerCount: 2
Back
Fore
SplineSet
193 730 m 1
 134 308 l 1
 196 448 278 527 367 527 c 0
 434 527 471 486 471 425 c 0
 471 334 397 281 282 243 c 1
 410 0 l 1
 408 0 l 1
 279 244 l 1
 396 283 469 335 469 424 c 0
 469 485 433 525 367 525 c 0
 279 525 197 446 133 302 c 1
 91 0 l 1
 89 0 l 1
 191 730 l 1
 193 730 l 1
EndSplineSet
Substitution2: "'smcp' Lowercase to Small Capitals lookup 28 subtable" k.sc
Substitution2: "'aalt' Access All Alternates lookup 0 subtable" k.sc
EndChar

StartChar: m
Encoding: 109 109 200
Width: 843
GlyphClass: 2
Flags: MW
HStem: -0.00999451 21G 496.99 20G 506.99 20G 507 20G<607.685 682>
VStem: 436.01 7.12 441.17 299.96
LayerCount: 2
Fore
SplineSet
643 527 m 0x94
 721 527 752.001 466.99 738.001 367.99 c 2
 687.001 -0.00976562 l 1
 685.001 -0.00976562 l 1
 736.001 367.99 l 2
 750.001 465.99 720.001 524.99 643.001 524.99 c 0
 572.451 524.99 500.921 479.57 435.261 333.811 c 1
 389.001 -0.00976562 l 1
 387.001 -0.00976562 l 1
 438.001 367.99 l 2
 452.001 465.99 422.001 524.99 345.001 524.99 c 0
 274.001 524.99 203.001 475.99 137.001 328.99 c 1
 91.001 -0.00976562 l 1
 89.001 -0.00976562 l 1
 161.001 516.99 l 1
 163.001 516.99 l 1xc4
 138.001 334.99 l 1
 202.001 477.99 274.001 526.99 345.001 526.99 c 0xa8
 423.001 526.99 454.001 466.99 440.001 367.99 c 2
 436.011 339.26 l 1x98
 499.771 480.49 572.37 527 643 527 c 0x94
EndSplineSet
Substitution2: "'smcp' Lowercase to Small Capitals lookup 24 subtable" m.sc
Substitution2: "'aalt' Access All Alternates lookup 0 subtable" m.sc
EndChar

StartChar: n
Encoding: 110 110 201
Width: 580
GlyphClass: 2
Flags: MW
HStem: 0 21G<89 91 89 89 422 424 422 422> 497 20G<161 163 163 163> 507 20G<322 411.5>
VStem: 89 389.77
AnchorPoint: "Anchor-11" 254 0 basechar 0
AnchorPoint: "Anchor-10" 0 0 basechar 0
AnchorPoint: "Anchor-9" 326 517 basechar 0
AnchorPoint: "Anchor-8" 0 0 basechar 0
LayerCount: 2
Fore
SplineSet
365 527 m 0xb0
 458 527 489 467 476 368 c 2
 424 0 l 1
 422 0 l 1
 474 368 l 2
 487 466 457 525 365 525 c 0
 279 525 208 471 137 329 c 1
 91 0 l 1
 89 0 l 1
 161 517 l 1
 163 517 l 1xd0
 138 335 l 1
 207 473 279 527 365 527 c 0xb0
EndSplineSet
Substitution2: "'smcp' Lowercase to Small Capitals lookup 24 subtable" n.sc
Substitution2: "'aalt' Access All Alternates lookup 0 subtable" n.sc
EndChar
StartChar: p
Encoding: 112 112 593
Width: 567
GlyphClass: 2
Flags: MW
HStem: -189 21G<63 65 63 63> -9 21G<220 338> 497 20G<161 163 163 163> 507 20G<301.5 391>
VStem: 63 426
AnchorPoint: "Anchor-14" 0 0 basechar 0
AnchorPoint: "Anchor-13" 0 0 basechar 0
AnchorPoint: "Anchor-12" 320 517 basechar 0
AnchorPoint: "Anchor-11" 0 0 basechar 0
AnchorPoint: "Anchor-10" 224 -188 basechar 0
LayerCount: 2
Back
Fore
SplineSet
343 527 m 0xd8
 439 527 489 459 489 339 c 0
 489 207 425 -9 251 -9 c 0
 189 -9 134 6 95 26 c 1
 65 -189 l 1
 63 -189 l 1
 161 517 l 1
 163 517 l 1xe8
 150 420 l 1
 200 483 260 527 343 527 c 0xd8
343 525 m 0
 261 525 205 484 150 418 c 1
 95 28 l 1
 136 7 190 -7 251 -7 c 0
 424 -7 487 208 487 339 c 0
 487 458 438 525 343 525 c 0
EndSplineSet
Substitution2: "'smcp' Lowercase to Small Capitals lookup 28 subtable" p.sc
Substitution2: "'aalt' Access All Alternates lookup 0 subtable" p.sc
EndChar

StartChar: q
Encoding: 113 113 222
Width: 549
GlyphClass: 2
Flags: MW
HStem: -190 21G<359 359> -9 21G<178 259> 507 20G<238 362>
VStem: 74 388<127.5 487>
LayerCount: 2
Fore
SplineSet
337 527 m 0
 387 527 428 511 462 487 c 1
 362 -189 l 1
 359 -190 l 1
 405 118 l 1
 358 31 291 -9 227 -9 c 0
 129 -9 74 72 74 183 c 0
 74 326 139 527 337 527 c 0
337 525 m 0
 140 525 76 325 76 183 c 0
 76 73 130 -7 227 -7 c 0
 291 -7 358 33 406 124 c 1
 460 486 l 1
 426 510 386 525 337 525 c 0
EndSplineSet
Substitution2: "'smcp' Lowercase to Small Capitals lookup 24 subtable" q.sc
Substitution2: "'aalt' Access All Alternates lookup 0 subtable" q.sc
EndChar
StartChar: r
Encoding: 114 114 603
Width: 361
GlyphClass: 2
Flags: MW
HStem: 0 21G<89 91 89 89> 497 20G<161 163 163 163> 507 20G<286 336> 518 9
VStem: 89 284
AnchorPoint: "Anchor-14" 0 0 basechar 0
AnchorPoint: "Anchor-13" 0 0 basechar 0
AnchorPoint: "Anchor-12" 266 517 basechar 0
AnchorPoint: "Anchor-11" 0 0 basechar 0
AnchorPoint: "Anchor-10" 90 0 basechar 0
LayerCount: 2
Back
Fore
SplineSet
327 527 m 0xa8
 345 527 360 524 373 520 c 1
 372 518 l 1
 360 522 344 525 327 525 c 0x98
 246 525 190 485 140 349 c 1
 91 0 l 1
 89 0 l 1
 161 517 l 1
 163 517 l 1xc8
 141 357 l 1
 189 486 245 527 327 527 c 0xa8
EndSplineSet
Substitution2: "'smcp' Lowercase to Small Capitals lookup 28 subtable" r.sc
Substitution2: "'aalt' Access All Alternates lookup 0 subtable" r.sc
EndChar
StartChar: t
Encoding: 116 116 634
Width: 322
GlyphClass: 2
Flags: MW
HStem: -9 21G<150.5 203.5> 497 20G<66 153 153 153 155 301 301 301>
VStem: 66 235<515 517 515 517>
AnchorPoint: "Anchor-14" 145 259 basechar 0
AnchorPoint: "Anchor-13" 243 730 basechar 0
AnchorPoint: "Anchor-12" 173 649 basechar 0
AnchorPoint: "Anchor-11" 0 0 basechar 0
AnchorPoint: "Anchor-10" 192 0 basechar 0
LayerCount: 2
Back
Fore
SplineSet
155 515 m 1
 99 113 l 2
 88 37 119 -7 183 -7 c 0
 223 -7 252 5 280 21 c 1
 281 19 l 1
 254 4 224 -9 183 -9 c 0
 118 -9 86 35 97 113 c 2
 153 515 l 1
 66 515 l 1
 66 517 l 1
 153 517 l 1
 172 651 l 1
 174 651 l 1
 155 517 l 1
 301 517 l 1
 301 515 l 1
 155 515 l 1
EndSplineSet
Substitution2: "'smcp' Lowercase to Small Capitals lookup 28 subtable" t.sc
Substitution2: "'aalt' Access All Alternates lookup 0 subtable" t.sc
EndChar

StartChar: v
Encoding: 118 118 250
Width: 435
GlyphClass: 2
Flags: MW
HStem: 0 21G<186 188 186 186> 497 20G<66 68 68 68 439 441 441 441>
VStem: 66 375<517 517>
LayerCount: 2
Fore
SplineSet
188 0 m 1
 186 0 l 1
 66 517 l 1
 68 517 l 1
 187 2 l 1
 439 517 l 1
 441 517 l 1
 188 0 l 1
EndSplineSet
Substitution2: "'smcp' Lowercase to Small Capitals lookup 24 subtable" v.sc
Substitution2: "'aalt' Access All Alternates lookup 0 subtable" v.sc
EndChar

StartChar: w
Encoding: 119 119 251
Width: 672
GlyphClass: 2
Flags: MW
HStem: 0 21G<145 147 145 145 453 455 453 453> 497 20G<76 78 78 78 371 373 373 373 666 668 668 668>
VStem: 76 592<517 517>
AnchorPoint: "Anchor-11" 0 0 basechar 0
AnchorPoint: "Anchor-10" 0 0 basechar 0
AnchorPoint: "Anchor-9" 372 517 basechar 0
AnchorPoint: "Anchor-8" 0 0 basechar 0
LayerCount: 2
Fore
SplineSet
455 0 m 1
 453 0 l 1
 372 514 l 1
 147 0 l 1
 145 0 l 1
 76 517 l 1
 78 517 l 1
 146 2 l 1
 371 517 l 1
 373 517 l 1
 454 2 l 1
 666 517 l 1
 668 517 l 1
 455 0 l 1
EndSplineSet
Substitution2: "'smcp' Lowercase to Small Capitals lookup 24 subtable" w.sc
Substitution2: "'aalt' Access All Alternates lookup 0 subtable" w.sc
EndChar
StartChar: x
Encoding: 120 120 698
Width: 424
GlyphClass: 2
Flags: MW
HStem: 0 21G<-11 -9 -11 -11 361 363 361 361> 497 20G<88 90 90 90 406 408 408 408>
VStem: -11 419
AnchorPoint: "Anchor-14" 0 0 basechar 0
AnchorPoint: "Anchor-13" 0 0 basechar 0
AnchorPoint: "Anchor-12" 242 517 basechar 0
AnchorPoint: "Anchor-11" 0 0 basechar 0
AnchorPoint: "Anchor-10" 169 0 basechar 0
LayerCount: 2
Back
Fore
SplineSet
408 517 m 1
 214 278 l 1
 363 0 l 1
 361 0 l 1
 213 277 l 1
 -9 0 l 1
 -11 0 l 1
 212 278 l 1
 88 517 l 1
 90 517 l 1
 213 279 l 1
 406 517 l 1
 408 517 l 1
EndSplineSet
Substitution2: "'smcp' Lowercase to Small Capitals lookup 28 subtable" x.sc
Substitution2: "'sups' Superscript lookup 15 subtable" uni02E3
AlternateSubs2: "'aalt' Access All Alternates lookup 1 subtable" uni02E3 x.sc
EndChar

StartChar: z
Encoding: 122 122 262
Width: 410
GlyphClass: 2
Flags: MW
HStem: 0 21G<-1 323 -1 -1> 497 20G<102 406 406 406>
VStem: -1 407
AnchorPoint: "Anchor-11" 0 0 basechar 0
AnchorPoint: "Anchor-10" 0 0 basechar 0
AnchorPoint: "Anchor-9" 251 517 basechar 0
AnchorPoint: "Anchor-8" 0 0 basechar 0
LayerCount: 2
Fore
SplineSet
406 515 m 1
 2 2 l 1
 323 2 l 1
 323 0 l 1
 -1 0 l 1
 -1 2 l 1
 403 515 l 1
 102 515 l 1
 102 517 l 1
 406 517 l 1
 406 515 l 1
EndSplineSet
Substitution2: "'smcp' Lowercase to Small Capitals lookup 24 subtable" z.sc
Substitution2: "'aalt' Access All Alternates lookup 0 subtable" z.sc
EndChar
StartChar: braceleft
Encoding: 123 123 2146
Width: 326
Flags: MW
HStem: -110 918<154.5 308>
VStem: 87 221
LayerCount: 2
Back
Fore
SplineSet
308 808 m 1
 308 806 l 1
 259 806 226 780 217 713 c 2
 177 427 l 2
 170 378 138 349 90 349 c 1
 137 349 161 320 154 271 c 2
 114 -15 l 2
 105 -82 130 -108 179 -108 c 1
 179 -110 l 1
 130 -110 103 -84 112 -16 c 2
 152 271 l 2
 160 323 132 348 87 348 c 1
 88 350 l 1
 133 350 167 375 175 427 c 2
 215 714 l 2
 224 782 259 808 308 808 c 1
EndSplineSet
Substitution2: "'case' Case-Sensitive Forms lookup 29 subtable" braceleft.case
Substitution2: "'aalt' Access All Alternates lookup 0 subtable" braceleft.case
EndChar
StartChar: bar
Encoding: 124 124 2376
Width: 420
GlyphClass: 2
Flags: MW
HStem: -97 897<160 287 160 287>
VStem: 160 127
LayerCount: 2
Back
Fore
SplineSet
287 800 m 1
 162 -97 l 1
 160 -97 l 1
 285 800 l 1
 287 800 l 1
EndSplineSet
EndChar
StartChar: braceright
Encoding: 125 125 2147
Width: 325
Flags: MW
HStem: -110 918<43 196.5>
VStem: 43 221
LayerCount: 2
Back
Fore
SplineSet
43 -110 m 1
 43 -108 l 1
 92 -108 125 -82 134 -15 c 2
 174 271 l 2
 181 320 213 349 261 349 c 1
 214 349 190 378 197 427 c 2
 237 713 l 2
 246 780 221 806 172 806 c 1
 172 808 l 1
 221 808 248 782 239 714 c 2
 199 427 l 2
 191 375 219 350 264 350 c 1
 263 348 l 1
 218 348 184 323 176 271 c 2
 136 -16 l 2
 127 -84 92 -110 43 -110 c 1
EndSplineSet
Substitution2: "'case' Case-Sensitive Forms lookup 29 subtable" braceright.case
Substitution2: "'aalt' Access All Alternates lookup 0 subtable" braceright.case
EndChar
StartChar: asciitilde
Encoding: 126 126 2247
Width: 454
GlyphClass: 2
Flags: MW
HStem: 291 57
VStem: 92 288<303 336>
LayerCount: 2
Back
Fore
SplineSet
303 291 m 0
 256 291 217 346 169 346 c 0
 136 346 112 325 94 302 c 1
 92 303 l 1
 108 325 135 348 169 348 c 0
 218 348 257 293 303 293 c 0
 336 293 360 314 378 337 c 1
 380 336 l 1
 364 314 337 291 303 291 c 0
EndSplineSet
Substitution2: "'onum' Oldstyle Figures lookup 26 subtable" asciitilde.osf
Substitution2: "'tnum' Tabular Numbers lookup 25 subtable" asciitilde.tf
AlternateSubs2: "'aalt' Access All Alternates lookup 1 subtable" asciitilde.tf asciitilde.osf
EndChar
StartChar: exclamdown
Encoding: 161 161 2127
Width: 234
Flags: MW
HStem: -188 21G<54 56 54 54> 424 14<141 145>
VStem: 54 96
LayerCount: 2
Back
Fore
SplineSet
143 438 m 0
 147 438 150 435 150 431 c 0
 150 427 147 424 143 424 c 0
 139 424 136 427 136 431 c 0
 136 435 139 438 143 438 c 0
119 254 m 1
 56 -188 l 1
 54 -188 l 1
 117 254 l 1
 119 254 l 1
EndSplineSet
Substitution2: "'case' Case-Sensitive Forms lookup 29 subtable" exclamdown.case
Substitution2: "'aalt' Access All Alternates lookup 0 subtable" exclamdown.case
EndChar
StartChar: cent
Encoding: 162 162 2204
Width: 469
GlyphClass: 2
Flags: MW
HStem: -9 21G<233 233 235 243 235 235> 507 20G<313 313 315 319 319 345.5>
VStem: 76 365<130 477>
LayerCount: 2
Back
Fore
SplineSet
319 527 m 2
 372 527 410 510 441 477 c 1
 439 476 l 1
 408 509 370 525 319 525 c 0
 161 525 78 363 78 194 c 0
 78 63 144 -7 243 -7 c 0
 302 -7 344 14 383 45 c 1
 384 44 l 1
 346 13 304 -9 243 -9 c 2
 235 -9 l 1
 216 -144 l 1
 214 -144 l 1
 233 -9 l 1
 139 -4 76 66 76 194 c 0
 76 362 158 523 313 527 c 1
 333 672 l 1
 335 672 l 1
 315 527 l 1
 319 527 l 2
EndSplineSet
Substitution2: "'onum' Oldstyle Figures lookup 26 subtable" cent.osf
Substitution2: "'tnum' Tabular Numbers lookup 25 subtable" cent.tf
AlternateSubs2: "'aalt' Access All Alternates lookup 1 subtable" cent.tf cent.osf
EndChar
StartChar: currency
Encoding: 164 164 2205
Width: 560
GlyphClass: 2
Flags: MW
HStem: 135 406<92 92 92 468>
VStem: 90 380<136 136>
LayerCount: 2
Back
Fore
SplineSet
444 339 m 0
 444 287 424 243 391 213 c 1
 470 136 l 1
 468 135 l 1
 389 212 l 1
 360 185 322 170 279 170 c 0
 237 170 199 185 170 211 c 1
 92 135 l 1
 90 136 l 1
 168 212 l 1
 135 242 114 287 114 339 c 0
 114 389 133 433 164 463 c 1
 90 540 l 1
 92 541 l 1
 165 465 l 1
 194 493 234 510 279 510 c 0
 325 510 365 493 394 464 c 1
 468 541 l 1
 470 540 l 1
 396 463 l 1
 426 432 444 388 444 339 c 0
116 339 m 0
 116 240 190 172 279 172 c 0
 369 172 442 240 442 339 c 0
 442 434 375 508 279 508 c 0
 185 508 116 435 116 339 c 0
EndSplineSet
Substitution2: "'onum' Oldstyle Figures lookup 26 subtable" currency.osf
Substitution2: "'tnum' Tabular Numbers lookup 25 subtable" currency.tf
AlternateSubs2: "'aalt' Access All Alternates lookup 1 subtable" currency.tf currency.osf
EndChar
StartChar: yen
Encoding: 165 165 2214
Width: 469
GlyphClass: 2
Flags: MW
HStem: 0 21G<198 200 198 198> 184 135<114 223 95 242 225 242 244 357 225 225>
VStem: 81 419<660 660>
LayerCount: 2
Back
Fore
SplineSet
500 660 m 1
 244 319 l 1
 376 319 l 1
 376 317 l 1
 244 317 l 1
 226 186 l 1
 357 186 l 1
 357 184 l 1
 225 184 l 1
 200 0 l 1
 198 0 l 1
 223 184 l 1
 95 184 l 1
 95 186 l 1
 224 186 l 1
 242 317 l 1
 114 317 l 1
 114 319 l 1
 242 319 l 1
 81 660 l 1
 84 660 l 1
 243 321 l 1
 497 660 l 1
 500 660 l 1
EndSplineSet
Substitution2: "'onum' Oldstyle Figures lookup 26 subtable" yen.osf
Substitution2: "'tnum' Tabular Numbers lookup 25 subtable" yen.tf
AlternateSubs2: "'aalt' Access All Alternates lookup 1 subtable" yen.tf yen.osf
EndChar
StartChar: brokenbar
Encoding: 166 166 2377
Width: 421
GlyphClass: 2
Flags: MW
HStem: -97 897<161 288 161 288>
VStem: 161 127
LayerCount: 2
Back
Fore
SplineSet
288 800 m 1
 237 443 l 1
 235 443 l 1
 286 800 l 1
 288 800 l 1
212 262 m 1
 163 -97 l 1
 161 -97 l 1
 210 262 l 1
 212 262 l 1
EndSplineSet
EndChar

StartChar: section
Encoding: 167 167 1225
Width: 531
Flags: MW
HStem: -59 729.01
VStem: 76 386
LayerCount: 2
Fore
SplineSet
329 668 m 0
 227 668 177.001 602.991 177.001 543.991 c 0
 177.001 496.991 208.001 460.991 304.001 425.991 c 0
 392.001 393.991 426.001 355.991 426.001 296.991 c 0
 426.001 238.551 397.541 194.82 320.221 154.15 c 1
 357.841 129.69 371.001 101.021 371.001 65.9902 c 0
 371.001 13.9902 331.001 -59.0098 219.001 -59.0098 c 0
 161.001 -59.0098 114.001 -46.0098 76.001 -18.0098 c 1
 77.001 -16.0098 l 1
 113.001 -44.0098 161.001 -57.0098 219.001 -57.0098 c 0
 330.001 -57.0098 369.001 14.9902 369.001 65.9902 c 0
 369.001 100.88 355.501 129.01 318.001 152.99 c 1
 317.801 153.391 l 1
 299.57 165.11 275.7 175.87 245 186 c 0
 156 217 117 252 117 310 c 0
 117 361.66 139.7 402.46 233.141 455.94 c 1
 190.32 481.94 175 510.25 175 544 c 0
 175 604 227 670 329 670 c 0
 384 670 422 657 462 630 c 1
 461 628 l 1
 422 655 384 668 329 668 c 0
424.001 296.991 m 0
 424.001 354.991 390.002 391.991 303.002 423.991 c 0
 275.362 433.972 253.072 444.102 235.342 454.611 c 1
 139.901 399.812 119.001 360.871 119.001 309.991 c 0
 119.001 252.991 158.001 217.991 247.001 186.991 c 0
 276.791 177.271 300.101 166.861 318.051 155.541 c 1
 400.201 198.371 424.001 242.231 424.001 296.991 c 0
EndSplineSet
Substitution2: "'onum' Oldstyle Figures lookup 22 subtable" section.osf
Substitution2: "'tnum' Tabular Numbers lookup 21 subtable" section.tf
AlternateSubs2: "'aalt' Access All Alternates lookup 1 subtable" section.tf section.osf
EndChar
StartChar: dieresis
Encoding: 168 168 2522
Width: 221
Flags: MW
HStem: 679 12<94 98 243 247>
VStem: 90 161<683.5 686.5>
LayerCount: 2
Back
Fore
SplineSet
96 691 m 0
 100 691 102 688 102 685 c 0
 102 682 100 679 96 679 c 0
 92 679 90 682 90 685 c 0
 90 688 92 691 96 691 c 0
245 691 m 0
 249 691 251 688 251 685 c 0
 251 682 249 679 245 679 c 0
 241 679 239 682 239 685 c 0
 239 688 241 691 245 691 c 0
EndSplineSet
Substitution2: "'case' Case-Sensitive Forms lookup 29 subtable" dieresis.case
Substitution2: "'smcp' Lowercase to Small Capitals lookup 28 subtable" dieresis.sc
Substitution2: "'c2sc' Capitals to Small Capitals lookup 27 subtable" dieresis.sc
AlternateSubs2: "'aalt' Access All Alternates lookup 1 subtable" dieresis.sc dieresis.case
EndChar
StartChar: copyright
Encoding: 169 169 2381
Width: 810
GlyphClass: 2
Flags: MW
HStem: 159 114<370 426 370 482> 600 111<378.5 423>
VStem: 138 141<385.5 494.5 385.5 515>
LayerCount: 2
Back
Fore
SplineSet
405 711 m 0
 559 711 672 598 672 435 c 0
 672 275 559 159 405 159 c 0
 251 159 138 272 138 435 c 0
 138 595 251 711 405 711 c 0
405 709 m 0
 251 709 140 595 140 435 c 0
 140 272 251 161 405 161 c 0
 559 161 670 275 670 435 c 0
 670 598 559 709 405 709 c 0
406 602 m 0
 440 602 463 590 480 576 c 1
 479 574 l 1
 462 588 440 600 406 600 c 0
 351 600 279 552 279 437 c 0
 279 334 334 273 406 273 c 0
 446 273 471 287 490 303 c 1
 491 301 l 1
 473 285 446 271 406 271 c 0
 334 271 277 334 277 437 c 0
 277 554 351 602 406 602 c 0
EndSplineSet
EndChar
StartChar: ordfeminine
Encoding: 170 170 1056
Width: 500
GlyphClass: 2
Flags: MW
HStem: 0 21G<57 57 57 365> 0 280<57 256.5 187 256.5 187 365> 278 235<186.5 392 293 403> 511 169<285.5 293 293 340 285.5 392>
VStem: 367.32 35.68 395.5 7.5
LayerCount: 2
Back
Fore
SplineSet
304 680 m 0x94
 376 680 403 648 403 593 c 0
 403 584 402 574 401 564 c 2
 374 368 l 2x54
 368 326 361 292 404 280 c 1
 403 278 l 1x58
 359 290 366 328 371 363 c 1xa8
 335 308 289 278 221 278 c 0
 152 278 115 317 115 373 c 0
 115 462 186 513 293 513 c 2
 392 513 l 1
 399 564 l 2
 400 574 401 583 401 593 c 0xa4
 401 645 377 678 304 678 c 0
 268 678 229 670 183 653 c 1
 183 655 l 1
 228 672 267 680 304 680 c 0x94
392 511 m 1
 293 511 l 2
 187 511 117 461 117 373 c 0
 117 318 153 280 221 280 c 0
 292 280 335 312 372 368 c 1x54
 392 511 l 1
57 0 m 1
 58 2 l 1
 366 2 l 1
 365 0 l 1
 57 0 l 1
EndSplineSet
EndChar
StartChar: guillemotleft
Encoding: 171 171 2177
Width: 519
Flags: MW
HStem: 83 411<220 276 276 393>
VStem: 104 347<287 493 289 493>
LayerCount: 2
Back
Fore
SplineSet
276 494 m 1
 278 493 l 1
 106 288 l 1
 222 84 l 1
 220 83 l 1
 104 287 l 1
 104 289 l 1
 276 494 l 1
449 494 m 1
 451 493 l 1
 279 288 l 1
 395 84 l 1
 393 83 l 1
 277 287 l 1
 277 289 l 1
 449 494 l 1
EndSplineSet
Substitution2: "'case' Case-Sensitive Forms lookup 29 subtable" guillemotleft.case
Substitution2: "'aalt' Access All Alternates lookup 0 subtable" guillemotleft.case
EndChar
StartChar: logicalnot
Encoding: 172 172 2263
Width: 488
GlyphClass: 2
Flags: MW
HStem: 215 107<395 397 395 395>
VStem: 94 319<320 322>
LayerCount: 2
Back
Fore
SplineSet
413 322 m 1
 397 215 l 1
 395 215 l 1
 410 320 l 1
 94 320 l 1
 95 322 l 1
 413 322 l 1
EndSplineSet
Substitution2: "'onum' Oldstyle Figures lookup 26 subtable" logicalnot.osf
Substitution2: "'tnum' Tabular Numbers lookup 25 subtable" logicalnot.tf
AlternateSubs2: "'aalt' Access All Alternates lookup 1 subtable" logicalnot.tf logicalnot.osf
EndChar

StartChar: softhyphen
Encoding: 173 173 1028
Width: 400
Flags: MW
HStem: 311 2<93 323 93 323>
VStem: 93 230<311 313 311 313>
LayerCount: 2
Fore
SplineSet
93 313 m 1
 323 313 l 1
 323 311 l 1
 93 311 l 1
 93 313 l 1
EndSplineSet
Substitution2: "'case' Case-Sensitive Forms lookup 25 subtable" softhyphen.case
Substitution2: "'aalt' Access All Alternates lookup 0 subtable" softhyphen.case
EndChar
StartChar: uni00AD
Encoding: 173 173 2169
Width: 400
Flags: MW
HStem: 311 2<93 323 93 323>
VStem: 93 230<311 313 311 313>
LayerCount: 2
Back
Fore
SplineSet
93 311 m 1
 93 313 l 1
 323 313 l 1
 323 311 l 1
 93 311 l 1
EndSplineSet
Substitution2: "'case' Case-Sensitive Forms lookup 29 subtable" uni00AD.case
Substitution2: "'aalt' Access All Alternates lookup 0 subtable" uni00AD.case
EndChar
StartChar: macron
Encoding: 175 175 2526
Width: 250
Flags: MW
HStem: 671 20G<90 280 280 280>
VStem: 90 190<689 691 689 691>
LayerCount: 2
Back
Fore
SplineSet
280 689 m 1
 90 689 l 1
 90 691 l 1
 280 691 l 1
 280 689 l 1
EndSplineSet
Substitution2: "'case' Case-Sensitive Forms lookup 29 subtable" macron.case
Substitution2: "'smcp' Lowercase to Small Capitals lookup 28 subtable" macron.sc
Substitution2: "'c2sc' Capitals to Small Capitals lookup 27 subtable" macron.sc
AlternateSubs2: "'aalt' Access All Alternates lookup 1 subtable" macron.sc macron.case
EndChar

StartChar: degree
Encoding: 176 176 1227
Width: 521
Flags: MW
HStem: 670 20G<243 320>
VStem: 134.72 254.11
LayerCount: 2
Fore
SplineSet
243 421 m 0
 170 421 126 476 136 556 c 1
 147 632 206 690 280 690 c 0
 360 690 398 632 387 555 c 1
 377 476 323 421 243 421 c 0
243 423 m 0
 321 423 375 476 385 555 c 1
 396 632 358 688 280 688 c 0
 208 688 149 632 138 556 c 1
 128 476 172 423 243 423 c 0
EndSplineSet
Substitution2: "'onum' Oldstyle Figures lookup 22 subtable" degree.osf
Substitution2: "'tnum' Tabular Numbers lookup 21 subtable" degree.tf
AlternateSubs2: "'aalt' Access All Alternates lookup 1 subtable" degree.tf degree.osf
EndChar

StartChar: plusminus
Encoding: 177 177 1117
Width: 480
Flags: MW
HStem: 0 332<98 251 253 357 49 251>
VStem: 49 357<0 332>
LayerCount: 2
Fore
SplineSet
253 332 m 1
 406 332 l 1
 405 330 l 1
 252 330 l 1
 230 174 l 1
 228 174 l 1
 250 330 l 1
 97 330 l 1
 98 332 l 1
 251 332 l 1
 272 488 l 1
 274 488 l 1
 253 332 l 1
50 2 m 1
 358 2 l 1
 357 0 l 1
 49 0 l 1
 50 2 l 1
EndSplineSet
Substitution2: "'onum' Oldstyle Figures lookup 22 subtable" plusminus.osf
Substitution2: "'tnum' Tabular Numbers lookup 21 subtable" plusminus.tf
AlternateSubs2: "'aalt' Access All Alternates lookup 1 subtable" plusminus.tf plusminus.osf
EndChar

StartChar: twosuperior
Encoding: 178 178 972
Width: 400
Flags: MW
HStem: 660 20G<112 112> 714 20G<206 263.5>
VStem: 60 258.3
LayerCount: 2
Fore
SplineSet
230 734 m 0
 297 734 325 689 317 633 c 0
 305 548 256 504 63 320 c 1
 284 320 l 1
 284 318 l 1
 60 318 l 1
 60 320 l 1
 255 506 303 549 315 633 c 0
 323 688 296 732 230 732 c 0
 182 732 148 713 114 679 c 1
 112 680 l 1
 146 714 182 734 230 734 c 0
EndSplineSet
EndChar

StartChar: threesuperior
Encoding: 179 179 973
Width: 400
Flags: MW
HStem: 312 226<179 203 203 204.5> 536 198<179 264.5 179 264.5> 714 20G<211 264.5>
VStem: 62 260.13
LayerCount: 2
Fore
SplineSet
232 734 m 0xb0
 297 734 329 693 321 636 c 0
 312 571 262 541 214 537 c 1
 272 534 315 502 305 429 c 0
 296 360 240 312 169 312 c 0
 119 312 88 327 62 363 c 1
 64 364 l 1
 90 328 120 314 169 314 c 0xb0
 246 314 295 369 303 429 c 0
 312 499 274 536 201 536 c 2x50
 179 536 l 1
 179 538 l 1
 203 538 l 2
 255 538 310 569 319 636 c 0
 327 692 296 732 232 732 c 0
 192 732 156 719 121 688 c 1
 120 690 l 1
 156 721 190 734 232 734 c 0xb0
EndSplineSet
EndChar

StartChar: acute
Encoding: 180 180 1252
Width: 228
Flags: MW
HStem: 662 84
VStem: 87 179<662 744 664 744>
LayerCount: 2
Fore
SplineSet
266 744 m 1
 87 662 l 1
 87 664 l 1
 265 746 l 1
 266 744 l 1
EndSplineSet
Substitution2: "'case' Case-Sensitive Forms lookup 25 subtable" acute.case
Substitution2: "'smcp' Lowercase to Small Capitals lookup 24 subtable" acute.sc
Substitution2: "'c2sc' Capitals to Small Capitals lookup 23 subtable" acute.sc
Substitution2: "'locl' Localized Forms in Latin lookup 7 subtable" acute.loclPLK
AlternateSubs2: "'aalt' Access All Alternates lookup 1 subtable" acute.loclPLK acute.sc acute.case
EndChar
StartChar: uni00B5
Encoding: 181 181 2264
Width: 581
GlyphClass: 2
Flags: MW
HStem: -190 21G<62 64 62 62> -9 21G<182 263.5> 0 21G<438 440 438 438> 497 20G<161 163 163 163 483 485 485 485>
VStem: 428.71 11.29
LayerCount: 2
Back
Fore
SplineSet
436 160 m 2xb8
 426 97 431 47 440 0 c 1
 438 0 l 1xb8
 429 45 425 93 432 148 c 1
 384 57 309 -9 218 -9 c 0xd8
 146 -9 106 27 105 98 c 1
 95 31 90 -12 83 -57 c 2
 64 -190 l 1
 62 -190 l 1
 161 517 l 1
 163 517 l 1
 110 134 l 2
 95 30 147 -7 218 -7 c 0
 309 -7 383 60 432 152 c 1
 483 517 l 1
 485 517 l 1
 436 160 l 2xb8
EndSplineSet
EndChar

StartChar: paragraph
Encoding: 182 182 1222
Width: 683
Flags: MW
HStem: -190 21G<278.001 280.001 278.001 278.001 428.001 430.001 428.001 428.001> 661 20G<552 552>
VStem: 160.89 391.11
LayerCount: 2
Fore
SplineSet
552 681 m 1
 430.001 -190 l 1
 428.001 -190 l 1
 550.001 679 l 1
 402.001 678 l 1
 280.001 -190 l 1
 278.001 -190 l 1
 348.561 312 l 1
 193.73 312.54 150.04 399.3 163 496 c 0
 179 613 276 680 401 680 c 2
 552 681 l 1
EndSplineSet
EndChar
StartChar: cedilla
Encoding: 184 184 2520
Width: 189
Flags: MW
HStem: -202 119<21 21 21 53.5> -85 78<18 36> -7 21G<34 36 36 36>
VStem: -33 137<-186 -119>
LayerCount: 2
Back
Fore
SplineSet
36 -7 m 1xb0
 21 -83 l 1
 74 -84 104 -99 104 -139 c 0
 104 -170 80 -202 27 -202 c 0
 -2 -202 -18 -196 -33 -186 c 1
 -32 -184 l 1
 -17 -195 0 -200 27 -200 c 0xb0
 82 -200 102 -165 102 -139 c 0
 102 -100 74 -86 18 -85 c 1x50
 34 -7 l 1
 36 -7 l 1xb0
EndSplineSet
Substitution2: "'case' Case-Sensitive Forms lookup 29 subtable" cedilla.case
Substitution2: "'smcp' Lowercase to Small Capitals lookup 28 subtable" cedilla.sc
Substitution2: "'c2sc' Capitals to Small Capitals lookup 27 subtable" cedilla.sc
AlternateSubs2: "'aalt' Access All Alternates lookup 1 subtable" cedilla.sc cedilla.case
EndChar

StartChar: onesuperior
Encoding: 185 185 971
Width: 400
Flags: MW
HStem: 707 20G<287 289 289 289>
VStem: 158 131<655 727>
LayerCount: 2
Fore
SplineSet
232 318 m 1
 230 318 l 1
 287 725 l 1
 159 653 l 1
 158 655 l 1
 287 727 l 1
 289 727 l 1
 232 318 l 1
EndSplineSet
EndChar
StartChar: uni00B9
Encoding: 185 185 2109
Width: 400
Flags: MW
HStem: 707 20G<287 289 289 289>
VStem: 158 131<655 727>
LayerCount: 2
Back
Fore
SplineSet
289 727 m 1
 232 318 l 1
 230 318 l 1
 287 725 l 1
 159 653 l 1
 158 655 l 1
 287 727 l 1
 289 727 l 1
EndSplineSet
EndChar
StartChar: ordmasculine
Encoding: 186 186 1057
Width: 500
GlyphClass: 2
Flags: MW
HStem: 0 280<59 325.5 209.5 325.5 209.5 367> 660 20G<238 352.5>
VStem: 59 386
LayerCount: 2
Back
Fore
SplineSet
310 680 m 0
 395 680 445 625 445 529 c 0
 445 434 400 278 252 278 c 0
 166 278 117 334 117 431 c 0
 117 532 166 680 310 680 c 0
310 678 m 0
 167 678 119 531 119 431 c 0
 119 335 167 280 252 280 c 0
 399 280 443 435 443 529 c 0
 443 624 394 678 310 678 c 0
59 0 m 1
 60 2 l 1
 368 2 l 1
 367 0 l 1
 59 0 l 1
EndSplineSet
EndChar
StartChar: guillemotright
Encoding: 187 187 2178
Width: 511
Flags: MW
HStem: 83 411<77 135 135 244>
VStem: 75 341<84 289>
LayerCount: 2
Back
Fore
SplineSet
135 494 m 1
 249 289 l 1
 249 287 l 1
 77 83 l 1
 75 84 l 1
 247 288 l 1
 133 493 l 1
 135 494 l 1
302 494 m 1
 416 289 l 1
 416 287 l 1
 244 83 l 1
 242 84 l 1
 414 288 l 1
 300 493 l 1
 302 494 l 1
EndSplineSet
Substitution2: "'case' Case-Sensitive Forms lookup 29 subtable" guillemotright.case
Substitution2: "'aalt' Access All Alternates lookup 0 subtable" guillemotright.case
EndChar

StartChar: onequarter
Encoding: 188 188 928
Width: 872
Flags: MW
HStem: 0 21G<702 704 702 702> 0 123<702 704 702 702> 660 20G<250 252 252 252> 713 20G<704 706 706 706>
VStem: 121 661<121 608>
LayerCount: 2
Fore
SplineSet
706 733 m 1xb8
 190 -67 l 1
 188 -67 l 1
 704 733 l 1
 706 733 l 1xb8
250 678 m 1
 122 606 l 1
 121 608 l 1
 250 680 l 1
 252 680 l 1
 195 271 l 1
 193 271 l 1
 250 678 l 1
782 121 m 1x78
 720.82 121 l 1
 704 0 l 1
 702 0 l 1
 718.86 121 l 1
 523 121 l 1
 523 124 l 1
 701 416 l 1
 703 415 l 1
 525 123 l 1
 719.14 123 l 1
 738 259 l 1
 740 259 l 1
 721.09 123 l 1
 782 123 l 1
 782 121 l 1x78
EndSplineSet
EndChar

StartChar: onehalf
Encoding: 189 189 925
Width: 872
Flags: MW
HStem: 0 21G<524 748 524 524> 660 20G<250 252 252 252> 713 20G<704 706 706 706>
VStem: 121 661.3
LayerCount: 2
Fore
SplineSet
706 733 m 1
 190 -67 l 1
 188 -67 l 1
 704 733 l 1
 706 733 l 1
195 271 m 1
 193 271 l 1
 250 678 l 1
 122 606 l 1
 121 608 l 1
 250 680 l 1
 252 680 l 1
 195 271 l 1
694 416 m 0
 761 416 789 371 781 315 c 0
 769 230 720 186 527 2 c 1
 748 2 l 1
 748 0 l 1
 524 0 l 1
 524 2 l 1
 719 188 767 231 779 315 c 0
 787 370 760 414 694 414 c 0
 646 414 612 395 578 361 c 1
 576 362 l 1
 610 396 646 416 694 416 c 0
EndSplineSet
EndChar

StartChar: threequarters
Encoding: 190 190 929
Width: 872
Flags: MW
HStem: 0 21G<702 704 702 702> 0 123<702 704 702 702> 265 226<172 196 196 197.5> 489 198<172 257.5 172 257.5> 667 20G<204 257.5> 713 20G<704 706 706 706>
VStem: 55 727<121 316>
LayerCount: 2
Fore
SplineSet
706 733 m 1xae
 190 -67 l 1
 188 -67 l 1
 704 733 l 1
 706 733 l 1xae
298 382 m 0
 289 313 233 265 162 265 c 0
 112 265 81 280 55 316 c 1
 57 317 l 1
 83 281 113 267 162 267 c 0xae
 239 267 288 322 296 382 c 0
 305 452 267 489 194 489 c 2x96
 172 489 l 1
 172 491 l 1
 196 491 l 2
 248 491 303 522 312 589 c 0
 320 645 289 685 225 685 c 0
 185 685 149 672 114 641 c 1
 113 643 l 1
 149 674 183 687 225 687 c 0
 290 687 322 646 314 589 c 0
 305 524 255 494 207 490 c 1
 265 487 308 455 298 382 c 0
782 121 m 1x6e
 720.82 121 l 1
 704 0 l 1
 702 0 l 1
 718.86 121 l 1
 523 121 l 1
 523 124 l 1
 701 416 l 1
 703 415 l 1
 525 123 l 1
 719.14 123 l 1
 738 259 l 1
 740 259 l 1
 721.09 123 l 1
 782 123 l 1
 782 121 l 1x6e
EndSplineSet
EndChar
StartChar: questiondown
Encoding: 191 191 2131
Width: 448
Flags: MW
HStem: -194 21G<107.5 182> 487 14<252 256>
VStem: 27 293<-116 6>
LayerCount: 2
Back
Fore
SplineSet
254 487 m 0
 250 487 247 490 247 494 c 0
 247 498 250 501 254 501 c 0
 258 501 261 498 261 494 c 0
 261 490 258 487 254 487 c 0
147 -194 m 0
 68 -194 27 -140 27 -85 c 0
 27 97 253 80 251 229 c 0
 251 248 247 268 241 287 c 1
 243 287 l 1
 249 268 253 248 253 229 c 0
 255 79 29 96 29 -85 c 0
 29 -140 69 -192 147 -192 c 0
 216 -192 263 -167 318 -115 c 1
 320 -116 l 1
 265 -168 217 -194 147 -194 c 0
EndSplineSet
Substitution2: "'case' Case-Sensitive Forms lookup 29 subtable" questiondown.case
Substitution2: "'aalt' Access All Alternates lookup 0 subtable" questiondown.case
EndChar
StartChar: Aacute
Encoding: 193 193 3
Width: 556
GlyphClass: 2
Flags: MW
HStem: 0 21G<-1 1 -1 -1 483 485 483 483> 660 20G<336 337 337 337>
VStem: -1 486<0 0>
AnchorPoint: "Anchor-14" 0 0 basechar 0
AnchorPoint: "Anchor-13" 0 0 basechar 0
AnchorPoint: "Anchor-12" 357 842 basechar 0
AnchorPoint: "Anchor-11" 495 0 basechar 0
AnchorPoint: "Anchor-10" 242 0 basechar 0
LayerCount: 2
Back
Fore
SplineSet
443 840 m 1
 268 771 l 1
 267 773 l 1
 442 842 l 1
 443 840 l 1
483 0 m 1
 437 213 l 1
 107 213 l 1
 1 0 l 1
 -1 0 l 1
 336 680 l 1
 337 680 l 1
 485 0 l 1
 483 0 l 1
108 215 m 1
 436 215 l 1
 336 676 l 1
 108 215 l 1
EndSplineSet
Substitution2: "'c2sc' Capitals to Small Capitals lookup 27 subtable" aacute.sc
Substitution2: "'aalt' Access All Alternates lookup 0 subtable" aacute.sc
Position2: "'cpsp' Capital Spacing lookup 0 subtable" dx=5 dy=0 dh=10 dv=0
EndChar

StartChar: Acircumflex
Encoding: 194 194 4
Width: 556
GlyphClass: 2
Flags: MW
HStem: 0 21G<-1 1 -1 -1 483 483 483 485> 660 20G<336 337 337 337>
VStem: -1 486<0 0>
AnchorPoint: "Anchor-11" 0 0 basechar 0
AnchorPoint: "Anchor-10" 198 517 basechar 0
AnchorPoint: "Anchor-9" 337 680 basechar 0
AnchorPoint: "Anchor-8" 495 0 basechar 0
LayerCount: 2
Fore
SplineSet
248 770 m 1
 246 771 l 1
 364 850 l 1
 366 850 l 1
 464 771 l 1
 462 770 l 1
 365 848 l 1
 248 770 l 1
436.68 213 m 1
 106.55 213 l 1
 1 0 l 1
 -1 0 l 1
 336 680 l 1
 337 680 l 1
 485 0 l 1
 483 0 l 1
 436.68 213 l 1
436.24 215 m 1
 336 676 l 1
 107.54 215 l 1
 436.24 215 l 1
EndSplineSet
Substitution2: "'c2sc' Capitals to Small Capitals lookup 23 subtable" acircumflex.sc
Substitution2: "'aalt' Access All Alternates lookup 0 subtable" acircumflex.sc
Position2: "'cpsp' Capital Spacing lookup 0 subtable" dx=5 dy=0 dh=10 dv=0
EndChar

StartChar: Atilde
Encoding: 195 195 10
Width: 556
GlyphClass: 2
Flags: MW
HStem: 0 21G<-1 1 -1 -1 483 483 483 485> 660 20G<336 337 337 337> 812 46
VStem: -1 486<0 0>
AnchorPoint: "Anchor-11" 0 0 basechar 0
AnchorPoint: "Anchor-10" 198 517 basechar 0
AnchorPoint: "Anchor-9" 337 680 basechar 0
AnchorPoint: "Anchor-8" 495 0 basechar 0
LayerCount: 2
Fore
SplineSet
304 856 m 0
 280 856 262 845 237 821 c 1
 235 822 l 1
 262 847 279 858 304 858 c 0
 342 858 370 814 413 814 c 0
 439 814 456 825 480 851 c 1
 482 850 l 1
 457 823 440 812 413 812 c 0
 369 812 341 856 304 856 c 0
436.68 213 m 1
 106.55 213 l 1
 1 0 l 1
 -1 0 l 1
 336 680 l 1
 337 680 l 1
 485 0 l 1
 483 0 l 1
 436.68 213 l 1
436.24 215 m 1
 336 676 l 1
 107.54 215 l 1
 436.24 215 l 1
EndSplineSet
Substitution2: "'c2sc' Capitals to Small Capitals lookup 23 subtable" atilde.sc
Substitution2: "'aalt' Access All Alternates lookup 0 subtable" atilde.sc
Position2: "'cpsp' Capital Spacing lookup 0 subtable" dx=5 dy=0 dh=10 dv=0
EndChar

StartChar: Adieresis
Encoding: 196 196 5
Width: 556
GlyphClass: 2
Flags: MW
HStem: 0 21G<-1 1 -1 -1 483 483 483 485> 660 20G<336 337 337 337> 805 12<279 283 428 432>
VStem: -1 486<0 0>
AnchorPoint: "Anchor-11" 0 0 basechar 0
AnchorPoint: "Anchor-10" 198 517 basechar 0
AnchorPoint: "Anchor-9" 347 733 basechar 0
AnchorPoint: "Anchor-8" 495 0 basechar 0
LayerCount: 2
Fore
SplineSet
281 805 m 0
 277 805 275 808 275 811 c 0
 275 814 277 817 281 817 c 0
 285 817 287 814 287 811 c 0
 287 808 285 805 281 805 c 0
430 805 m 0
 426 805 424 808 424 811 c 0
 424 814 426 817 430 817 c 0
 434 817 436 814 436 811 c 0
 436 808 434 805 430 805 c 0
436.68 213 m 1
 106.55 213 l 1
 1 0 l 1
 -1 0 l 1
 336 680 l 1
 337 680 l 1
 485 0 l 1
 483 0 l 1
 436.68 213 l 1
436.24 215 m 1
 336 676 l 1
 107.54 215 l 1
 436.24 215 l 1
EndSplineSet
Substitution2: "'c2sc' Capitals to Small Capitals lookup 23 subtable" adieresis.sc
Substitution2: "'aalt' Access All Alternates lookup 0 subtable" adieresis.sc
Position2: "'cpsp' Capital Spacing lookup 0 subtable" dx=5 dy=0 dh=10 dv=0
EndChar

StartChar: Aring
Encoding: 197 197 9
Width: 556
GlyphClass: 2
Flags: MW
HStem: 0 21G<-1 1 -1 -1 483 483 483 485> 660 20G<336 337 337 337> 781 127<349.5 371.5>
VStem: 297 126<844 844>
AnchorPoint: "Anchor-11" 0 0 basechar 0
AnchorPoint: "Anchor-10" 198 517 basechar 0
AnchorPoint: "Anchor-9" 337 680 basechar 0
AnchorPoint: "Anchor-8" 495 0 basechar 0
LayerCount: 2
Fore
SplineSet
352 781 m 0
 311 781 292 807 297 844 c 0
 302 882 330 908 369 908 c 0
 410 908 428 882 423 845 c 0
 418 807 391 781 352 781 c 0
299 844 m 0
 294 807 313 783 352 783 c 0
 390 783 417 809 421 845 c 0
 426 882 409 906 369 906 c 0
 331 906 304 881 299 844 c 0
436.68 213 m 1
 106.55 213 l 1
 1 0 l 1
 -1 0 l 1
 336 680 l 1
 337 680 l 1
 485 0 l 1
 483 0 l 1
 436.68 213 l 1
436.24 215 m 1
 336 676 l 1
 107.54 215 l 1
 436.24 215 l 1
EndSplineSet
Substitution2: "'c2sc' Capitals to Small Capitals lookup 23 subtable" aring.sc
Substitution2: "'aalt' Access All Alternates lookup 0 subtable" aring.sc
Position2: "'cpsp' Capital Spacing lookup 0 subtable" dx=5 dy=0 dh=10 dv=0
EndChar

StartChar: AE
Encoding: 198 198 11
Width: 750
GlyphClass: 2
Flags: MW
HStem: 0 207<-15 401.65 -15 401.65 95.9902 663.99 95.9902 426.99> 205 157<384.79 401.9> 360 320<385.04 649.99 385.04 385.04>
VStem: -15 719<0 680>
AnchorPoint: "Anchor-11" 0 0 basechar 0
AnchorPoint: "Anchor-10" 0 0 basechar 0
AnchorPoint: "Anchor-9" 516 680 basechar 0
AnchorPoint: "Anchor-8" 0 0 basechar 0
LayerCount: 2
Fore
SplineSet
346 678 m 1xb0
 384.79 362 l 1x50
 649.99 362 l 1
 649.99 360 l 1
 385.04 360 l 1
 428.99 2 l 1
 663.99 2 l 1
 663.99 0 l 1
 426.99 0 l 1xb0
 401.9 205 l 1
 94.9404 205 l 1x50
 -13 0 l 1
 -15 0 l 1
 343 680 l 1
 704 680 l 1
 704 678 l 1
 346 678 l 1xb0
343.99 678 m 1
 95.9902 207 l 1
 401.65 207 l 1xb0
 343.99 678 l 1
EndSplineSet
Substitution2: "'c2sc' Capitals to Small Capitals lookup 23 subtable" ae.sc
Substitution2: "'aalt' Access All Alternates lookup 0 subtable" ae.sc
Position2: "'cpsp' Capital Spacing lookup 0 subtable" dx=5 dy=0 dh=10 dv=0
EndChar
StartChar: Ccedilla
Encoding: 199 199 45
Width: 530
GlyphClass: 2
Flags: MW
HStem: -202 119<290 290 290 322.5> -85 78<287 287> -9 21G<303 303 305 346> 670 20G<284.5 440>
VStem: 91 456<168.5 633>
AnchorPoint: "Anchor-14" 0 0 basechar 0
AnchorPoint: "Anchor-13" 0 0 basechar 0
AnchorPoint: "Anchor-12" 403 680 basechar 0
AnchorPoint: "Anchor-11" 0 0 basechar 0
AnchorPoint: "Anchor-10" 307 -202 basechar 0
LayerCount: 2
Back
Fore
SplineSet
403 688 m 0xb8
 166 688 93 424 93 253 c 0
 93 84 175 -7 305 -7 c 0x58
 386 -7 438 25 474 52 c 1
 475 50 l 1
 439 23 387 -9 305 -9 c 1
 290 -83 l 1
 343 -84 373 -99 373 -139 c 0
 373 -170 349 -202 296 -202 c 0
 267 -202 251 -196 236 -186 c 1
 237 -184 l 1
 252 -195 269 -200 296 -200 c 0xb8
 351 -200 371 -165 371 -139 c 0
 371 -100 343 -86 287 -85 c 1x58
 303 -9 l 1
 172 -8 91 84 91 253 c 0
 91 429 166 690 403 690 c 0
 477 690 517 664 547 633 c 1
 546 631 l 1
 514 663 478 688 403 688 c 0xb8
EndSplineSet
Substitution2: "'c2sc' Capitals to Small Capitals lookup 27 subtable" ccedilla.sc
Substitution2: "'aalt' Access All Alternates lookup 0 subtable" ccedilla.sc
Position2: "'cpsp' Capital Spacing lookup 0 subtable" dx=5 dy=0 dh=10 dv=0
EndChar

StartChar: Eacute
Encoding: 201 201 25
Width: 495
GlyphClass: 2
Flags: MW
HStem: 0 21G<94 409 94 94> 360 320<189 407 147 494>
VStem: 94 400
AnchorPoint: "Anchor-11" 248 0 basechar 0
AnchorPoint: "Anchor-10" 88 517 basechar 0
AnchorPoint: "Anchor-9" 343 680 basechar 0
AnchorPoint: "Anchor-8" 389 0 basechar 0
LayerCount: 2
Fore
SplineSet
449 840 m 1
 274 771 l 1
 273 773 l 1
 448 842 l 1
 449 840 l 1
494 678 m 1
 191 678 l 1
 147 362 l 1
 407 362 l 1
 407 360 l 1
 147 360 l 1
 96 2 l 1
 409 2 l 1
 409 0 l 1
 94 0 l 1
 189 680 l 1
 494 680 l 1
 494 678 l 1
EndSplineSet
Substitution2: "'c2sc' Capitals to Small Capitals lookup 23 subtable" eacute.sc
Substitution2: "'aalt' Access All Alternates lookup 0 subtable" eacute.sc
Position2: "'cpsp' Capital Spacing lookup 0 subtable" dx=5 dy=0 dh=10 dv=0
EndChar

StartChar: Edieresis
Encoding: 203 203 29
Width: 495
GlyphClass: 2
Flags: MW
HStem: 0 21G<94 409 94 94> 360 320<189 407 147 494> 805 12<285 289 434 438>
VStem: 94 400
AnchorPoint: "Anchor-11" 248 0 basechar 0
AnchorPoint: "Anchor-10" 88 517 basechar 0
AnchorPoint: "Anchor-9" 353 733 basechar 0
AnchorPoint: "Anchor-8" 389 0 basechar 0
LayerCount: 2
Fore
SplineSet
287 817 m 0
 291 817 293 814 293 811 c 0
 293 808 291 805 287 805 c 0
 283 805 281 808 281 811 c 0
 281 814 283 817 287 817 c 0
436 817 m 0
 440 817 442 814 442 811 c 0
 442 808 440 805 436 805 c 0
 432 805 430 808 430 811 c 0
 430 814 432 817 436 817 c 0
494 678 m 1
 191 678 l 1
 147 362 l 1
 407 362 l 1
 407 360 l 1
 147 360 l 1
 96 2 l 1
 409 2 l 1
 409 0 l 1
 94 0 l 1
 189 680 l 1
 494 680 l 1
 494 678 l 1
EndSplineSet
Substitution2: "'c2sc' Capitals to Small Capitals lookup 23 subtable" edieresis.sc
Substitution2: "'aalt' Access All Alternates lookup 0 subtable" edieresis.sc
Position2: "'cpsp' Capital Spacing lookup 0 subtable" dx=5 dy=0 dh=10 dv=0
EndChar
StartChar: Igrave
Encoding: 204 204 126
Width: 262
GlyphClass: 2
Flags: MW
HStem: 0 21G<94 96 94 94> 660 20G<189 191 191 191>
VStem: 94 193
AnchorPoint: "Anchor-14" 0 0 basechar 0
AnchorPoint: "Anchor-13" 0 0 basechar 0
AnchorPoint: "Anchor-12" 210 842 basechar 0
AnchorPoint: "Anchor-11" 105 0 basechar 0
AnchorPoint: "Anchor-10" 95 0 basechar 0
LayerCount: 2
Back
Fore
SplineSet
130 842 m 1
 287 773 l 1
 286 771 l 1
 129 840 l 1
 130 842 l 1
191 680 m 1
 96 0 l 1
 94 0 l 1
 189 680 l 1
 191 680 l 1
EndSplineSet
Substitution2: "'c2sc' Capitals to Small Capitals lookup 27 subtable" igrave.sc
Substitution2: "'aalt' Access All Alternates lookup 0 subtable" igrave.sc
Position2: "'cpsp' Capital Spacing lookup 0 subtable" dx=5 dy=0 dh=10 dv=0
EndChar
StartChar: Iacute
Encoding: 205 205 117
Width: 262
GlyphClass: 2
Flags: MW
HStem: 0 21G<94 96 94 94> 660 20G<189 191 191 191>
VStem: 94 202
AnchorPoint: "Anchor-14" 0 0 basechar 0
AnchorPoint: "Anchor-13" 0 0 basechar 0
AnchorPoint: "Anchor-12" 210 842 basechar 0
AnchorPoint: "Anchor-11" 105 0 basechar 0
AnchorPoint: "Anchor-10" 95 0 basechar 0
LayerCount: 2
Back
Fore
SplineSet
295 842 m 1
 296 840 l 1
 121 771 l 1
 120 773 l 1
 295 842 l 1
191 680 m 1
 96 0 l 1
 94 0 l 1
 189 680 l 1
 191 680 l 1
EndSplineSet
Substitution2: "'c2sc' Capitals to Small Capitals lookup 27 subtable" iacute.sc
Substitution2: "'aalt' Access All Alternates lookup 0 subtable" iacute.sc
Position2: "'cpsp' Capital Spacing lookup 0 subtable" dx=5 dy=0 dh=10 dv=0
EndChar
StartChar: Icircumflex
Encoding: 206 206 120
Width: 262
GlyphClass: 2
Flags: MW
HStem: 0 21G<94 96 94 94> 660 20G<189 191 191 191>
VStem: 92 218<771 771>
AnchorPoint: "Anchor-14" 0 0 basechar 0
AnchorPoint: "Anchor-13" 267 700 basechar 0
AnchorPoint: "Anchor-12" 211 850 basechar 0
AnchorPoint: "Anchor-11" 105 0 basechar 0
AnchorPoint: "Anchor-10" 95 0 basechar 0
LayerCount: 2
Back
Fore
SplineSet
308 770 m 1
 211 848 l 1
 94 770 l 1
 92 771 l 1
 210 850 l 1
 212 850 l 1
 310 771 l 1
 308 770 l 1
191 680 m 1
 96 0 l 1
 94 0 l 1
 189 680 l 1
 191 680 l 1
EndSplineSet
Substitution2: "'c2sc' Capitals to Small Capitals lookup 27 subtable" icircumflex.sc
Substitution2: "'aalt' Access All Alternates lookup 0 subtable" icircumflex.sc
Position2: "'cpsp' Capital Spacing lookup 0 subtable" dx=5 dy=0 dh=10 dv=0
EndChar
StartChar: Eth
Encoding: 208 208 54
Width: 605
GlyphClass: 2
Flags: MW
HStem: 0 21G<86 197 86 86> 352 328<43 285 43 285 137 285 181 285 285 335> 660 20G<181 285 285 349>
VStem: 43 496<352 354 354 354>
AnchorPoint: "Anchor-14" 313 340 basechar 0
AnchorPoint: "Anchor-13" 0 0 basechar 0
AnchorPoint: "Anchor-12" 340 680 basechar 0
AnchorPoint: "Anchor-11" 0 0 basechar 0
AnchorPoint: "Anchor-10" 244 0 basechar 0
LayerCount: 2
Back
Fore
SplineSet
285 680 m 2xb0
 413 680 539 638 539 436 c 0
 539 233 453 0 197 0 c 2
 86 0 l 1
 135 352 l 1
 43 352 l 1
 43 354 l 1
 135 354 l 1xd0
 181 680 l 1
 285 680 l 2xb0
197 2 m 2
 451 2 537 234 537 436 c 0
 537 636 412 678 285 678 c 2
 183 678 l 1
 137 354 l 1
 335 354 l 1
 335 352 l 1
 137 352 l 1xd0
 88 2 l 1
 197 2 l 2
EndSplineSet
Substitution2: "'c2sc' Capitals to Small Capitals lookup 27 subtable" eth.sc
Substitution2: "'aalt' Access All Alternates lookup 0 subtable" eth.sc
Position2: "'cpsp' Capital Spacing lookup 0 subtable" dx=5 dy=0 dh=10 dv=0
EndChar

StartChar: Ntilde
Encoding: 209 209 70
Width: 654
GlyphClass: 2
Flags: MW
HStem: 0 21G<94 96 94 94 485 488 485 485> 660 20G<189 192 192 192 581 583 583 583> 814 42
VStem: 94 489
AnchorPoint: "Anchor-11" 285 0 basechar 0
AnchorPoint: "Anchor-10" 0 0 basechar 0
AnchorPoint: "Anchor-9" 390 680 basechar 0
AnchorPoint: "Anchor-8" 0 0 basechar 0
LayerCount: 2
Fore
SplineSet
466 814 m 0
 423 814 395 858 357 858 c 0
 332 858 315 847 288 822 c 1
 290 821 l 1
 315 845 333 856 357 856 c 0
 394 856 422 812 466 812 c 0
 493 812 510 823 535 850 c 1
 533 851 l 1
 509 825 492 814 466 814 c 0
488 0 m 1
 485 0 l 1
 191 677 l 1
 187 650 183 622 176 572 c 2
 96 0 l 1
 94 0 l 1
 189 680 l 1
 192 680 l 1
 486 4 l 1
 492 45 499 95 505 136 c 2
 581 680 l 1
 583 680 l 1
 488 0 l 1
EndSplineSet
Substitution2: "'c2sc' Capitals to Small Capitals lookup 23 subtable" ntilde.sc
Substitution2: "'aalt' Access All Alternates lookup 0 subtable" ntilde.sc
Position2: "'cpsp' Capital Spacing lookup 0 subtable" dx=5 dy=0 dh=10 dv=0
EndChar
StartChar: Ograve
Encoding: 210 210 188
Width: 687
GlyphClass: 2
Flags: MW
HStem: -9 21G<237.5 428.5> 670 20G<286 472>
VStem: 90 531<168.5 512.5>
AnchorPoint: "Anchor-14" 0 0 basechar 0
AnchorPoint: "Anchor-13" 577 680 basechar 0
AnchorPoint: "Anchor-12" 421 842 basechar 0
AnchorPoint: "Anchor-11" 0 0 basechar 0
AnchorPoint: "Anchor-10" 306 0 basechar 0
LayerCount: 2
Back
Fore
SplineSet
341 842 m 1
 498 773 l 1
 497 771 l 1
 340 840 l 1
 341 842 l 1
403 690 m 0
 541 690 621 596 621 429 c 0
 621 261 551 -9 306 -9 c 0
 169 -9 90 86 90 251 c 0
 90 418 169 690 403 690 c 0
403 688 m 0
 170 688 92 417 92 251 c 0
 92 87 170 -7 306 -7 c 0
 550 -7 619 262 619 429 c 0
 619 595 540 688 403 688 c 0
EndSplineSet
Substitution2: "'c2sc' Capitals to Small Capitals lookup 27 subtable" ograve.sc
Substitution2: "'aalt' Access All Alternates lookup 0 subtable" ograve.sc
Position2: "'cpsp' Capital Spacing lookup 0 subtable" dx=5 dy=0 dh=10 dv=0
EndChar
StartChar: Oacute
Encoding: 211 211 172
Width: 687
GlyphClass: 2
Flags: MW
HStem: -9 21G<237.5 428.5> 670 20G<286 472>
VStem: 90 531<168.5 512.5>
AnchorPoint: "Anchor-14" 0 0 basechar 0
AnchorPoint: "Anchor-13" 577 680 basechar 0
AnchorPoint: "Anchor-12" 421 842 basechar 0
AnchorPoint: "Anchor-11" 0 0 basechar 0
AnchorPoint: "Anchor-10" 306 0 basechar 0
LayerCount: 2
Back
Fore
SplineSet
506 842 m 1
 507 840 l 1
 332 771 l 1
 331 773 l 1
 506 842 l 1
403 690 m 0
 541 690 621 596 621 429 c 0
 621 261 551 -9 306 -9 c 0
 169 -9 90 86 90 251 c 0
 90 418 169 690 403 690 c 0
403 688 m 0
 170 688 92 417 92 251 c 0
 92 87 170 -7 306 -7 c 0
 550 -7 619 262 619 429 c 0
 619 595 540 688 403 688 c 0
EndSplineSet
Substitution2: "'c2sc' Capitals to Small Capitals lookup 27 subtable" oacute.sc
Substitution2: "'locl' Localized Forms in Latin lookup 7 subtable" Oacute.loclPLK
AlternateSubs2: "'aalt' Access All Alternates lookup 1 subtable" Oacute.loclPLK oacute.sc
Position2: "'cpsp' Capital Spacing lookup 0 subtable" dx=5 dy=0 dh=10 dv=0
EndChar

StartChar: Ocircumflex
Encoding: 212 212 74
Width: 687
GlyphClass: 2
Flags: MW
HStem: -9 21G<237.5 428.5> 670 20G<286 472> 688 83<310 310 310 471.5>
VStem: 90 531<168.5 512.5>
AnchorPoint: "Anchor-11" 0 0 basechar 0
AnchorPoint: "Anchor-10" 108 517 basechar 0
AnchorPoint: "Anchor-9" 401 680 basechar 0
AnchorPoint: "Anchor-8" 0 0 basechar 0
LayerCount: 2
Fore
SplineSet
429 848 m 1xb0
 312 770 l 1
 310 771 l 1
 428 850 l 1
 430 850 l 1
 528 771 l 1
 526 770 l 1
 429 848 l 1xb0
403 690 m 0xd0
 541 690 621 596 621 429 c 0
 621 261 551 -9 306 -9 c 0
 169 -9 90 86 90 251 c 0
 90 418 169 690 403 690 c 0xd0
403 688 m 0xb0
 170 688 92 415 92 253 c 0
 92 88 170 -7 306 -7 c 0
 550 -7 619 265 619 429 c 0
 619 595 540 688 403 688 c 0xb0
EndSplineSet
Substitution2: "'c2sc' Capitals to Small Capitals lookup 23 subtable" ocircumflex.sc
Substitution2: "'aalt' Access All Alternates lookup 0 subtable" ocircumflex.sc
Position2: "'cpsp' Capital Spacing lookup 0 subtable" dx=5 dy=0 dh=10 dv=0
EndChar
StartChar: Otilde
Encoding: 213 213 207
Width: 687
GlyphClass: 2
Flags: MW
HStem: -9 21G<237.5 428.5> 670 20G<286 472> 688 124<455 471.5> 814 42
VStem: 90 531<168.5 512.5>
AnchorPoint: "Anchor-14" 0 0 basechar 0
AnchorPoint: "Anchor-13" 577 680 basechar 0
AnchorPoint: "Anchor-12" 425 858 basechar 0
AnchorPoint: "Anchor-11" 0 0 basechar 0
AnchorPoint: "Anchor-10" 306 0 basechar 0
LayerCount: 2
Back
Fore
SplineSet
477 814 m 0xd8
 434 814 406 858 368 858 c 0xd8
 343 858 326 847 299 822 c 1
 301 821 l 1
 326 845 344 856 368 856 c 0
 405 856 433 812 477 812 c 0xa8
 504 812 521 823 546 850 c 1
 544 851 l 1
 520 825 503 814 477 814 c 0xd8
403 690 m 0
 541 690 621 596 621 429 c 0
 621 261 551 -9 306 -9 c 0
 169 -9 90 86 90 251 c 0
 90 418 169 690 403 690 c 0
403 688 m 0xa8
 170 688 92 417 92 251 c 0
 92 87 170 -7 306 -7 c 0
 550 -7 619 262 619 429 c 0
 619 595 540 688 403 688 c 0xa8
EndSplineSet
Substitution2: "'c2sc' Capitals to Small Capitals lookup 27 subtable" otilde.sc
Substitution2: "'aalt' Access All Alternates lookup 0 subtable" otilde.sc
Position2: "'cpsp' Capital Spacing lookup 0 subtable" dx=5 dy=0 dh=10 dv=0
EndChar

StartChar: multiply
Encoding: 215 215 1110
Width: 478
Flags: MW
HStem: 171 273<95 132 132 359>
VStem: 93 305<172 443>
LayerCount: 2
Fore
SplineSet
398 443 m 1
 248 308 l 1
 361 172 l 1
 359 171 l 1
 246 306 l 1
 95 171 l 1
 93 172 l 1
 244 308 l 1
 130 443 l 1
 132 444 l 1
 246 309 l 1
 396 444 l 1
 398 443 l 1
EndSplineSet
Substitution2: "'onum' Oldstyle Figures lookup 22 subtable" multiply.osf
Substitution2: "'tnum' Tabular Numbers lookup 21 subtable" multiply.tf
AlternateSubs2: "'aalt' Access All Alternates lookup 1 subtable" multiply.tf multiply.osf
EndChar
StartChar: Oslash
Encoding: 216 216 205
Width: 687
GlyphClass: 2
Flags: MW
HStem: -9 21G 670 20
VStem: 90 531<190 491>
AnchorPoint: "Anchor-14" 0 0 basechar 0
AnchorPoint: "Anchor-13" 0 0 basechar 0
AnchorPoint: "Anchor-12" 403 680 basechar 0
AnchorPoint: "Anchor-11" 0 0 basechar 0
AnchorPoint: "Anchor-10" 0 0 basechar 0
LayerCount: 2
Back
Fore
SplineSet
498 671 m 1
 577 636 621 553 621 429 c 0
 621 261 551 -9 306 -9 c 0
 271 -9 240 -3 213 9 c 1
 164 -103 l 1
 162 -102 l 1
 211 10 l 1
 133 45 90 129 90 251 c 0
 90 418 169 690 403 690 c 0
 438 690 469 684 496 672 c 1
 547 787 l 1
 548 786 l 1
 498 671 l 1
92 253 m 0
 92 131 135 47 212 12 c 1
 495 671 l 1
 469 682 438 688 403 688 c 0
 170 688 92 415 92 253 c 0
306 -7 m 0
 550 -7 619 265 619 429 c 0
 619 552 576 635 497 670 c 1
 214 11 l 1
 241 -1 272 -7 306 -7 c 0
EndSplineSet
Substitution2: "'c2sc' Capitals to Small Capitals lookup 27 subtable" oslash.sc
Substitution2: "'aalt' Access All Alternates lookup 0 subtable" oslash.sc
Position2: "'cpsp' Capital Spacing lookup 0 subtable" dx=5 dy=0 dh=10 dv=0
EndChar

StartChar: Ugrave
Encoding: 217 217 106
Width: 633
GlyphClass: 2
Flags: MW
HStem: -9 21G<207 352> 660 20G<179 181 181 181 571 573 573 573>
VStem: 108.63 464.37
AnchorPoint: "Anchor-11" 0 0 basechar 0
AnchorPoint: "Anchor-10" 0 0 basechar 0
AnchorPoint: "Anchor-9" 381 680 basechar 0
AnchorPoint: "Anchor-8" 361 0 basechar 0
LayerCount: 2
Fore
SplineSet
478 773 m 1
 477 771 l 1
 320 840 l 1
 321 842 l 1
 478 773 l 1
506 206 m 1
 490 83 424 -9 280 -9 c 0
 134 -9 96 83 112 206 c 1
 179 680 l 1
 181 680 l 1
 114 206 l 1
 98 84 136 -7 280 -7 c 0
 423 -7 488 84 504 206 c 1
 571 680 l 1
 573 680 l 1
 506 206 l 1
EndSplineSet
Substitution2: "'c2sc' Capitals to Small Capitals lookup 23 subtable" ugrave.sc
Substitution2: "'aalt' Access All Alternates lookup 0 subtable" ugrave.sc
Position2: "'cpsp' Capital Spacing lookup 0 subtable" dx=5 dy=0 dh=10 dv=0
EndChar
StartChar: Uacute
Encoding: 218 218 254
Width: 635
GlyphClass: 2
Flags: MW
HStem: -9 21G<208 353> 660 20G<180 182 182 182 572 574 574 574>
VStem: 109.63 464.37
AnchorPoint: "Anchor-14" 0 0 basechar 0
AnchorPoint: "Anchor-13" 584 680 basechar 0
AnchorPoint: "Anchor-12" 397 842 basechar 0
AnchorPoint: "Anchor-11" 362 0 basechar 0
AnchorPoint: "Anchor-10" 281 0 basechar 0
LayerCount: 2
Back
Fore
SplineSet
482 842 m 1
 483 840 l 1
 308 771 l 1
 307 773 l 1
 482 842 l 1
574 680 m 1
 507 206 l 2
 491 83 425 -9 281 -9 c 0
 135 -9 97 83 113 206 c 2
 180 680 l 1
 182 680 l 1
 115 206 l 2
 99 84 137 -7 281 -7 c 0
 424 -7 489 84 505 206 c 2
 572 680 l 1
 574 680 l 1
EndSplineSet
Substitution2: "'c2sc' Capitals to Small Capitals lookup 27 subtable" uacute.sc
Substitution2: "'aalt' Access All Alternates lookup 0 subtable" uacute.sc
Position2: "'cpsp' Capital Spacing lookup 0 subtable" dx=5 dy=0 dh=10 dv=0
EndChar

StartChar: Ucircumflex
Encoding: 219 219 104
Width: 633
GlyphClass: 2
Flags: MW
HStem: -9 21G<207 352> 660 20G<179 181 181 181 571 573 573 573>
VStem: 108.63 464.37
AnchorPoint: "Anchor-11" 0 0 basechar 0
AnchorPoint: "Anchor-10" 0 0 basechar 0
AnchorPoint: "Anchor-9" 381 680 basechar 0
AnchorPoint: "Anchor-8" 361 0 basechar 0
LayerCount: 2
Fore
SplineSet
409 848 m 1
 292 770 l 1
 290 771 l 1
 408 850 l 1
 410 850 l 1
 508 771 l 1
 506 770 l 1
 409 848 l 1
506 206 m 1
 490 83 424 -9 280 -9 c 0
 134 -9 96 83 112 206 c 1
 179 680 l 1
 181 680 l 1
 114 206 l 1
 98 84 136 -7 280 -7 c 0
 423 -7 488 84 504 206 c 1
 571 680 l 1
 573 680 l 1
 506 206 l 1
EndSplineSet
Substitution2: "'c2sc' Capitals to Small Capitals lookup 23 subtable" ucircumflex.sc
Substitution2: "'aalt' Access All Alternates lookup 0 subtable" ucircumflex.sc
Position2: "'cpsp' Capital Spacing lookup 0 subtable" dx=5 dy=0 dh=10 dv=0
EndChar

StartChar: Udieresis
Encoding: 220 220 105
Width: 633
GlyphClass: 2
Flags: MW
HStem: -9 21G<207 352> 660 20G<179 181 181 181 571 573 573 573> 805 12<323 327 472 476>
VStem: 108.63 464.37
AnchorPoint: "Anchor-11" 0 0 basechar 0
AnchorPoint: "Anchor-10" 0 0 basechar 0
AnchorPoint: "Anchor-9" 391 733 basechar 0
AnchorPoint: "Anchor-8" 361 0 basechar 0
LayerCount: 2
Fore
SplineSet
325 817 m 0
 329 817 331 814 331 811 c 0
 331 808 329 805 325 805 c 0
 321 805 319 808 319 811 c 0
 319 814 321 817 325 817 c 0
474 817 m 0
 478 817 480 814 480 811 c 0
 480 808 478 805 474 805 c 0
 470 805 468 808 468 811 c 0
 468 814 470 817 474 817 c 0
506 206 m 1
 490 83 424 -9 280 -9 c 0
 134 -9 96 83 112 206 c 1
 179 680 l 1
 181 680 l 1
 114 206 l 1
 98 84 136 -7 280 -7 c 0
 423 -7 488 84 504 206 c 1
 571 680 l 1
 573 680 l 1
 506 206 l 1
EndSplineSet
Substitution2: "'c2sc' Capitals to Small Capitals lookup 23 subtable" udieresis.sc
Substitution2: "'aalt' Access All Alternates lookup 0 subtable" udieresis.sc
Position2: "'cpsp' Capital Spacing lookup 0 subtable" dx=5 dy=0 dh=10 dv=0
EndChar
StartChar: Yacute
Encoding: 221 221 294
Width: 479
GlyphClass: 2
Flags: MW
HStem: 0 21G<203 205 203 203> 660 20G<84 86 86 86 511 513 513 513>
VStem: 84 429<680 680>
AnchorPoint: "Anchor-14" 0 0 basechar 0
AnchorPoint: "Anchor-13" 0 0 basechar 0
AnchorPoint: "Anchor-12" 319 842 basechar 0
AnchorPoint: "Anchor-11" 0 0 basechar 0
AnchorPoint: "Anchor-10" 204 0 basechar 0
LayerCount: 2
Back
Fore
SplineSet
404 842 m 1
 405 840 l 1
 230 771 l 1
 229 773 l 1
 404 842 l 1
513 680 m 1
 242 271 l 1
 205 0 l 1
 203 0 l 1
 240 271 l 1
 84 680 l 1
 86 680 l 1
 241 273 l 1
 511 680 l 1
 513 680 l 1
EndSplineSet
Substitution2: "'c2sc' Capitals to Small Capitals lookup 27 subtable" yacute.sc
Substitution2: "'aalt' Access All Alternates lookup 0 subtable" yacute.sc
Position2: "'cpsp' Capital Spacing lookup 0 subtable" dx=5 dy=0 dh=10 dv=0
EndChar

StartChar: Thorn
Encoding: 222 222 84
Width: 553
GlyphClass: 2
Flags: MW
HStem: 0 21G<94 96 94 94> 548 132<189 191 189 292 172.56 191> 660 20G<189 191 191 191>
VStem: 94 409<0 444>
LayerCount: 2
Fore
SplineSet
293 550 m 2xb0
 434 550 503 505 503 383 c 0
 503 272 445 154 234 154 c 2
 117.51 154 l 1
 96 0 l 1
 94 0 l 1
 189 680 l 1
 191 680 l 1
 172.84 550 l 1
 293 550 l 2xb0
234 156 m 2
 447 156 501 276 501 383 c 0
 501 503 433 548 292 548 c 2
 172.56 548 l 1xd0
 117.79 156 l 1
 234 156 l 2
EndSplineSet
Substitution2: "'c2sc' Capitals to Small Capitals lookup 23 subtable" thorn.sc
Substitution2: "'aalt' Access All Alternates lookup 0 subtable" thorn.sc
Position2: "'cpsp' Capital Spacing lookup 0 subtable" dx=5 dy=0 dh=10 dv=0
EndChar

StartChar: germandbls
Encoding: 223 223 233
Width: 569
GlyphClass: 2
Flags: MW
HStem: -190 21G<-36 -36> -10 21G<310 390.5> 713 20G<311.5 396.5>
VStem: -36 526<-190 150> 328 150<370 660.5>
LayerCount: 2
Fore
SplineSet
330 411 m 0xf0
 330 330 491 310 490 150 c 0
 490 88 449 -10 332 -10 c 0
 288 -10 245 5 225 18 c 1
 226 20 l 1
 247 6 289 -8 332 -8 c 0
 448 -8 488 89 488 150 c 0
 488 309 328 329 328 411 c 0
 328 496 476 501 476 631 c 0
 476 688 434 731 359 731 c 0
 265 731 182 662 166 541 c 1
 89.8496 -0 l 2
 72.8096 -118.2 39.79 -154.11 -35 -191 c 1
 -36 -190 l 1
 38 -153 71 -117 88 1 c 2
 164 541 l 2
 181 663 264 733 359 733 c 0
 434 733 478 690 478 631 c 0xe8
 478 500 330 495 330 411 c 0xf0
EndSplineSet
Substitution2: "'smcp' Lowercase to Small Capitals lookup 24 subtable" germandbls.sc
Substitution2: "'aalt' Access All Alternates lookup 0 subtable" germandbls.sc
EndChar
StartChar: atilde
Encoding: 227 227 366
Width: 539
GlyphClass: 2
Flags: MW
HStem: -9 21G<178 259 442 442> -7 21G<178.5 259 443 443> 507 20G<238 362> 525 161<238.5 430.5> 666 20G<395 430.5> 688 42 710 20G<296 326.5>
VStem: 398.89 43.11
AnchorPoint: "Anchor-14" 0 0 basechar 0
AnchorPoint: "Anchor-13" 0 0 basechar 0
AnchorPoint: "Anchor-12" 365 732 basechar 0
AnchorPoint: "Anchor-11" 452 -9 basechar 0
AnchorPoint: "Anchor-10" 257 0 basechar 0
LayerCount: 2
Back
Fore
SplineSet
417 688 m 0x65
 374 688 346 732 308 732 c 0x65
 283 732 266 721 239 696 c 1
 241 695 l 1
 266 719 284 730 308 730 c 0
 345 730 373 686 417 686 c 0x6b
 444 686 461 697 486 724 c 1
 484 725 l 1
 460 699 443 688 417 688 c 0x65
337 527 m 0xab
 387 527 428 511 462 487 c 1
 406 121 l 2
 403 99 401 81 401 65 c 0
 401 28 413 4 443 -7 c 1
 442 -9 l 1x6b
 388 12 398 71 403 116 c 1
 357 31 291 -9 227 -9 c 0
 129 -9 74 72 74 183 c 0
 74 326 139 527 337 527 c 0xab
337 525 m 0x53
 140 525 76 325 76 183 c 0
 76 73 130 -7 227 -7 c 0
 291 -7 357 34 404 121 c 1
 460 486 l 1
 426 510 386 525 337 525 c 0x53
EndSplineSet
Substitution2: "'smcp' Lowercase to Small Capitals lookup 28 subtable" atilde.sc
Substitution2: "'aalt' Access All Alternates lookup 0 subtable" atilde.sc
EndChar

StartChar: aring
Encoding: 229 229 142
Width: 539
GlyphClass: 2
Flags: MW
HStem: -9 21G<178 259 442 442> -7 21G<178.5 259 443 443> 507 20G<238 362> 525 132<337.5 361.5> 655 127<354.5 376.5>
VStem: 302 126<718 718> 399.14 42.86
AnchorPoint: "Anchor-11" 0 0 basechar 0
AnchorPoint: "Anchor-10" 0 0 basechar 0
AnchorPoint: "Anchor-9" 337 517 basechar 0
AnchorPoint: "Anchor-8" 452 -9 basechar 0
LayerCount: 2
Fore
SplineSet
374 782 m 0x6c
 415 782 433 756 428 719 c 0
 423 681 396 655 357 655 c 0
 316 655 297 681 302 718 c 0
 307 756 335 782 374 782 c 0x6c
374 780 m 0
 336 780 309 755 304 718 c 0
 299 681 318 657 357 657 c 0
 395 657 422 683 426 719 c 0x54
 431 756 414 780 374 780 c 0
337 527 m 0xaa
 387 527 428 511 462 487 c 1
 406 121 l 2
 403 99 401 81 401 65 c 0
 401 28 413 4 443 -7 c 1
 442 -9 l 1x6a
 388 12 398 71 404 118 c 1
 357 31 291 -9 227 -9 c 0
 129 -9 74 72 74 183 c 0
 74 326 139 527 337 527 c 0xaa
337 525 m 0x52
 140 525 76 325 76 183 c 0
 76 73 130 -7 227 -7 c 0
 291 -7 357 34 404 121 c 1
 460 486 l 1
 426 510 386 525 337 525 c 0x52
EndSplineSet
Substitution2: "'smcp' Lowercase to Small Capitals lookup 24 subtable" aring.sc
Substitution2: "'aalt' Access All Alternates lookup 0 subtable" aring.sc
EndChar

StartChar: ae
Encoding: 230 230 144
Width: 851
GlyphClass: 2
Flags: MW
HStem: -9 21G<149.5 236 519 593.5> 218 77 293 234<278 286 286 335 278 409>
VStem: 396.75 8.25
AnchorPoint: "Anchor-11" 551 0 basechar 0
AnchorPoint: "Anchor-10" 0 0 basechar 0
AnchorPoint: "Anchor-9" 464 517 basechar 0
AnchorPoint: "Anchor-8" 666 10 basechar 0
LayerCount: 2
Fore
SplineSet
301 527 m 0xb0
 369 527 437 484 439 382 c 1
 452 409 503 527 647 527 c 0xb0
 722 527 787 488 787 414 c 0
 787 306 670 231 400 218 c 1
 394 132 419 -7 561 -7 c 0
 626 -7 670 14 722 52 c 1
 723 50 l 1
 671 12 626 -9 561 -9 c 0
 477 -9 424 39 405 123 c 1
 337 32 279 -9 193 -9 c 0
 106 -9 62 45 62 119 c 0
 62 214 125 295 286 295 c 2
 409.5 295 l 1
 417.5 328 424 348 437 378 c 1xd0
 436 482 370 525 301 525 c 0
 255 525 208 514 149 491 c 1
 149 493 l 1
 207 516 255 527 301 527 c 0xb0
647 525 m 0
 448 525 407 301 400 220 c 1
 670 233 785 308 785 414 c 0
 785 487 721 525 647 525 c 0
286 293 m 2
 126 293 64 213 64 119 c 0
 64 46 107 -7 193 -7 c 0
 281 -7 337 37 404 125 c 1
 394 170 393 219 409 293 c 1
 286 293 l 2
EndSplineSet
Substitution2: "'smcp' Lowercase to Small Capitals lookup 24 subtable" ae.sc
Substitution2: "'aalt' Access All Alternates lookup 0 subtable" ae.sc
EndChar

StartChar: ccedilla
Encoding: 231 231 150
Width: 469
GlyphClass: 2
Flags: MW
HStem: -203 119 -187 21G -85.01 78 -9 21G<240.8 240.8> -8.96001 21G 507 20G<256 345.5>
VStem: 75.39 365.61
AnchorPoint: "Anchor-11" 249 -1 basechar 0
AnchorPoint: "Anchor-10" 0 0 basechar 0
AnchorPoint: "Anchor-9" 305 517 basechar 0
AnchorPoint: "Anchor-8" 0 0 basechar 0
LayerCount: 2
Fore
SplineSet
319 527 m 0x4e
 372 527 410.001 509.99 441.001 476.99 c 1
 439.001 475.99 l 1
 408.001 508.99 370.001 524.99 319.001 524.99 c 0
 195.001 524.99 105.001 423.99 82.001 255.99 c 0
 58.001 87.9902 129.001 -7.00977 243.001 -7.00977 c 0x66
 302.001 -7.00977 344.001 13.9902 383.001 44.9902 c 1
 384.001 43.9902 l 1
 346.001 12.9902 304.001 -9.00977 243.001 -9.00977 c 0
 242.261 -9.00977 241.53 -9.00977 240.8 -9 c 2
 226 -84.0098 l 1
 278 -85.0098 309 -99.0098 309 -137.01 c 0
 309 -171.01 285 -203.01 232 -203.01 c 0x96
 203 -203.01 187 -197.01 172 -187.01 c 1
 173 -185.01 l 1
 188 -196.01 205 -201.01 232 -201.01 c 0
 287 -201.01 307 -166.01 307 -137.01 c 0
 307 -102.01 280 -86.0098 224 -85.0098 c 1x66
 238.81 -8.95996 l 1
 126.26 -6.67969 56.29 88.0703 80 256 c 0
 104 426 193 527 319 527 c 0x4e
EndSplineSet
Substitution2: "'smcp' Lowercase to Small Capitals lookup 24 subtable" ccedilla.sc
Substitution2: "'aalt' Access All Alternates lookup 0 subtable" ccedilla.sc
EndChar
StartChar: eacute
Encoding: 233 233 410
Width: 520
GlyphClass: 2
Flags: MW
HStem: -9 21G<188 271.5> 507 20G<229 362.5>
VStem: 75 390<125.5 451>
AnchorPoint: "Anchor-14" 0 0 basechar 0
AnchorPoint: "Anchor-13" 0 0 basechar 0
AnchorPoint: "Anchor-12" 337 746 basechar 0
AnchorPoint: "Anchor-11" 344 10 basechar 0
AnchorPoint: "Anchor-10" 234 0 basechar 0
LayerCount: 2
Back
Fore
SplineSet
423 746 m 1
 424 744 l 1
 245 662 l 1
 245 664 l 1
 423 746 l 1
465 414 m 0
 465 306 348 231 78 218 c 1
 77 208 77 199 77 190 c 0
 77 62 138 -7 239 -7 c 0
 304 -7 348 14 400 52 c 1
 401 50 l 1
 349 12 304 -9 239 -9 c 0
 137 -9 75 61 75 190 c 0
 75 310 133 527 325 527 c 0
 400 527 465 488 465 414 c 0
325 525 m 0
 150 525 87 343 78 220 c 1
 348 233 463 308 463 414 c 0
 463 487 399 525 325 525 c 0
EndSplineSet
Substitution2: "'smcp' Lowercase to Small Capitals lookup 28 subtable" eacute.sc
Substitution2: "'aalt' Access All Alternates lookup 0 subtable" eacute.sc
EndChar
StartChar: ecircumflex
Encoding: 234 234 414
Width: 520
GlyphClass: 2
Flags: MW
HStem: -9 21G<188 271.5> 507 20G<229 362.5>
VStem: 75 390<125.5 451>
AnchorPoint: "Anchor-14" 0 0 basechar 0
AnchorPoint: "Anchor-13" 0 0 basechar 0
AnchorPoint: "Anchor-12" 341 745 basechar 0
AnchorPoint: "Anchor-11" 344 10 basechar 0
AnchorPoint: "Anchor-10" 234 0 basechar 0
LayerCount: 2
Back
Fore
SplineSet
341 743 m 1
 221 660 l 1
 219 661 l 1
 340 745 l 1
 342 745 l 1
 437 661 l 1
 435 660 l 1
 341 743 l 1
465 414 m 0
 465 306 348 231 78 218 c 1
 77 208 77 199 77 190 c 0
 77 62 138 -7 239 -7 c 0
 304 -7 348 14 400 52 c 1
 401 50 l 1
 349 12 304 -9 239 -9 c 0
 137 -9 75 61 75 190 c 0
 75 310 133 527 325 527 c 0
 400 527 465 488 465 414 c 0
325 525 m 0
 150 525 87 343 78 220 c 1
 348 233 463 308 463 414 c 0
 463 487 399 525 325 525 c 0
EndSplineSet
Substitution2: "'smcp' Lowercase to Small Capitals lookup 28 subtable" ecircumflex.sc
Substitution2: "'aalt' Access All Alternates lookup 0 subtable" ecircumflex.sc
EndChar
StartChar: igrave
Encoding: 236 236 488
Width: 252
GlyphClass: 2
Flags: MW
HStem: 0 21G<89 91 89 89> 497 20G<161 163 163 163>
VStem: 89 187
AnchorPoint: "Anchor-14" 0 0 basechar 0
AnchorPoint: "Anchor-13" 0 0 basechar 0
AnchorPoint: "Anchor-12" 200 746 basechar 0
AnchorPoint: "Anchor-11" 101 0 basechar 0
AnchorPoint: "Anchor-10" 90 0 basechar 0
LayerCount: 2
Back
Fore
SplineSet
121 746 m 1
 276 663 l 1
 275 662 l 1
 120 744 l 1
 121 746 l 1
163 517 m 1
 91 0 l 1
 89 0 l 1
 161 517 l 1
 163 517 l 1
EndSplineSet
Substitution2: "'smcp' Lowercase to Small Capitals lookup 28 subtable" igrave.sc
Substitution2: "'aalt' Access All Alternates lookup 0 subtable" igrave.sc
EndChar
StartChar: iacute
Encoding: 237 237 479
Width: 252
GlyphClass: 2
Flags: MW
HStem: 0 21G<89 91 89 89> 497 20G<161 163 163 163>
VStem: 89 189
AnchorPoint: "Anchor-14" 0 0 basechar 0
AnchorPoint: "Anchor-13" 0 0 basechar 0
AnchorPoint: "Anchor-12" 191 746 basechar 0
AnchorPoint: "Anchor-11" 101 0 basechar 0
AnchorPoint: "Anchor-10" 90 0 basechar 0
LayerCount: 2
Back
Fore
SplineSet
277 746 m 1
 278 744 l 1
 99 662 l 1
 99 664 l 1
 277 746 l 1
163 517 m 1
 91 0 l 1
 89 0 l 1
 161 517 l 1
 163 517 l 1
EndSplineSet
Substitution2: "'smcp' Lowercase to Small Capitals lookup 28 subtable" iacute.sc
Substitution2: "'aalt' Access All Alternates lookup 0 subtable" iacute.sc
EndChar

StartChar: icircumflex
Encoding: 238 238 180
Width: 252
GlyphClass: 2
Flags: MW
HStem: 0 21G<89 91 89 89> 497 20G<161 163 163 163>
VStem: 76 218<661 661>
AnchorPoint: "Anchor-11" 0 0 basechar 0
AnchorPoint: "Anchor-10" 0 0 basechar 0
AnchorPoint: "Anchor-9" 162 517 basechar 0
AnchorPoint: "Anchor-8" 101 0 basechar 0
LayerCount: 2
Fore
SplineSet
76 661 m 1
 197 745 l 1
 199 745 l 1
 294 661 l 1
 292 660 l 1
 198 743 l 1
 78 660 l 1
 76 661 l 1
91 0 m 1
 89 0 l 1
 161 517 l 1
 163 517 l 1
 91 0 l 1
EndSplineSet
Substitution2: "'smcp' Lowercase to Small Capitals lookup 24 subtable" icircumflex.sc
Substitution2: "'aalt' Access All Alternates lookup 0 subtable" icircumflex.sc
EndChar
StartChar: idieresis
Encoding: 239 239 484
Width: 252
GlyphClass: 2
Flags: MW
HStem: 0 21G<89 91 89 89> 497 20G<161 163 163 163> 679 12<109 113 258 262>
VStem: 89 177
AnchorPoint: "Anchor-14" 0 0 basechar 0
AnchorPoint: "Anchor-13" 0 0 basechar 0
AnchorPoint: "Anchor-12" 188 691 basechar 0
AnchorPoint: "Anchor-11" 101 0 basechar 0
AnchorPoint: "Anchor-10" 90 0 basechar 0
LayerCount: 2
Back
Fore
SplineSet
111 691 m 0
 115 691 117 688 117 685 c 0
 117 682 115 679 111 679 c 0
 107 679 105 682 105 685 c 0
 105 688 107 691 111 691 c 0
260 691 m 0
 264 691 266 688 266 685 c 0
 266 682 264 679 260 679 c 0
 256 679 254 682 254 685 c 0
 254 688 256 691 260 691 c 0
163 517 m 1
 91 0 l 1
 89 0 l 1
 161 517 l 1
 163 517 l 1
EndSplineSet
Substitution2: "'smcp' Lowercase to Small Capitals lookup 28 subtable" idieresis.sc
Substitution2: "'aalt' Access All Alternates lookup 0 subtable" idieresis.sc
EndChar
StartChar: eth
Encoding: 240 240 391
Width: 539
GlyphClass: 2
Flags: MW
HStem: -9 21G<176 288> 714 20G<218 218> 717 20G<425 425>
VStem: 462 7
AnchorPoint: "Anchor-14" 0 0 basechar 0
AnchorPoint: "Anchor-13" 0 0 basechar 0
AnchorPoint: "Anchor-12" 354 727 basechar 0
AnchorPoint: "Anchor-11" 0 0 basechar 0
AnchorPoint: "Anchor-10" 226 0 basechar 0
LayerCount: 2
Back
Fore
SplineSet
355 670 m 1xb0
 430 612 469 527 469 409 c 0
 469 382 467 353 463 322 c 0
 431 93 350 -9 226 -9 c 0
 126 -9 71 63 71 174 c 0
 71 279 129 457 287 457 c 0
 370 457 426 408 463 337 c 1
 475 451 465 583 353 669 c 1
 252 576 l 1
 250 577 l 1
 351 670 l 1
 313 699 265 720 217 732 c 1
 218 734 l 1
 266 722 314 701 353 671 c 1xd0
 425 737 l 1
 427 736 l 1
 355 670 l 1xb0
226 -7 m 0
 348 -7 419 93 453 275 c 0
 458 302 461 322 462 334 c 1
 425 406 371 455 287 455 c 0
 130 455 73 278 73 174 c 0
 73 64 127 -7 226 -7 c 0
EndSplineSet
Substitution2: "'smcp' Lowercase to Small Capitals lookup 28 subtable" eth.sc
Substitution2: "'aalt' Access All Alternates lookup 0 subtable" eth.sc
EndChar

StartChar: ntilde
Encoding: 241 241 207
Width: 580
GlyphClass: 2
Flags: MW
HStem: 0 21G<89 91 89 89 422 424 422 422> 497 20G<161 163 163 163> 507 20G<322 411.5> 525 161<388 411> 688 42 710 20G<289 319.5>
VStem: 89 390
AnchorPoint: "Anchor-11" 254 0 basechar 0
AnchorPoint: "Anchor-10" 0 0 basechar 0
AnchorPoint: "Anchor-9" 326 517 basechar 0
AnchorPoint: "Anchor-8" 0 0 basechar 0
LayerCount: 2
Fore
SplineSet
410 688 m 0xaa
 367 688 339 732 301 732 c 0xaa
 276 732 259 721 232 696 c 1
 234 695 l 1
 259 719 277 730 301 730 c 0
 338 730 366 686 410 686 c 0x96
 437 686 454 697 479 724 c 1
 477 725 l 1
 453 699 436 688 410 688 c 0xaa
365 527 m 0xa6
 458 527 489 467 476 368 c 2
 424 0 l 1
 422 0 l 1
 474 368 l 2
 487 466 457 525 365 525 c 0x96
 279 525 208 471 137 329 c 1
 91 0 l 1
 89 0 l 1
 161 517 l 1
 163 517 l 1xc6
 138 335 l 1
 207 473 279 527 365 527 c 0xa6
EndSplineSet
Substitution2: "'smcp' Lowercase to Small Capitals lookup 24 subtable" ntilde.sc
Substitution2: "'aalt' Access All Alternates lookup 0 subtable" ntilde.sc
EndChar

StartChar: ocircumflex
Encoding: 244 244 211
Width: 559
GlyphClass: 2
Flags: MW
HStem: -9 21G<189 334> 507 20G<227 370.5>
VStem: 75 409<128.5 391.5>
AnchorPoint: "Anchor-11" 0 0 basechar 0
AnchorPoint: "Anchor-10" 0 0 basechar 0
AnchorPoint: "Anchor-9" 316 517 basechar 0
AnchorPoint: "Anchor-8" 0 0 basechar 0
LayerCount: 2
Fore
SplineSet
230 661 m 1
 351 745 l 1
 353 745 l 1
 448 661 l 1
 446 660 l 1
 352 743 l 1
 232 660 l 1
 230 661 l 1
318 527 m 0
 423 527 484 455 484 328 c 0
 484 198 426 -9 242 -9 c 0
 136 -9 75 65 75 192 c 0
 75 325 136 527 318 527 c 0
318 525 m 0
 137 525 77 324 77 192 c 0
 77 66 137 -7 242 -7 c 0
 425 -7 482 199 482 328 c 0
 482 454 422 525 318 525 c 0
EndSplineSet
Substitution2: "'smcp' Lowercase to Small Capitals lookup 24 subtable" ocircumflex.sc
Substitution2: "'aalt' Access All Alternates lookup 0 subtable" ocircumflex.sc
EndChar
StartChar: otilde
Encoding: 245 245 588
Width: 559
GlyphClass: 2
Flags: MW
HStem: -9 21G<189 334> 507 20G<227 370.5> 525 161<227.5 410.5> 688 42 710 20G<276 306.5>
VStem: 75 409<128.5 391.5>
AnchorPoint: "Anchor-14" 0 0 basechar 0
AnchorPoint: "Anchor-13" 467 517 basechar 0
AnchorPoint: "Anchor-12" 345 732 basechar 0
AnchorPoint: "Anchor-11" 0 0 basechar 0
AnchorPoint: "Anchor-10" 242 0 basechar 0
LayerCount: 2
Back
Fore
SplineSet
397 688 m 0xd4
 354 688 326 732 288 732 c 0xd4
 263 732 246 721 219 696 c 1
 221 695 l 1
 246 719 264 730 288 730 c 0
 325 730 353 686 397 686 c 0xac
 424 686 441 697 466 724 c 1
 464 725 l 1
 440 699 423 688 397 688 c 0xd4
318 527 m 0xcc
 423 527 484 455 484 328 c 0
 484 198 426 -9 242 -9 c 0
 136 -9 75 65 75 192 c 0
 75 325 136 527 318 527 c 0xcc
318 525 m 0xac
 137 525 77 324 77 192 c 0
 77 66 137 -7 242 -7 c 0
 425 -7 482 199 482 328 c 0
 482 454 422 525 318 525 c 0xac
EndSplineSet
Substitution2: "'smcp' Lowercase to Small Capitals lookup 28 subtable" otilde.sc
Substitution2: "'aalt' Access All Alternates lookup 0 subtable" otilde.sc
EndChar
StartChar: odieresis
Encoding: 246 246 563
Width: 559
GlyphClass: 2
Flags: MW
HStem: -9 21G<189 334> 507 20G<227 370.5> 525 166<263 267 263 370> 679 12<263 267 412 416>
VStem: 75 409<128.5 391.5>
AnchorPoint: "Anchor-14" 0 0 basechar 0
AnchorPoint: "Anchor-13" 467 517 basechar 0
AnchorPoint: "Anchor-12" 342 691 basechar 0
AnchorPoint: "Anchor-11" 0 0 basechar 0
AnchorPoint: "Anchor-10" 242 0 basechar 0
LayerCount: 2
Back
Fore
SplineSet
265 691 m 0xd8
 269 691 271 688 271 685 c 0
 271 682 269 679 265 679 c 0
 261 679 259 682 259 685 c 0
 259 688 261 691 265 691 c 0xd8
414 691 m 0
 418 691 420 688 420 685 c 0
 420 682 418 679 414 679 c 0
 410 679 408 682 408 685 c 0
 408 688 410 691 414 691 c 0
318 527 m 0
 423 527 484 455 484 328 c 0
 484 198 426 -9 242 -9 c 0
 136 -9 75 65 75 192 c 0
 75 325 136 527 318 527 c 0
318 525 m 0xa8
 137 525 77 324 77 192 c 0
 77 66 137 -7 242 -7 c 0
 425 -7 482 199 482 328 c 0
 482 454 422 525 318 525 c 0xa8
EndSplineSet
Substitution2: "'smcp' Lowercase to Small Capitals lookup 28 subtable" odieresis.sc
Substitution2: "'aalt' Access All Alternates lookup 0 subtable" odieresis.sc
EndChar

StartChar: divide
Encoding: 247 247 1091
Width: 478
Flags: MW
HStem: 126 14<218 222> 522 14<273 277>
VStem: 95 309<330 332>
LayerCount: 2
Fore
SplineSet
275 536 m 0
 279 536 282 533 282 529 c 0
 282 525 279 522 275 522 c 0
 271 522 268 525 268 529 c 0
 268 533 271 536 275 536 c 0
96 332 m 1
 404 332 l 1
 403 330 l 1
 95 330 l 1
 96 332 l 1
220 140 m 0
 224 140 227 137 227 133 c 0
 227 129 224 126 220 126 c 0
 216 126 213 129 213 133 c 0
 213 137 216 140 220 140 c 0
EndSplineSet
Substitution2: "'onum' Oldstyle Figures lookup 22 subtable" divide.osf
Substitution2: "'tnum' Tabular Numbers lookup 21 subtable" divide.tf
AlternateSubs2: "'aalt' Access All Alternates lookup 1 subtable" divide.tf divide.osf
EndChar

StartChar: oslash
Encoding: 248 248 216
Width: 559
GlyphClass: 2
Flags: MW
HStem: -9 20 507 20G<227 332.5>
VStem: 75 409<147 373>
AnchorPoint: "Anchor-11" 0 0 basechar 0
AnchorPoint: "Anchor-10" 0 0 basechar 0
AnchorPoint: "Anchor-9" 316 517 basechar 0
AnchorPoint: "Anchor-8" 0 0 basechar 0
LayerCount: 2
Fore
SplineSet
454 630 m 1
 398 510 l 1
 454 481 484 418 484 328 c 0
 484 198 426 -9 242 -9 c 0
 212 -9 186 -3 163 8 c 1
 106 -112 l 1
 104 -112 l 1
 161 9 l 1
 106 39 75 102 75 192 c 0
 75 325 136 527 318 527 c 0
 347 527 374 521 396 511 c 1
 452 630 l 1
 454 630 l 1
318 525 m 0
 137 525 77 324 77 192 c 0
 77 103 107 40 162 11 c 1
 395 509 l 1
 373 519 347 525 318 525 c 0
164 10 m 1
 186 -1 212 -7 242 -7 c 0
 425 -7 482 199 482 328 c 0
 482 418 452 479 397 508 c 1
 164 10 l 1
EndSplineSet
Substitution2: "'smcp' Lowercase to Small Capitals lookup 24 subtable" oslash.sc
Substitution2: "'aalt' Access All Alternates lookup 0 subtable" oslash.sc
EndChar

StartChar: ugrave
Encoding: 249 249 244
Width: 575
GlyphClass: 2
Flags: MW
HStem: -9 21G<180.5 267> 0 21G<412 414 412 412> 497 20G<156 158 158 158 484 486 486 486>
VStem: 102.52 383.48
AnchorPoint: "Anchor-11" 0 0 basechar 0
AnchorPoint: "Anchor-10" 0 0 basechar 0
AnchorPoint: "Anchor-9" 324 517 basechar 0
AnchorPoint: "Anchor-8" 424 0 basechar 0
LayerCount: 2
Fore
SplineSet
433 663 m 1x70
 432 662 l 1
 277 744 l 1
 278 746 l 1
 433 663 l 1x70
414 0 m 1
 412 0 l 1x70
 436 167 l 1
 386 52 310 -9 224 -9 c 0xb0
 137 -9 91 46 105 150 c 2
 156 517 l 1
 158 517 l 1
 107 150 l 2
 93 48 138 -7 224 -7 c 0
 311 -7 386 55 436 171 c 1
 484 517 l 1
 486 517 l 1
 414 0 l 1
EndSplineSet
Substitution2: "'smcp' Lowercase to Small Capitals lookup 24 subtable" ugrave.sc
Substitution2: "'aalt' Access All Alternates lookup 0 subtable" ugrave.sc
EndChar

StartChar: uacute
Encoding: 250 250 240
Width: 575
GlyphClass: 2
Flags: MW
HStem: -9 21G<180.5 267> 0 21G<412 414 412 412> 497 20G<156 158 158 158 484 486 486 486>
VStem: 102.52 383.48
AnchorPoint: "Anchor-11" 0 0 basechar 0
AnchorPoint: "Anchor-10" 0 0 basechar 0
AnchorPoint: "Anchor-9" 324 517 basechar 0
AnchorPoint: "Anchor-8" 424 0 basechar 0
LayerCount: 2
Fore
SplineSet
435 744 m 1x70
 256 662 l 1
 256 664 l 1
 434 746 l 1
 435 744 l 1x70
414 0 m 1
 412 0 l 1x70
 436 167 l 1
 386 52 310 -9 224 -9 c 0xb0
 137 -9 91 46 105 150 c 2
 156 517 l 1
 158 517 l 1
 107 150 l 2
 93 48 138 -7 224 -7 c 0
 311 -7 386 55 436 171 c 1
 484 517 l 1
 486 517 l 1
 414 0 l 1
EndSplineSet
Substitution2: "'smcp' Lowercase to Small Capitals lookup 24 subtable" uacute.sc
Substitution2: "'aalt' Access All Alternates lookup 0 subtable" uacute.sc
EndChar
StartChar: ucircumflex
Encoding: 251 251 662
Width: 574
GlyphClass: 2
Flags: MW
HStem: -9 21G<179.5 266> 0 21G<411 413 411 411> 497 20G<155 157 157 157 483 485 485 485>
VStem: 101.52 383.48
AnchorPoint: "Anchor-14" 0 0 basechar 0
AnchorPoint: "Anchor-13" 495 517 basechar 0
AnchorPoint: "Anchor-12" 353 745 basechar 0
AnchorPoint: "Anchor-11" 423 0 basechar 0
AnchorPoint: "Anchor-10" 250 0 basechar 0
LayerCount: 2
Back
Fore
SplineSet
233 660 m 1x70
 231 661 l 1
 352 745 l 1
 354 745 l 1
 449 661 l 1
 447 660 l 1
 353 743 l 1
 233 660 l 1x70
485 517 m 1
 413 0 l 1
 411 0 l 1x70
 435 167 l 1
 385 52 309 -9 223 -9 c 0xb0
 136 -9 90 46 104 150 c 2
 155 517 l 1
 157 517 l 1
 106 150 l 2
 92 48 137 -7 223 -7 c 0
 310 -7 385 55 435 171 c 1
 483 517 l 1
 485 517 l 1
EndSplineSet
Substitution2: "'smcp' Lowercase to Small Capitals lookup 28 subtable" ucircumflex.sc
Substitution2: "'aalt' Access All Alternates lookup 0 subtable" ucircumflex.sc
EndChar

StartChar: udieresis
Encoding: 252 252 243
Width: 575
GlyphClass: 2
Flags: MW
HStem: -9 21G<180.5 267> 0 21G<412 414 412 412> 497 20G<156 158 158 158 484 486 486 486> 679 12<261 265 410 414>
VStem: 102.52 383.48
AnchorPoint: "Anchor-11" 0 0 basechar 0
AnchorPoint: "Anchor-10" 0 0 basechar 0
AnchorPoint: "Anchor-9" 329 607 basechar 0
AnchorPoint: "Anchor-8" 424 0 basechar 0
LayerCount: 2
Fore
SplineSet
263 691 m 0x78
 267 691 269 688 269 685 c 0
 269 682 267 679 263 679 c 0
 259 679 257 682 257 685 c 0
 257 688 259 691 263 691 c 0x78
412 691 m 0
 416 691 418 688 418 685 c 0
 418 682 416 679 412 679 c 0
 408 679 406 682 406 685 c 0
 406 688 408 691 412 691 c 0
414 0 m 1
 412 0 l 1x78
 436 167 l 1
 386 52 310 -9 224 -9 c 0xb8
 137 -9 91 46 105 150 c 2
 156 517 l 1
 158 517 l 1
 107 150 l 2
 93 48 138 -7 224 -7 c 0
 311 -7 386 55 436 171 c 1
 484 517 l 1
 486 517 l 1
 414 0 l 1
EndSplineSet
Substitution2: "'smcp' Lowercase to Small Capitals lookup 24 subtable" udieresis.sc
Substitution2: "'aalt' Access All Alternates lookup 0 subtable" udieresis.sc
EndChar

StartChar: yacute
Encoding: 253 253 258
Width: 434
GlyphClass: 2
Flags: MW
HStem: -189 21G<-2 -2> 0 21G<186 188 186 186 190 190> 497 20G<66 68 68 68 438 440 440 440>
VStem: -2 442
AnchorPoint: "Anchor-11" 0 0 basechar 0
AnchorPoint: "Anchor-10" 0 0 basechar 0
AnchorPoint: "Anchor-9" 253 517 basechar 0
AnchorPoint: "Anchor-8" 0 0 basechar 0
LayerCount: 2
Fore
SplineSet
364 744 m 1
 185 662 l 1
 185 664 l 1
 363 746 l 1
 364 744 l 1
190 0 m 2
 135 -112 106 -159 -2 -189 c 1
 -2 -187 l 1
 104 -157 133 -112 188 0 c 1
 186 0 l 1
 66 517 l 1
 68 517 l 1
 188 1 l 1
 438 517 l 1
 440 517 l 1
 190 0 l 2
EndSplineSet
Substitution2: "'smcp' Lowercase to Small Capitals lookup 24 subtable" yacute.sc
Substitution2: "'aalt' Access All Alternates lookup 0 subtable" yacute.sc
EndChar
StartChar: thorn
Encoding: 254 254 598
Width: 565
GlyphClass: 2
Flags: MW
HStem: -190 21G<62 62> -9 21G<218 335> 507 20G<299.5 389> 710 20G<191 193 193 193>
VStem: 62 425
LayerCount: 2
Back
Fore
SplineSet
341 527 m 0
 437 527 487 459 487 339 c 0
 487 207 423 -9 247 -9 c 0
 189 -9 149 2 94 26 c 1
 64 -189 l 1
 62 -190 l 1
 191 730 l 1
 193 730 l 1
 150 422 l 1
 199 482 258 527 341 527 c 0
247 -7 m 0
 422 -7 485 208 485 339 c 0
 485 458 436 525 341 525 c 0
 260 525 204 484 149 420 c 1
 94 28 l 1
 151 3 190 -7 247 -7 c 0
EndSplineSet
Substitution2: "'smcp' Lowercase to Small Capitals lookup 28 subtable" thorn.sc
Substitution2: "'aalt' Access All Alternates lookup 0 subtable" thorn.sc
EndChar

StartChar: ydieresis
Encoding: 255 255 260
Width: 434
GlyphClass: 2
Flags: MW
HStem: -189 21G<-2 -2> 0 21G<186 188 186 186 190 190> 497 20G<66 68 68 68 438 440 440 440> 679 12<190 194 339 343>
VStem: -2 442
AnchorPoint: "Anchor-11" 0 0 basechar 0
AnchorPoint: "Anchor-10" 0 0 basechar 0
AnchorPoint: "Anchor-9" 258 607 basechar 0
AnchorPoint: "Anchor-8" 0 0 basechar 0
LayerCount: 2
Fore
SplineSet
192 691 m 0
 196 691 198 688 198 685 c 0
 198 682 196 679 192 679 c 0
 188 679 186 682 186 685 c 0
 186 688 188 691 192 691 c 0
341 691 m 0
 345 691 347 688 347 685 c 0
 347 682 345 679 341 679 c 0
 337 679 335 682 335 685 c 0
 335 688 337 691 341 691 c 0
190 0 m 2
 135 -112 106 -159 -2 -189 c 1
 -2 -187 l 1
 104 -157 133 -112 188 0 c 1
 186 0 l 1
 66 517 l 1
 68 517 l 1
 188 1 l 1
 438 517 l 1
 440 517 l 1
 190 0 l 2
EndSplineSet
Substitution2: "'smcp' Lowercase to Small Capitals lookup 24 subtable" ydieresis.sc
Substitution2: "'aalt' Access All Alternates lookup 0 subtable" ydieresis.sc
EndChar

StartChar: Amacron
Encoding: 256 256 7
Width: 556
GlyphClass: 2
Flags: MW
HStem: 0 21G<-1 1 -1 -1 483 483 483 485> 660 20G<336 337 337 337>
VStem: -1 486<0 0>
AnchorPoint: "Anchor-11" 0 0 basechar 0
AnchorPoint: "Anchor-10" 198 517 basechar 0
AnchorPoint: "Anchor-9" 337 680 basechar 0
AnchorPoint: "Anchor-8" 495 0 basechar 0
LayerCount: 2
Fore
SplineSet
451 815 m 1
 261 815 l 1
 261 817 l 1
 451 817 l 1
 451 815 l 1
436.68 213 m 1
 106.55 213 l 1
 1 0 l 1
 -1 0 l 1
 336 680 l 1
 337 680 l 1
 485 0 l 1
 483 0 l 1
 436.68 213 l 1
436.24 215 m 1
 336 676 l 1
 107.54 215 l 1
 436.24 215 l 1
EndSplineSet
Substitution2: "'c2sc' Capitals to Small Capitals lookup 23 subtable" amacron.sc
Substitution2: "'aalt' Access All Alternates lookup 0 subtable" amacron.sc
Position2: "'cpsp' Capital Spacing lookup 0 subtable" dx=5 dy=0 dh=10 dv=0
EndChar

StartChar: Abreve
Encoding: 258 258 3
Width: 556
GlyphClass: 2
Flags: MW
HStem: 0 21G<-1 1 -1 -1 483 483 483 485> 660 20G<336 337 337 337>
VStem: -1 486<0 0>
AnchorPoint: "Anchor-11" 0 0 basechar 0
AnchorPoint: "Anchor-10" 198 517 basechar 0
AnchorPoint: "Anchor-9" 337 680 basechar 0
AnchorPoint: "Anchor-8" 495 0 basechar 0
LayerCount: 2
Fore
SplineSet
346 774 m 0
 291 774 265 805 258 834 c 1
 260 835 l 1
 268 801 298 776 346 776 c 0
 394 776 430 801 448 835 c 1
 450 834 l 1
 435 805 401 774 346 774 c 0
436.68 213 m 1
 106.55 213 l 1
 1 0 l 1
 -1 0 l 1
 336 680 l 1
 337 680 l 1
 485 0 l 1
 483 0 l 1
 436.68 213 l 1
436.24 215 m 1
 336 676 l 1
 107.54 215 l 1
 436.24 215 l 1
EndSplineSet
Substitution2: "'c2sc' Capitals to Small Capitals lookup 23 subtable" abreve.sc
Substitution2: "'aalt' Access All Alternates lookup 0 subtable" abreve.sc
Position2: "'cpsp' Capital Spacing lookup 0 subtable" dx=5 dy=0 dh=10 dv=0
EndChar

StartChar: abreve
Encoding: 259 259 136
Width: 539
GlyphClass: 2
Flags: MW
HStem: -9 21G<178 259 442 442> -7 21G<178.5 259 443 443> 507 20G<238 362> 525 141<330.5 361.5> 716 20G<272 272 464 464>
VStem: 399.14 42.86
AnchorPoint: "Anchor-11" 0 0 basechar 0
AnchorPoint: "Anchor-10" 0 0 basechar 0
AnchorPoint: "Anchor-9" 337 517 basechar 0
AnchorPoint: "Anchor-8" 452 -9 basechar 0
LayerCount: 2
Fore
SplineSet
358 668 m 0x5c
 310 668 280 693 274 737 c 1
 272 736 l 1
 277 698 303 666 358 666 c 0
 413 666 447 698 464 736 c 1
 462 737 l 1
 443 693 406 668 358 668 c 0x5c
337 527 m 0xac
 387 527 428 511 462 487 c 1
 406 121 l 2
 403 99 401 81 401 65 c 0
 401 28 413 4 443 -7 c 1
 442 -9 l 1x6c
 388 12 398 71 404 118 c 1
 357 31 291 -9 227 -9 c 0
 129 -9 74 72 74 183 c 0
 74 326 139 527 337 527 c 0xac
337 525 m 0x5c
 140 525 76 325 76 183 c 0
 76 73 130 -7 227 -7 c 0
 291 -7 357 34 404 121 c 1
 460 486 l 1
 426 510 386 525 337 525 c 0x5c
EndSplineSet
Substitution2: "'smcp' Lowercase to Small Capitals lookup 24 subtable" abreve.sc
Substitution2: "'aalt' Access All Alternates lookup 0 subtable" abreve.sc
EndChar

StartChar: Aogonek
Encoding: 260 260 8
Width: 556
GlyphClass: 2
Flags: MW
HStem: -194 21G 0 21G<-1 1 -1 -1 485 485> 0.600006 21G 660 20G<336 337 337 337>
VStem: -1 486<0 0>
AnchorPoint: "Anchor-11" 0 0 basechar 0
AnchorPoint: "Anchor-10" 198 517 basechar 0
AnchorPoint: "Anchor-9" 337 680 basechar 0
AnchorPoint: "Anchor-8" 495 0 basechar 0
LayerCount: 2
Fore
SplineSet
332 -132 m 0xb8
 332 -173 358.989 -192.001 397.989 -192.001 c 0
 415.989 -192.001 428.989 -190.001 451.989 -184.001 c 1
 450.989 -186.001 l 1
 428.989 -192.001 415.989 -194.001 396.989 -194.001 c 0
 356.989 -194.001 329.989 -174.001 329.989 -132.001 c 0
 329.989 -62.3809 414.069 -23.4307 482.859 0.599609 c 1xb8
 436.68 213 l 1
 106.55 213 l 1
 1 0 l 1
 -1 0 l 1
 336 680 l 1
 337 680 l 1
 485 0 l 1xd8
 388 -34 332 -75 332 -132 c 0xb8
436.239 214.999 m 1
 335.989 675.999 l 1
 107.539 214.999 l 1
 436.239 214.999 l 1
EndSplineSet
Substitution2: "'c2sc' Capitals to Small Capitals lookup 23 subtable" aogonek.sc
Substitution2: "'aalt' Access All Alternates lookup 0 subtable" aogonek.sc
Position2: "'cpsp' Capital Spacing lookup 0 subtable" dx=5 dy=0 dh=10 dv=0
EndChar
StartChar: aogonek
Encoding: 261 261 362
Width: 539
GlyphClass: 2
Flags: MW
HStem: -195 21G<408 408> -9 21G<178 259 442 442> -8 21G -7 21G<178.5 259 443 443> 507 20G<238 362>
VStem: 398.78 43.72
AnchorPoint: "Anchor-14" 0 0 basechar 0
AnchorPoint: "Anchor-13" 0 0 basechar 0
AnchorPoint: "Anchor-12" 336 517 basechar 0
AnchorPoint: "Anchor-11" 452 -9 basechar 0
AnchorPoint: "Anchor-10" 257 0 basechar 0
LayerCount: 2
Back
Fore
SplineSet
401 65 m 0x9c
 401 28 413 4 443 -7 c 1
 442 -9 l 1x9c
 345 -43 289 -84 289 -141 c 0
 289 -182 316 -201 355 -201 c 0
 373 -201 386 -199 409 -193 c 1
 408 -195 l 1
 386 -201 373 -203 354 -203 c 0
 314 -203 287 -183 287 -141 c 0
 287 -71 371 -32 440 -8 c 1xac
 388 13 398 72 403 116 c 1
 357 31 291 -9 227 -9 c 0xcc
 129 -9 74 72 74 183 c 0
 74 326 139 527 337 527 c 0
 387 527 428 511 462 487 c 1
 406 121 l 2
 403 99 401 81 401 65 c 0x9c
227 -7 m 0
 291 -7 357 34 404 121 c 1
 460 486 l 1
 426 510 386 525 337 525 c 0
 140 525 76 325 76 183 c 0
 76 73 130 -7 227 -7 c 0
EndSplineSet
Substitution2: "'smcp' Lowercase to Small Capitals lookup 28 subtable" aogonek.sc
Substitution2: "'aalt' Access All Alternates lookup 0 subtable" aogonek.sc
EndChar
StartChar: Cacute
Encoding: 262 262 43
Width: 530
GlyphClass: 2
Flags: MW
HStem: -9 21G<239 346> 670 20G<284.5 440>
VStem: 91 456<168 633>
AnchorPoint: "Anchor-14" 0 0 basechar 0
AnchorPoint: "Anchor-13" 0 0 basechar 0
AnchorPoint: "Anchor-12" 423 842 basechar 0
AnchorPoint: "Anchor-11" 0 0 basechar 0
AnchorPoint: "Anchor-10" 306 0 basechar 0
LayerCount: 2
Back
Fore
SplineSet
508 842 m 1
 509 840 l 1
 334 771 l 1
 333 773 l 1
 508 842 l 1
403 690 m 0
 477 690 517 664 547 633 c 1
 546 631 l 1
 514 663 478 688 403 688 c 0
 166 688 93 424 93 253 c 0
 93 84 175 -7 305 -7 c 0
 386 -7 438 25 474 52 c 1
 475 50 l 1
 439 23 387 -9 305 -9 c 0
 173 -9 91 83 91 253 c 0
 91 429 166 690 403 690 c 0
EndSplineSet
Substitution2: "'c2sc' Capitals to Small Capitals lookup 27 subtable" cacute.sc
Substitution2: "'locl' Localized Forms in Latin lookup 7 subtable" Cacute.loclPLK
AlternateSubs2: "'aalt' Access All Alternates lookup 1 subtable" Cacute.loclPLK cacute.sc
Position2: "'cpsp' Capital Spacing lookup 0 subtable" dx=5 dy=0 dh=10 dv=0
EndChar

StartChar: cacute
Encoding: 263 263 148
Width: 469
GlyphClass: 2
Flags: MW
HStem: -9 21G<185.5 273.5> 507 20G<256 345.5>
VStem: 75.39 365.61
AnchorPoint: "Anchor-11" 249 -1 basechar 0
AnchorPoint: "Anchor-10" 0 0 basechar 0
AnchorPoint: "Anchor-9" 305 517 basechar 0
AnchorPoint: "Anchor-8" 0 0 basechar 0
LayerCount: 2
Fore
SplineSet
416 744 m 1
 237 662 l 1
 237 664 l 1
 415 746 l 1
 416 744 l 1
319 527 m 0
 372 527 410 510 441 477 c 1
 439 476 l 1
 408 509 370 525 319 525 c 0
 195 525 105 424 82 256 c 0
 58 88 129 -7 243 -7 c 0
 302 -7 344 14 383 45 c 1
 384 44 l 1
 346 13 304 -9 243 -9 c 0
 128 -9 56 86 80 256 c 0
 104 426 193 527 319 527 c 0
EndSplineSet
Substitution2: "'smcp' Lowercase to Small Capitals lookup 24 subtable" cacute.sc
Substitution2: "'locl' Localized Forms in Latin lookup 7 subtable" cacute.loclPLK
AlternateSubs2: "'aalt' Access All Alternates lookup 1 subtable" cacute.loclPLK cacute.sc
EndChar
StartChar: Ccircumflex
Encoding: 264 264 46
Width: 530
GlyphClass: 2
Flags: MW
HStem: -9 21G<239 346> 670 20G<284.5 440>
VStem: 91 456<168 633>
AnchorPoint: "Anchor-14" 0 0 basechar 0
AnchorPoint: "Anchor-13" 480 700 basechar 0
AnchorPoint: "Anchor-12" 424 850 basechar 0
AnchorPoint: "Anchor-11" 0 0 basechar 0
AnchorPoint: "Anchor-10" 306 0 basechar 0
LayerCount: 2
Back
Fore
SplineSet
521 770 m 1
 424 848 l 1
 307 770 l 1
 305 771 l 1
 423 850 l 1
 425 850 l 1
 523 771 l 1
 521 770 l 1
403 690 m 0
 477 690 517 664 547 633 c 1
 546 631 l 1
 514 663 478 688 403 688 c 0
 166 688 93 424 93 253 c 0
 93 84 175 -7 305 -7 c 0
 386 -7 438 25 474 52 c 1
 475 50 l 1
 439 23 387 -9 305 -9 c 0
 173 -9 91 83 91 253 c 0
 91 429 166 690 403 690 c 0
EndSplineSet
Substitution2: "'c2sc' Capitals to Small Capitals lookup 27 subtable" ccircumflex.sc
Substitution2: "'aalt' Access All Alternates lookup 0 subtable" ccircumflex.sc
Position2: "'cpsp' Capital Spacing lookup 0 subtable" dx=5 dy=0 dh=10 dv=0
EndChar
StartChar: ccircumflex
Encoding: 265 265 384
Width: 469
GlyphClass: 2
Flags: MW
HStem: -9 21G<193 273.5> 507 20G<239.5 345.5>
VStem: 76 365<128 477>
AnchorPoint: "Anchor-14" 0 0 basechar 0
AnchorPoint: "Anchor-13" 0 0 basechar 0
AnchorPoint: "Anchor-12" 338 745 basechar 0
AnchorPoint: "Anchor-11" 0 0 basechar 0
AnchorPoint: "Anchor-10" 249 -1 basechar 0
LayerCount: 2
Back
Fore
SplineSet
218 660 m 1
 216 661 l 1
 337 745 l 1
 339 745 l 1
 434 661 l 1
 432 660 l 1
 338 743 l 1
 218 660 l 1
319 527 m 0
 372 527 410 510 441 477 c 1
 439 476 l 1
 408 509 370 525 319 525 c 0
 161 525 78 363 78 194 c 0
 78 63 144 -7 243 -7 c 0
 302 -7 344 14 383 45 c 1
 384 44 l 1
 346 13 304 -9 243 -9 c 0
 143 -9 76 62 76 194 c 0
 76 364 160 527 319 527 c 0
EndSplineSet
Substitution2: "'smcp' Lowercase to Small Capitals lookup 28 subtable" ccircumflex.sc
Substitution2: "'aalt' Access All Alternates lookup 0 subtable" ccircumflex.sc
EndChar

StartChar: Cdotaccent
Encoding: 266 266 19
Width: 530
GlyphClass: 2
Flags: MW
HStem: -9 21G<239 346> 670 20G<284.5 440> 820 12<421 425>
VStem: 91 456<168 633>
AnchorPoint: "Anchor-11" 306 0 basechar 0
AnchorPoint: "Anchor-10" 0 0 basechar 0
AnchorPoint: "Anchor-9" 403 680 basechar 0
AnchorPoint: "Anchor-8" 0 0 basechar 0
LayerCount: 2
Fore
SplineSet
423 832 m 0
 427 832 429 829 429 826 c 0
 429 823 427 820 423 820 c 0
 419 820 417 823 417 826 c 0
 417 829 419 832 423 832 c 0
403 690 m 0
 477 690 517 664 547 633 c 1
 546 631 l 1
 514 663 478 688 403 688 c 0
 166 688 93 424 93 253 c 0
 93 84 175 -7 305 -7 c 0
 386 -7 438 25 474 52 c 1
 475 50 l 1
 439 23 387 -9 305 -9 c 0
 173 -9 91 83 91 253 c 0
 91 429 166 690 403 690 c 0
EndSplineSet
Substitution2: "'c2sc' Capitals to Small Capitals lookup 23 subtable" cdotaccent.sc
Substitution2: "'aalt' Access All Alternates lookup 0 subtable" cdotaccent.sc
Position2: "'cpsp' Capital Spacing lookup 0 subtable" dx=5 dy=0 dh=10 dv=0
EndChar

StartChar: cdotaccent
Encoding: 267 267 152
Width: 469
GlyphClass: 2
Flags: MW
HStem: -9 21G<185.5 273.5> 507 20G<256 345.5> 694 12<328 332>
VStem: 75.39 365.61
AnchorPoint: "Anchor-11" 249 -1 basechar 0
AnchorPoint: "Anchor-10" 0 0 basechar 0
AnchorPoint: "Anchor-9" 305 517 basechar 0
AnchorPoint: "Anchor-8" 0 0 basechar 0
LayerCount: 2
Fore
SplineSet
330 706 m 0
 334 706 336 703 336 700 c 0
 336 697 334 694 330 694 c 0
 326 694 324 697 324 700 c 0
 324 703 326 706 330 706 c 0
319 527 m 0
 372 527 410 510 441 477 c 1
 439 476 l 1
 408 509 370 525 319 525 c 0
 195 525 105 424 82 256 c 0
 58 88 129 -7 243 -7 c 0
 302 -7 344 14 383 45 c 1
 384 44 l 1
 346 13 304 -9 243 -9 c 0
 128 -9 56 86 80 256 c 0
 104 426 193 527 319 527 c 0
EndSplineSet
Substitution2: "'smcp' Lowercase to Small Capitals lookup 24 subtable" cdotaccent.sc
Substitution2: "'aalt' Access All Alternates lookup 0 subtable" cdotaccent.sc
EndChar

StartChar: Ccaron
Encoding: 268 268 16
Width: 530
GlyphClass: 2
Flags: MW
HStem: -9 21G<239 346> 670 20G<284.5 440> 688 79<409 409 409 440.5>
VStem: 91 456<168 633>
AnchorPoint: "Anchor-11" 306 0 basechar 0
AnchorPoint: "Anchor-10" 0 0 basechar 0
AnchorPoint: "Anchor-9" 403 680 basechar 0
AnchorPoint: "Anchor-8" 0 0 basechar 0
LayerCount: 2
Fore
SplineSet
530 844 m 1xb0
 410 765 l 1
 408 765 l 1
 312 844 l 1
 314 845 l 1
 409 767 l 1
 528 845 l 1
 530 844 l 1xb0
403 690 m 0xd0
 477 690 517 664 547 633 c 1
 546 631 l 1
 514 663 478 688 403 688 c 0xb0
 166 688 93 424 93 253 c 0
 93 84 175 -7 305 -7 c 0
 386 -7 438 25 474 52 c 1
 475 50 l 1
 439 23 387 -9 305 -9 c 0
 173 -9 91 83 91 253 c 0
 91 429 166 690 403 690 c 0xd0
EndSplineSet
Substitution2: "'c2sc' Capitals to Small Capitals lookup 23 subtable" ccaron.sc
Substitution2: "'aalt' Access All Alternates lookup 0 subtable" ccaron.sc
Position2: "'cpsp' Capital Spacing lookup 0 subtable" dx=5 dy=0 dh=10 dv=0
EndChar

StartChar: ccaron
Encoding: 269 269 149
Width: 469
GlyphClass: 2
Flags: MW
HStem: -9 21G<185.5 273.5> 507 20G<256 345.5> 713 20G<232 232 446 446>
VStem: 75.39 372.61
AnchorPoint: "Anchor-11" 249 -1 basechar 0
AnchorPoint: "Anchor-10" 0 0 basechar 0
AnchorPoint: "Anchor-9" 305 517 basechar 0
AnchorPoint: "Anchor-8" 0 0 basechar 0
LayerCount: 2
Fore
SplineSet
448 732 m 1
 327 648 l 1
 325 648 l 1
 230 732 l 1
 232 733 l 1
 326 650 l 1
 446 733 l 1
 448 732 l 1
319 527 m 0
 372 527 410 510 441 477 c 1
 439 476 l 1
 408 509 370 525 319 525 c 0
 195 525 105 424 82 256 c 0
 58 88 129 -7 243 -7 c 0
 302 -7 344 14 383 45 c 1
 384 44 l 1
 346 13 304 -9 243 -9 c 0
 128 -9 56 86 80 256 c 0
 104 426 193 527 319 527 c 0
EndSplineSet
Substitution2: "'smcp' Lowercase to Small Capitals lookup 24 subtable" ccaron.sc
Substitution2: "'aalt' Access All Alternates lookup 0 subtable" ccaron.sc
EndChar
StartChar: Dcaron
Encoding: 270 270 55
Width: 613
GlyphClass: 2
Flags: MW
HStem: 0 21G<94 205 94 94> 660 20G<189 293 293 357>
VStem: 94 453<0 537>
AnchorPoint: "Anchor-14" 321 340 basechar 0
AnchorPoint: "Anchor-13" 0 0 basechar 0
AnchorPoint: "Anchor-12" 368 845 basechar 0
AnchorPoint: "Anchor-11" 0 0 basechar 0
AnchorPoint: "Anchor-10" 252 0 basechar 0
LayerCount: 2
Back
Fore
SplineSet
473 845 m 1
 475 844 l 1
 355 765 l 1
 353 765 l 1
 257 844 l 1
 259 845 l 1
 354 767 l 1
 473 845 l 1
293 680 m 2
 421 680 547 638 547 436 c 0
 547 233 461 0 205 0 c 2
 94 0 l 1
 189 680 l 1
 293 680 l 2
293 678 m 2
 191 678 l 1
 96 2 l 1
 205 2 l 2
 459 2 545 234 545 436 c 0
 545 636 420 678 293 678 c 2
EndSplineSet
Substitution2: "'c2sc' Capitals to Small Capitals lookup 27 subtable" dcaron.sc
Substitution2: "'aalt' Access All Alternates lookup 0 subtable" dcaron.sc
Position2: "'cpsp' Capital Spacing lookup 0 subtable" dx=5 dy=0 dh=10 dv=0
EndChar

StartChar: dcaron
Encoding: 271 271 155
Width: 572
GlyphClass: 2
Flags: MW
HStem: -9 21G<183.999 277.574> 0 21G<408.999 410.999 408.999 408.999> 507 20G<228.499 361.034> 710 20G<511 513 513 513> 717 20G<625 627 627 627>
VStem: 80 547
LayerCount: 2
Fore
SplineSet
627 737 m 1x6c
 589 600 l 1
 587 600 l 1
 625 737 l 1
 627 737 l 1x6c
513 730 m 1xb4
 410.999 0 l 1
 408.999 0 l 1x6c
 429.999 149 l 1
 382.999 65 326.149 -9 228.999 -9 c 0
 138.999 -9 79.999 61 79.999 182 c 0
 79.999 315 138.999 527 317.999 527 c 0
 404.069 527 450.01 473.16 468.41 423.59 c 1
 511 730 l 1
 513 730 l 1xb4
317.999 525 m 0
 139.999 525 81.999 314 81.999 182 c 0
 81.999 62 139.999 -7 228.999 -7 c 0
 326.389 -7 382.999 68 429.999 152 c 1
 467.999 420 l 1
 447.999 474 402.729 525 317.999 525 c 0
EndSplineSet
Substitution2: "'smcp' Lowercase to Small Capitals lookup 24 subtable" dcaron.sc
Substitution2: "'aalt' Access All Alternates lookup 0 subtable" dcaron.sc
EndChar
StartChar: dcroat
Encoding: 273 273 395
Width: 572
GlyphClass: 2
Flags: MW
HStem: -9 21G<183 276.5> 0 21G<408 410 408 408> 507 20G<227.5 360> 525 115<317 359.5> 638 92<317 512 510 512 510 574 499 512>
VStem: 79 495<121.5 640>
AnchorPoint: "Anchor-14" 288 259 basechar 0
AnchorPoint: "Anchor-13" 561 727 basechar 0
AnchorPoint: "Anchor-12" 344 727 basechar 0
AnchorPoint: "Anchor-11" 0 0 basechar 0
AnchorPoint: "Anchor-10" 252 0 basechar 0
LayerCount: 2
Back
Fore
SplineSet
574 640 m 1x54
 574 638 l 1x54
 499 638 l 1
 410 0 l 1
 408 0 l 1x6c
 429 149 l 1
 382 65 325 -9 228 -9 c 0
 138 -9 79 61 79 182 c 0
 79 315 138 527 317 527 c 0
 403 527 449 473 467 424 c 1
 497 638 l 1xac
 317 638 l 1
 317 640 l 1
 497 640 l 1x54
 510 730 l 1
 512 730 l 1x6c
 499 640 l 1
 574 640 l 1x54
429 152 m 1
 467 420 l 1
 447 474 402 525 317 525 c 0
 139 525 81 314 81 182 c 0
 81 62 139 -7 228 -7 c 0
 325 -7 382 68 429 152 c 1
EndSplineSet
Substitution2: "'smcp' Lowercase to Small Capitals lookup 28 subtable" dcroat.sc
Substitution2: "'aalt' Access All Alternates lookup 0 subtable" dcroat.sc
EndChar

StartChar: Emacron
Encoding: 274 274 32
Width: 495
GlyphClass: 2
Flags: MW
HStem: 0 21G<94 409 94 94> 360 320<189 407 147 494> 678 139<267 457 267 494 191 457>
VStem: 94 400
AnchorPoint: "Anchor-11" 248 0 basechar 0
AnchorPoint: "Anchor-10" 88 517 basechar 0
AnchorPoint: "Anchor-9" 343 680 basechar 0
AnchorPoint: "Anchor-8" 389 0 basechar 0
LayerCount: 2
Fore
SplineSet
267 815 m 1xb0
 267 817 l 1
 457 817 l 1
 457 815 l 1
 267 815 l 1xb0
494 678 m 1
 191 678 l 1xb0
 147 362 l 1
 407 362 l 1
 407 360 l 1
 147 360 l 1
 96 2 l 1
 409 2 l 1
 409 0 l 1
 94 0 l 1
 189 680 l 1xd0
 494 680 l 1
 494 678 l 1
EndSplineSet
Substitution2: "'c2sc' Capitals to Small Capitals lookup 23 subtable" emacron.sc
Substitution2: "'aalt' Access All Alternates lookup 0 subtable" emacron.sc
Position2: "'cpsp' Capital Spacing lookup 0 subtable" dx=5 dy=0 dh=10 dv=0
EndChar
StartChar: emacron
Encoding: 275 275 427
Width: 520
GlyphClass: 2
Flags: MW
HStem: -9 21G<188 271.5> 507 20G<229 362.5> 525 166<237.5 362>
VStem: 75 390<125.5 451>
AnchorPoint: "Anchor-14" 0 0 basechar 0
AnchorPoint: "Anchor-13" 0 0 basechar 0
AnchorPoint: "Anchor-12" 334 691 basechar 0
AnchorPoint: "Anchor-11" 344 10 basechar 0
AnchorPoint: "Anchor-10" 234 0 basechar 0
LayerCount: 2
Back
Fore
SplineSet
427 691 m 1xb0
 427 689 l 1
 237 689 l 1
 237 691 l 1
 427 691 l 1xb0
465 414 m 0
 465 306 348 231 78 218 c 1
 77 208 77 199 77 190 c 0
 77 62 138 -7 239 -7 c 0
 304 -7 348 14 400 52 c 1
 401 50 l 1
 349 12 304 -9 239 -9 c 0
 137 -9 75 61 75 190 c 0
 75 310 133 527 325 527 c 0xd0
 400 527 465 488 465 414 c 0
325 525 m 0
 150 525 87 343 78 220 c 1
 348 233 463 308 463 414 c 0
 463 487 399 525 325 525 c 0
EndSplineSet
Substitution2: "'smcp' Lowercase to Small Capitals lookup 28 subtable" emacron.sc
Substitution2: "'aalt' Access All Alternates lookup 0 subtable" emacron.sc
EndChar

StartChar: Ebreve
Encoding: 276 276 26
Width: 495
GlyphClass: 2
Flags: MW
HStem: 0 21G<94 409 94 94> 360 320<189 407 147 494> 678 96<324.5 379.5 324.5 494>
VStem: 94 400
AnchorPoint: "Anchor-11" 248 0 basechar 0
AnchorPoint: "Anchor-10" 88 517 basechar 0
AnchorPoint: "Anchor-9" 343 680 basechar 0
AnchorPoint: "Anchor-8" 389 0 basechar 0
LayerCount: 2
Fore
SplineSet
352 776 m 0xb0
 304 776 274 801 266 835 c 1
 264 834 l 1
 271 805 297 774 352 774 c 0
 407 774 441 805 456 834 c 1
 454 835 l 1
 436 801 400 776 352 776 c 0xb0
494 678 m 1
 191 678 l 1xb0
 147 362 l 1
 407 362 l 1
 407 360 l 1
 147 360 l 1
 96 2 l 1
 409 2 l 1
 409 0 l 1
 94 0 l 1
 189 680 l 1xd0
 494 680 l 1
 494 678 l 1
EndSplineSet
Substitution2: "'c2sc' Capitals to Small Capitals lookup 23 subtable" ebreve.sc
Substitution2: "'aalt' Access All Alternates lookup 0 subtable" ebreve.sc
Position2: "'cpsp' Capital Spacing lookup 0 subtable" dx=5 dy=0 dh=10 dv=0
EndChar

StartChar: ebreve
Encoding: 277 277 159
Width: 529
GlyphClass: 2
Flags: MW
HStem: -9 21G<188 271.5> 507 20G<229 362.5> 524.99 143 717 20G<245 245 433 433>
VStem: 75 390<125.5 451>
AnchorPoint: "Anchor-11" 229 0 basechar 0
AnchorPoint: "Anchor-10" 0 0 basechar 0
AnchorPoint: "Anchor-9" 308 517 basechar 0
AnchorPoint: "Anchor-8" 344 10 basechar 0
LayerCount: 2
Fore
SplineSet
329 666 m 0xd8
 274 666 248 698 243 736 c 1
 245 737 l 1
 251 693 281 668 329 668 c 0xb8
 377 668 414 693 433 737 c 1
 435 736 l 1
 418 698 384 666 329 666 c 0xd8
465 414 m 0
 465 306.13 348.279 231.18 77.9795 218.04 c 1
 77.3096 208.26 77 198.87 77 190 c 0
 77 62 138 -7 239 -7 c 0
 304 -7 348 14 400 52 c 1
 401 50 l 1
 349 12 304 -9 239 -9 c 0
 137 -9 75 61 75 190 c 0
 75 310 133 527 325 527 c 0
 400 527 465 488 465 414 c 0
324.999 525 m 0xb8
 150.009 525 86.9785 342.608 78.1182 220.049 c 1
 348.309 233.199 462.999 308.14 462.999 414 c 0
 462.999 487 398.999 525 324.999 525 c 0xb8
EndSplineSet
Substitution2: "'smcp' Lowercase to Small Capitals lookup 24 subtable" ebreve.sc
Substitution2: "'aalt' Access All Alternates lookup 0 subtable" ebreve.sc
EndChar
StartChar: Edotaccent
Encoding: 278 278 78
Width: 495
GlyphClass: 2
Flags: MW
HStem: 0 21G<94 409 94 94> 360 320<189 407 147 494> 820 12<362 366>
VStem: 94 400
AnchorPoint: "Anchor-14" 0 0 basechar 0
AnchorPoint: "Anchor-13" 0 0 basechar 0
AnchorPoint: "Anchor-12" 364 832 basechar 0
AnchorPoint: "Anchor-11" 389 0 basechar 0
AnchorPoint: "Anchor-10" 248 0 basechar 0
LayerCount: 2
Back
Fore
SplineSet
364 832 m 0
 368 832 370 829 370 826 c 0
 370 823 368 820 364 820 c 0
 360 820 358 823 358 826 c 0
 358 829 360 832 364 832 c 0
494 680 m 1
 494 678 l 1
 191 678 l 1
 147 362 l 1
 407 362 l 1
 407 360 l 1
 147 360 l 1
 96 2 l 1
 409 2 l 1
 409 0 l 1
 94 0 l 1
 189 680 l 1
 494 680 l 1
EndSplineSet
Substitution2: "'c2sc' Capitals to Small Capitals lookup 27 subtable" edotaccent.sc
Substitution2: "'aalt' Access All Alternates lookup 0 subtable" edotaccent.sc
Position2: "'cpsp' Capital Spacing lookup 0 subtable" dx=5 dy=0 dh=10 dv=0
EndChar
StartChar: edotaccent
Encoding: 279 279 422
Width: 520
GlyphClass: 2
Flags: MW
HStem: -9 21G<188 271.5> 507 20G<229 362.5> 694 12<332 336>
VStem: 75 390<125.5 451>
AnchorPoint: "Anchor-14" 0 0 basechar 0
AnchorPoint: "Anchor-13" 0 0 basechar 0
AnchorPoint: "Anchor-12" 335 706 basechar 0
AnchorPoint: "Anchor-11" 344 10 basechar 0
AnchorPoint: "Anchor-10" 234 0 basechar 0
LayerCount: 2
Back
Fore
SplineSet
334 694 m 0
 330 694 328 697 328 700 c 0
 328 703 330 706 334 706 c 0
 338 706 340 703 340 700 c 0
 340 697 338 694 334 694 c 0
465 414 m 0
 465 306 348 231 78 218 c 1
 77 208 77 199 77 190 c 0
 77 62 138 -7 239 -7 c 0
 304 -7 348 14 400 52 c 1
 401 50 l 1
 349 12 304 -9 239 -9 c 0
 137 -9 75 61 75 190 c 0
 75 310 133 527 325 527 c 0
 400 527 465 488 465 414 c 0
325 525 m 0
 150 525 87 343 78 220 c 1
 348 233 463 308 463 414 c 0
 463 487 399 525 325 525 c 0
EndSplineSet
Substitution2: "'smcp' Lowercase to Small Capitals lookup 28 subtable" edotaccent.sc
Substitution2: "'aalt' Access All Alternates lookup 0 subtable" edotaccent.sc
EndChar

StartChar: Eogonek
Encoding: 280 280 33
Width: 495
GlyphClass: 2
Flags: MW
HStem: -194 196<271 300.5> 0 21G<94 375.14 94 94 379 409 379 379> 360 320<189 407 147 494>
VStem: 94 400
AnchorPoint: "Anchor-11" 248 0 basechar 0
AnchorPoint: "Anchor-10" 88 517 basechar 0
AnchorPoint: "Anchor-9" 343 680 basechar 0
AnchorPoint: "Anchor-8" 389 0 basechar 0
LayerCount: 2
Fore
SplineSet
191 678 m 1xb0
 147 362 l 1
 407 362 l 1
 407 360 l 1
 147 360 l 1
 96 2 l 1xb0
 409 2 l 1
 409 0 l 1
 379 0 l 1x70
 282 -34 226 -75 226 -132 c 0
 226 -173 253 -192 292 -192 c 0
 310 -192 323 -190 346 -184 c 1
 345 -186 l 1
 323 -192 310 -194 291 -194 c 0
 251 -194 224 -174 224 -132 c 0xb0
 224 -62.9697 306.67 -24.0801 375.14 0 c 1
 94 0 l 1x70
 189 680 l 1
 494 680 l 1
 494 678 l 1
 191 678 l 1xb0
EndSplineSet
Substitution2: "'c2sc' Capitals to Small Capitals lookup 23 subtable" eogonek.sc
Substitution2: "'aalt' Access All Alternates lookup 0 subtable" eogonek.sc
Position2: "'cpsp' Capital Spacing lookup 0 subtable" dx=5 dy=0 dh=10 dv=0
EndChar

StartChar: eogonek
Encoding: 281 281 166
Width: 529
GlyphClass: 2
Flags: MW
HStem: -184 176.99 -9 21G<188 250.455> -1.35001 21G 507 20G<229 362.5>
VStem: 75 390.01
AnchorPoint: "Anchor-11" 229 0 basechar 0
AnchorPoint: "Anchor-10" 0 0 basechar 0
AnchorPoint: "Anchor-9" 308 517 basechar 0
AnchorPoint: "Anchor-8" 344 10 basechar 0
LayerCount: 2
Fore
SplineSet
465 413.99 m 0x38
 465 306.12 348.288 231.159 77.9883 218.029 c 1
 77.3184 208.239 77.0088 198.85 77.0088 189.979 c 0
 77.0088 61.9795 138.009 -7.02051 239.009 -7.02051 c 0
 304.009 -7.02051 348.009 13.9795 400.009 51.9795 c 1
 401.009 49.9795 l 1
 378.079 33.2295 356.52 19.7891 334 9.98926 c 0
 327.1 6.97949 320.109 4.31934 312.959 2.00977 c 0
 260.129 -19.29 198.999 -54.5898 198.999 -110.01 c 0
 198.999 -158.01 229.999 -182.01 273.999 -182.01 c 0
 291.999 -182.01 304.999 -180.01 326.999 -174.01 c 1
 326.999 -176.01 l 1
 304.999 -182.01 292.999 -184.01 273.999 -184.01 c 0
 228.999 -184.01 196.999 -159.01 196.999 -110.01 c 0x98
 196.999 -57.5996 248.899 -23.8691 301.47 -1.34961 c 1
 282.34 -6.38965 261.91 -9 239 -9 c 0x58
 137 -9 75 61 75 190 c 0
 75 310 133 527 325 527 c 0
 400 527 465 488 465 413.99 c 0x38
325.008 524.979 m 0
 150.018 524.979 86.9873 342.589 78.127 220.029 c 1
 348.317 233.189 463.008 308.13 463.008 413.979 c 0
 463.008 486.979 399.008 524.979 325.008 524.979 c 0
EndSplineSet
Substitution2: "'smcp' Lowercase to Small Capitals lookup 24 subtable" eogonek.sc
Substitution2: "'aalt' Access All Alternates lookup 0 subtable" eogonek.sc
EndChar

StartChar: Ecaron
Encoding: 282 282 27
Width: 495
GlyphClass: 2
Flags: MW
HStem: 0 21G<94 409 94 94> 360 320<189 407 147 494> 678 89<349 349 349 494>
VStem: 94 400
AnchorPoint: "Anchor-11" 248 0 basechar 0
AnchorPoint: "Anchor-10" 88 517 basechar 0
AnchorPoint: "Anchor-9" 343 680 basechar 0
AnchorPoint: "Anchor-8" 389 0 basechar 0
LayerCount: 2
Fore
SplineSet
470 844 m 1xb0
 350 765 l 1
 348 765 l 1
 252 844 l 1
 254 845 l 1
 349 767 l 1
 468 845 l 1
 470 844 l 1xb0
494 678 m 1
 191 678 l 1xb0
 147 362 l 1
 407 362 l 1
 407 360 l 1
 147 360 l 1
 96 2 l 1
 409 2 l 1
 409 0 l 1
 94 0 l 1
 189 680 l 1xd0
 494 680 l 1
 494 678 l 1
EndSplineSet
Substitution2: "'c2sc' Capitals to Small Capitals lookup 23 subtable" ecaron.sc
Substitution2: "'aalt' Access All Alternates lookup 0 subtable" ecaron.sc
Position2: "'cpsp' Capital Spacing lookup 0 subtable" dx=5 dy=0 dh=10 dv=0
EndChar
StartChar: Gcircumflex
Encoding: 284 284 101
Width: 600
GlyphClass: 2
Flags: MW
HStem: -9 21G<246.5 352> 670 20G<296.5 435>
VStem: 91 463<169.5 635>
AnchorPoint: "Anchor-14" 0 0 basechar 0
AnchorPoint: "Anchor-13" 474 700 basechar 0
AnchorPoint: "Anchor-12" 418 850 basechar 0
AnchorPoint: "Anchor-11" 0 0 basechar 0
AnchorPoint: "Anchor-10" 303 0 basechar 0
LayerCount: 2
Back
Fore
SplineSet
515 770 m 1
 418 848 l 1
 301 770 l 1
 299 771 l 1
 417 850 l 1
 419 850 l 1
 517 771 l 1
 515 770 l 1
404 690 m 0
 466 690 510 671 554 635 c 1
 553 633 l 1
 509 669 465 688 404 688 c 0
 188 688 93 444 93 256 c 0
 93 84 177 -7 317 -7 c 0
 388 -7 444 17 487 40 c 1
 530 340 l 1
 379 340 l 1
 379 342 l 1
 532 342 l 1
 489 39 l 1
 445 15 387 -9 317 -9 c 0
 176 -9 91 83 91 256 c 0
 91 450 189 690 404 690 c 0
EndSplineSet
Substitution2: "'c2sc' Capitals to Small Capitals lookup 27 subtable" gcircumflex.sc
Substitution2: "'aalt' Access All Alternates lookup 0 subtable" gcircumflex.sc
Position2: "'cpsp' Capital Spacing lookup 0 subtable" dx=5 dy=0 dh=10 dv=0
EndChar

StartChar: gcircumflex
Encoding: 285 285 170
Width: 549
GlyphClass: 2
Flags: MW
HStem: -191 193<179.5 254> 0 21G<179 260> 507 20G<238 362>
VStem: 52 410
AnchorPoint: "Anchor-11" 0 0 basechar 0
AnchorPoint: "Anchor-10" 0 0 basechar 0
AnchorPoint: "Anchor-9" 316 517 basechar 0
AnchorPoint: "Anchor-8" 0 0 basechar 0
LayerCount: 2
Fore
SplineSet
230 661 m 1x70
 351 745 l 1
 353 745 l 1
 448 661 l 1
 446 660 l 1
 352 743 l 1
 232 660 l 1
 230 661 l 1x70
337 527 m 0
 387 527 428 511 462 487 c 1
 388 -11 l 2
 367 -152 297 -191 211 -191 c 0
 141 -191 84 -167 52 -145 c 1
 53 -143 l 1
 85 -165 141 -189 211 -189 c 0xb0
 296 -189 365 -151 386 -11 c 2
 407 132 l 1
 360 42 292 0 228 0 c 0
 130 0 76 84 76 195 c 0
 76 338 139 527 337 527 c 0
337 525 m 0
 140 525 78 337 78 195 c 0
 78 85 131 2 228 2 c 0xb0
 297 2 362 49 408 138 c 1
 460 486 l 1
 426 510 386 525 337 525 c 0
EndSplineSet
Substitution2: "'smcp' Lowercase to Small Capitals lookup 24 subtable" gcircumflex.sc
Substitution2: "'aalt' Access All Alternates lookup 0 subtable" gcircumflex.sc
EndChar
StartChar: Gbreve
Encoding: 286 286 99
Width: 600
GlyphClass: 2
Flags: MW
HStem: -9 21G<246.5 352> 670 20G<296.5 435> 688 86<379.5 434.5 379.5 434.5>
VStem: 91 463<169.5 635>
AnchorPoint: "Anchor-14" 0 0 basechar 0
AnchorPoint: "Anchor-13" 0 0 basechar 0
AnchorPoint: "Anchor-12" 417 835 basechar 0
AnchorPoint: "Anchor-11" 0 0 basechar 0
AnchorPoint: "Anchor-10" 303 0 basechar 0
LayerCount: 2
Back
Fore
SplineSet
407 776 m 0xb0
 359 776 329 801 321 835 c 1
 319 834 l 1
 326 805 352 774 407 774 c 0
 462 774 496 805 511 834 c 1
 509 835 l 1
 491 801 455 776 407 776 c 0xb0
404 690 m 0xd0
 466 690 510 671 554 635 c 1
 553 633 l 1
 509 669 465 688 404 688 c 0xb0
 188 688 93 444 93 256 c 0
 93 84 177 -7 317 -7 c 0
 388 -7 444 17 487 40 c 1
 530 340 l 1
 379 340 l 1
 379 342 l 1
 532 342 l 1
 489 39 l 1
 445 15 387 -9 317 -9 c 0
 176 -9 91 83 91 256 c 0
 91 450 189 690 404 690 c 0xd0
EndSplineSet
Substitution2: "'c2sc' Capitals to Small Capitals lookup 27 subtable" gbreve.sc
Substitution2: "'aalt' Access All Alternates lookup 0 subtable" gbreve.sc
Position2: "'cpsp' Capital Spacing lookup 0 subtable" dx=5 dy=0 dh=10 dv=0
EndChar

StartChar: gbreve
Encoding: 287 287 169
Width: 549
GlyphClass: 2
Flags: MW
HStem: -191 193<179.5 254> 0 21G<179 260> 507 20G<238 362> 525 141<309.5 361.5> 716 20G<251 251 443 443>
VStem: 52 410
AnchorPoint: "Anchor-11" 0 0 basechar 0
AnchorPoint: "Anchor-10" 0 0 basechar 0
AnchorPoint: "Anchor-9" 316 517 basechar 0
AnchorPoint: "Anchor-8" 0 0 basechar 0
LayerCount: 2
Fore
SplineSet
337 668 m 0x5c
 289 668 259 693 253 737 c 1
 251 736 l 1
 256 698 282 666 337 666 c 0
 392 666 426 698 443 736 c 1
 441 737 l 1
 422 693 385 668 337 668 c 0x5c
337 527 m 0x6c
 387 527 428 511 462 487 c 1
 388 -11 l 2
 367 -152 297 -191 211 -191 c 0
 141 -191 84 -167 52 -145 c 1
 53 -143 l 1
 85 -165 141 -189 211 -189 c 0xac
 296 -189 365 -151 386 -11 c 2
 407 132 l 1
 360 42 292 0 228 0 c 0
 130 0 76 84 76 195 c 0
 76 338 139 527 337 527 c 0x6c
337 525 m 0x9c
 140 525 78 337 78 195 c 0
 78 85 131 2 228 2 c 0
 297 2 362 49 408 138 c 1
 460 486 l 1
 426 510 386 525 337 525 c 0x9c
EndSplineSet
Substitution2: "'smcp' Lowercase to Small Capitals lookup 24 subtable" gbreve.sc
Substitution2: "'aalt' Access All Alternates lookup 0 subtable" gbreve.sc
EndChar

StartChar: Gdotaccent
Encoding: 288 288 39
Width: 600
GlyphClass: 2
Flags: MW
HStem: -9 21G<246.5 352> 670 20G<296.5 435> 820 12<415 419>
VStem: 91 463<169.5 635>
AnchorPoint: "Anchor-11" 303 0 basechar 0
AnchorPoint: "Anchor-10" 0 0 basechar 0
AnchorPoint: "Anchor-9" 397 680 basechar 0
AnchorPoint: "Anchor-8" 0 0 basechar 0
LayerCount: 2
Fore
SplineSet
417 832 m 0
 421 832 423 829 423 826 c 0
 423 823 421 820 417 820 c 0
 413 820 411 823 411 826 c 0
 411 829 413 832 417 832 c 0
404 690 m 0
 466 690 510 671 554 635 c 1
 553 633 l 1
 509 669 465 688 404 688 c 0
 188 688 93 444 93 256 c 0
 93 84 177 -7 317 -7 c 0
 388 -7 444 17 487 40 c 1
 530 340 l 1
 379 340 l 1
 379 342 l 1
 532 342 l 1
 489 39 l 1
 445 15 387 -9 317 -9 c 0
 176 -9 91 83 91 256 c 0
 91 450 189 690 404 690 c 0
EndSplineSet
Substitution2: "'c2sc' Capitals to Small Capitals lookup 23 subtable" gdotaccent.sc
Substitution2: "'aalt' Access All Alternates lookup 0 subtable" gdotaccent.sc
Position2: "'cpsp' Capital Spacing lookup 0 subtable" dx=5 dy=0 dh=10 dv=0
EndChar

StartChar: gdotaccent
Encoding: 289 289 172
Width: 549
GlyphClass: 2
Flags: MW
HStem: -191 193<179.5 254> 0 21G<179 260> 507 20G<238 362> 694 12<339 343>
VStem: 52 410
AnchorPoint: "Anchor-11" 0 0 basechar 0
AnchorPoint: "Anchor-10" 0 0 basechar 0
AnchorPoint: "Anchor-9" 316 517 basechar 0
AnchorPoint: "Anchor-8" 0 0 basechar 0
LayerCount: 2
Fore
SplineSet
341 706 m 0x78
 345 706 347 703 347 700 c 0
 347 697 345 694 341 694 c 0
 337 694 335 697 335 700 c 0
 335 703 337 706 341 706 c 0x78
337 527 m 0
 387 527 428 511 462 487 c 1
 388 -11 l 2
 367 -152 297 -191 211 -191 c 0
 141 -191 84 -167 52 -145 c 1
 53 -143 l 1
 85 -165 141 -189 211 -189 c 0xb8
 296 -189 365 -151 386 -11 c 2
 407 132 l 1
 360 42 292 0 228 0 c 0
 130 0 76 84 76 195 c 0
 76 338 139 527 337 527 c 0
337 525 m 0
 140 525 78 337 78 195 c 0
 78 85 131 2 228 2 c 0xb8
 297 2 362 49 408 138 c 1
 460 486 l 1
 426 510 386 525 337 525 c 0
EndSplineSet
Substitution2: "'smcp' Lowercase to Small Capitals lookup 24 subtable" gdotaccent.sc
Substitution2: "'aalt' Access All Alternates lookup 0 subtable" gdotaccent.sc
EndChar

StartChar: Gcommaaccent
Encoding: 290 290 38
Width: 600
GlyphClass: 2
Flags: MW
HStem: -117 10<287 289> -9 21G<246.5 352> 670 20G<296.5 435>
VStem: 283 10<-113 -110.5 -113 -110.5>
AnchorPoint: "Anchor-11" 303 0 basechar 0
AnchorPoint: "Anchor-10" 0 0 basechar 0
AnchorPoint: "Anchor-9" 397 680 basechar 0
AnchorPoint: "Anchor-8" 0 0 basechar 0
LayerCount: 2
Fore
SplineSet
404 690 m 0
 466 690 510 671 554 635 c 1
 553 633 l 1
 509 669 465 688 404 688 c 0
 188 688 93 444 93 256 c 0
 93 84 177 -7 317 -7 c 0
 388 -7 444 17 487 40 c 1
 530 340 l 1
 379 340 l 1
 379 342 l 1
 532 342 l 1
 489 39 l 1
 445 15 387 -9 317 -9 c 0
 176 -9 91 83 91 256 c 0
 91 450 189 690 404 690 c 0
288 -107 m 0
 291 -107 293 -109 293 -112 c 0
 293 -114 292 -117 290 -123 c 2
 250 -239 l 1
 249 -239 l 1
 289 -117 l 1
 285 -117 283 -115 283 -112 c 0
 283 -109 285 -107 288 -107 c 0
EndSplineSet
Substitution2: "'c2sc' Capitals to Small Capitals lookup 23 subtable" gcommaaccent.sc
Substitution2: "'aalt' Access All Alternates lookup 0 subtable" gcommaaccent.sc
Position2: "'cpsp' Capital Spacing lookup 0 subtable" dx=5 dy=0 dh=10 dv=0
EndChar
StartChar: gcommaaccent
Encoding: 291 291 456
Width: 549
GlyphClass: 2
Flags: MW
HStem: -191 193<179.5 254> 0 21G<179 260> 507 20G<238 362> 597 10<327 329 327 329.5> 709 20G<366 367 367 367>
VStem: 323 10<600.5 603>
AnchorPoint: "Anchor-14" 0 0 basechar 0
AnchorPoint: "Anchor-13" 0 0 basechar 0
AnchorPoint: "Anchor-12" 316 517 basechar 0
AnchorPoint: "Anchor-11" 0 0 basechar 0
AnchorPoint: "Anchor-10" 211 -188 basechar 0
LayerCount: 2
Back
Fore
SplineSet
328 597 m 0x7c
 325 597 323 599 323 602 c 0
 323 604 324 607 326 613 c 2
 366 729 l 1
 367 729 l 1
 327 607 l 2
 331 607 333 605 333 602 c 0
 333 599 331 597 328 597 c 0x7c
337 527 m 0
 387 527 428 511 462 487 c 1
 388 -11 l 2
 367 -152 297 -191 211 -191 c 0
 141 -191 84 -167 52 -145 c 1
 53 -143 l 1
 85 -165 141 -189 211 -189 c 0xbc
 296 -189 365 -151 386 -11 c 2
 407 132 l 1
 360 42 292 0 228 0 c 0
 130 0 76 84 76 195 c 0
 76 338 139 527 337 527 c 0
337 525 m 0
 140 525 78 337 78 195 c 0
 78 85 131 2 228 2 c 0xbc
 297 2 362 49 408 138 c 1
 460 486 l 1
 426 510 386 525 337 525 c 0
EndSplineSet
Substitution2: "'smcp' Lowercase to Small Capitals lookup 28 subtable" gcommaaccent.sc
Substitution2: "'aalt' Access All Alternates lookup 0 subtable" gcommaaccent.sc
EndChar

StartChar: Hcircumflex
Encoding: 292 292 42
Width: 654
GlyphClass: 2
Flags: MW
HStem: 0 21G<94 96 94 94 486 486 486 488> 660 20G<189 191 191 191 581 583 583 583>
VStem: 94 489
AnchorPoint: "Anchor-11" 0 0 basechar 0
AnchorPoint: "Anchor-10" 88 517 basechar 0
AnchorPoint: "Anchor-9" 385 680 basechar 0
AnchorPoint: "Anchor-8" 0 0 basechar 0
LayerCount: 2
Fore
SplineSet
413 848 m 1
 296 770 l 1
 294 771 l 1
 412 850 l 1
 414 850 l 1
 512 771 l 1
 510 770 l 1
 413 848 l 1
537 365 m 1
 147 365 l 1
 96 0 l 1
 94 0 l 1
 189 680 l 1
 191 680 l 1
 147 367 l 1
 537 367 l 1
 581 680 l 1
 583 680 l 1
 488 0 l 1
 486 0 l 1
 537 365 l 1
EndSplineSet
Substitution2: "'c2sc' Capitals to Small Capitals lookup 23 subtable" hcircumflex.sc
Substitution2: "'aalt' Access All Alternates lookup 0 subtable" hcircumflex.sc
Position2: "'cpsp' Capital Spacing lookup 0 subtable" dx=5 dy=0 dh=10 dv=0
EndChar

StartChar: hcircumflex
Encoding: 293 293 175
Width: 580
GlyphClass: 2
Flags: MW
HStem: 0 21G<89 91 89 89 422 424 422 422> 507 20G<322 411.5> 710 20G<191 193 193 193>
VStem: 89 389.77
AnchorPoint: "Anchor-11" 249 0 basechar 0
AnchorPoint: "Anchor-10" 0 0 basechar 0
AnchorPoint: "Anchor-9" 321 727 basechar 0
AnchorPoint: "Anchor-8" 0 0 basechar 0
LayerCount: 2
Fore
SplineSet
349 895 m 1
 232 817 l 1
 230 818 l 1
 348 897 l 1
 350 897 l 1
 448 818 l 1
 446 817 l 1
 349 895 l 1
365 527 m 0
 458 527 489 467 476 368 c 2
 424 0 l 1
 422 0 l 1
 474 368 l 2
 487 466 457 525 365 525 c 0
 279 525 208 471 137 329 c 1
 91 0 l 1
 89 0 l 1
 191 730 l 1
 193 730 l 1
 138 335 l 1
 207 473 279 527 365 527 c 0
EndSplineSet
Substitution2: "'smcp' Lowercase to Small Capitals lookup 24 subtable" hcircumflex.sc
Substitution2: "'aalt' Access All Alternates lookup 0 subtable" hcircumflex.sc
EndChar
StartChar: Hbar
Encoding: 294 294 108
Width: 668
GlyphClass: 2
Flags: MW
HStem: 0 21G<101 103 101 101 493 495 493 493> 365 163<154 175 177 544 154 154> 526 154<122 198 122 198 176 198 196 198 196 566 588 590>
VStem: 101 519
AnchorPoint: "Anchor-14" 345 340 basechar 0
AnchorPoint: "Anchor-13" 0 0 basechar 0
AnchorPoint: "Anchor-12" 392 680 basechar 0
AnchorPoint: "Anchor-11" 0 0 basechar 0
AnchorPoint: "Anchor-10" 311 0 basechar 0
LayerCount: 2
Back
Fore
SplineSet
620 528 m 1xd0
 620 526 l 1xd0
 568 526 l 1xb0
 495 0 l 1
 493 0 l 1
 544 365 l 1
 154 365 l 1xd0
 103 0 l 1
 101 0 l 1
 174 526 l 1xb0
 122 526 l 1
 122 528 l 1
 175 528 l 1xd0
 196 680 l 1
 198 680 l 1xb0
 177 528 l 1
 567 528 l 1xd0
 588 680 l 1
 590 680 l 1xb0
 569 528 l 1
 620 528 l 1xd0
544 367 m 1
 566 526 l 1
 176 526 l 1xb0
 154 367 l 1
 544 367 l 1
EndSplineSet
Substitution2: "'c2sc' Capitals to Small Capitals lookup 27 subtable" hbar.sc
Substitution2: "'aalt' Access All Alternates lookup 0 subtable" hbar.sc
Position2: "'cpsp' Capital Spacing lookup 0 subtable" dx=5 dy=0 dh=10 dv=0
EndChar

StartChar: Itilde
Encoding: 296 296 53
Width: 262
GlyphClass: 2
Flags: MW
HStem: 0 21G<94 96 94 94> 660 20G<189 191 191 191> 814 42
VStem: 88 247<822 850>
AnchorPoint: "Anchor-11" 0 0 basechar 0
AnchorPoint: "Anchor-10" 88 517 basechar 0
AnchorPoint: "Anchor-9" 190 680 basechar 0
AnchorPoint: "Anchor-8" 106 0 basechar 0
LayerCount: 2
Fore
SplineSet
266 814 m 0
 223 814 195 858 157 858 c 0
 132 858 115 847 88 822 c 1
 90 821 l 1
 115 845 133 856 157 856 c 0
 194 856 222 812 266 812 c 0
 293 812 310 823 335 850 c 1
 333 851 l 1
 309 825 292 814 266 814 c 0
96 0 m 1
 94 0 l 1
 189 680 l 1
 191 680 l 1
 96 0 l 1
EndSplineSet
Substitution2: "'c2sc' Capitals to Small Capitals lookup 23 subtable" itilde.sc
Substitution2: "'aalt' Access All Alternates lookup 0 subtable" itilde.sc
Position2: "'cpsp' Capital Spacing lookup 0 subtable" dx=5 dy=0 dh=10 dv=0
EndChar

StartChar: itilde
Encoding: 297 297 187
Width: 252
GlyphClass: 2
Flags: MW
HStem: 0 21G<89 91 89 89> 497 20G<161 163 163 163> 666 20G<224 259.5> 688 42 710 20G<125 155.5>
VStem: 68 247<696 724>
AnchorPoint: "Anchor-11" 0 0 basechar 0
AnchorPoint: "Anchor-10" 0 0 basechar 0
AnchorPoint: "Anchor-9" 162 517 basechar 0
AnchorPoint: "Anchor-8" 101 0 basechar 0
LayerCount: 2
Fore
SplineSet
246 688 m 0xd4
 203 688 175 732 137 732 c 0xd4
 112 732 95 721 68 696 c 1
 70 695 l 1
 95 719 113 730 137 730 c 0
 174 730 202 686 246 686 c 0xec
 273 686 290 697 315 724 c 1
 313 725 l 1
 289 699 272 688 246 688 c 0xd4
91 0 m 1xec
 89 0 l 1
 161 517 l 1
 163 517 l 1
 91 0 l 1xec
EndSplineSet
Substitution2: "'smcp' Lowercase to Small Capitals lookup 24 subtable" itilde.sc
Substitution2: "'aalt' Access All Alternates lookup 0 subtable" itilde.sc
EndChar
StartChar: Imacron
Encoding: 298 298 129
Width: 262
GlyphClass: 2
Flags: MW
HStem: 0 21G<94 96 94 94> 660 20G<189 191 191 191>
VStem: 94 210
AnchorPoint: "Anchor-14" 0 0 basechar 0
AnchorPoint: "Anchor-13" 0 0 basechar 0
AnchorPoint: "Anchor-12" 211 817 basechar 0
AnchorPoint: "Anchor-11" 105 0 basechar 0
AnchorPoint: "Anchor-10" 95 0 basechar 0
LayerCount: 2
Back
Fore
SplineSet
304 815 m 1
 114 815 l 1
 114 817 l 1
 304 817 l 1
 304 815 l 1
191 680 m 1
 96 0 l 1
 94 0 l 1
 189 680 l 1
 191 680 l 1
EndSplineSet
Substitution2: "'c2sc' Capitals to Small Capitals lookup 27 subtable" imacron.sc
Substitution2: "'aalt' Access All Alternates lookup 0 subtable" imacron.sc
Position2: "'cpsp' Capital Spacing lookup 0 subtable" dx=5 dy=0 dh=10 dv=0
EndChar

StartChar: imacron
Encoding: 299 299 185
Width: 252
GlyphClass: 2
Flags: MW
HStem: 0 21G<89 91 89 89> 497 20G<161 163 163 163> 671 20G<91 281 281 281>
VStem: 89 192
AnchorPoint: "Anchor-11" 0 0 basechar 0
AnchorPoint: "Anchor-10" 0 0 basechar 0
AnchorPoint: "Anchor-9" 162 517 basechar 0
AnchorPoint: "Anchor-8" 101 0 basechar 0
LayerCount: 2
Fore
SplineSet
91 689 m 1
 91 691 l 1
 281 691 l 1
 281 689 l 1
 91 689 l 1
91 0 m 1
 89 0 l 1
 161 517 l 1
 163 517 l 1
 91 0 l 1
EndSplineSet
Substitution2: "'smcp' Lowercase to Small Capitals lookup 24 subtable" imacron.sc
Substitution2: "'aalt' Access All Alternates lookup 0 subtable" imacron.sc
EndChar
StartChar: Ibreve
Encoding: 300 300 118
Width: 262
GlyphClass: 2
Flags: MW
HStem: 0 21G<94 96 94 94> 660 20G<189 191 191 191>
VStem: 94 210
AnchorPoint: "Anchor-14" 0 0 basechar 0
AnchorPoint: "Anchor-13" 0 0 basechar 0
AnchorPoint: "Anchor-12" 210 835 basechar 0
AnchorPoint: "Anchor-11" 105 0 basechar 0
AnchorPoint: "Anchor-10" 95 0 basechar 0
LayerCount: 2
Back
Fore
SplineSet
200 776 m 0
 152 776 122 801 114 835 c 1
 112 834 l 1
 119 805 145 774 200 774 c 0
 255 774 289 805 304 834 c 1
 302 835 l 1
 284 801 248 776 200 776 c 0
191 680 m 1
 96 0 l 1
 94 0 l 1
 189 680 l 1
 191 680 l 1
EndSplineSet
Substitution2: "'c2sc' Capitals to Small Capitals lookup 27 subtable" ibreve.sc
Substitution2: "'aalt' Access All Alternates lookup 0 subtable" ibreve.sc
Position2: "'cpsp' Capital Spacing lookup 0 subtable" dx=5 dy=0 dh=10 dv=0
EndChar
StartChar: ibreve
Encoding: 301 301 480
Width: 252
GlyphClass: 2
Flags: MW
HStem: 0 21G<89 91 89 89> 497 20G<161 163 163 163> 717 20G<97 97 285 285>
VStem: 89 198
AnchorPoint: "Anchor-14" 0 0 basechar 0
AnchorPoint: "Anchor-13" 0 0 basechar 0
AnchorPoint: "Anchor-12" 193 737 basechar 0
AnchorPoint: "Anchor-11" 101 0 basechar 0
AnchorPoint: "Anchor-10" 90 0 basechar 0
LayerCount: 2
Back
Fore
SplineSet
181 666 m 0
 126 666 100 698 95 736 c 1
 97 737 l 1
 103 693 133 668 181 668 c 0
 229 668 266 693 285 737 c 1
 287 736 l 1
 270 698 236 666 181 666 c 0
163 517 m 1
 91 0 l 1
 89 0 l 1
 161 517 l 1
 163 517 l 1
EndSplineSet
Substitution2: "'smcp' Lowercase to Small Capitals lookup 28 subtable" ibreve.sc
Substitution2: "'aalt' Access All Alternates lookup 0 subtable" ibreve.sc
EndChar

StartChar: Iogonek
Encoding: 302 302 52
Width: 262
GlyphClass: 2
Flags: MW
HStem: -194 21G<-12 17.5> 660 20G<189 191 191 191>
VStem: -59 250
AnchorPoint: "Anchor-11" 0 0 basechar 0
AnchorPoint: "Anchor-10" 88 517 basechar 0
AnchorPoint: "Anchor-9" 190 680 basechar 0
AnchorPoint: "Anchor-8" 106 0 basechar 0
LayerCount: 2
Fore
SplineSet
96 0 m 1
 -1 -34 -57 -75 -57 -132 c 0
 -57 -173 -30 -192 9 -192 c 0
 27 -192 40 -190 63 -184 c 1
 62 -186 l 1
 40 -192 27 -194 8 -194 c 0
 -32 -194 -59 -174 -59 -132 c 0
 -59 -62.3096 25.2598 -23.3398 94.0898 0.679688 c 1
 189 680 l 1
 191 680 l 1
 96 0 l 1
EndSplineSet
Substitution2: "'c2sc' Capitals to Small Capitals lookup 23 subtable" iogonek.sc
Substitution2: "'aalt' Access All Alternates lookup 0 subtable" iogonek.sc
Position2: "'cpsp' Capital Spacing lookup 0 subtable" dx=5 dy=0 dh=10 dv=0
EndChar
StartChar: iogonek
Encoding: 303 303 493
Width: 252
GlyphClass: 2
Flags: MW
HStem: -194 21G<-17 12.5> 497 20G<161 163 163 163> 694 12<186 190>
VStem: -64 258
AnchorPoint: "Anchor-14" 0 0 basechar 0
AnchorPoint: "Anchor-13" 0 0 basechar 0
AnchorPoint: "Anchor-12" 189 706 basechar 0
AnchorPoint: "Anchor-11" 101 0 basechar 0
AnchorPoint: "Anchor-10" 90 0 basechar 0
LayerCount: 2
Back
Fore
SplineSet
188 706 m 0
 192 706 194 703 194 700 c 0
 194 697 192 694 188 694 c 0
 184 694 182 697 182 700 c 0
 182 703 184 706 188 706 c 0
89 1 m 1
 161 517 l 1
 163 517 l 1
 91 0 l 1
 -6 -34 -62 -75 -62 -132 c 0
 -62 -173 -35 -192 4 -192 c 0
 22 -192 35 -190 58 -184 c 1
 57 -186 l 1
 35 -192 22 -194 3 -194 c 0
 -37 -194 -64 -174 -64 -132 c 0
 -64 -62 20 -23 89 1 c 1
EndSplineSet
Substitution2: "'smcp' Lowercase to Small Capitals lookup 28 subtable" iogonek.sc
Substitution2: "'aalt' Access All Alternates lookup 0 subtable" iogonek.sc
EndChar

StartChar: Idotaccent
Encoding: 304 304 49
Width: 262
GlyphClass: 2
Flags: MW
HStem: 0 21G<94 96 94 94> 660 20G<189 191 191 191> 820 12<208 212>
VStem: 94 122
AnchorPoint: "Anchor-11" 0 0 basechar 0
AnchorPoint: "Anchor-10" 88 517 basechar 0
AnchorPoint: "Anchor-9" 190 680 basechar 0
AnchorPoint: "Anchor-8" 106 0 basechar 0
LayerCount: 2
Fore
SplineSet
210 832 m 0
 214 832 216 829 216 826 c 0
 216 823 214 820 210 820 c 0
 206 820 204 823 204 826 c 0
 204 829 206 832 210 832 c 0
96 0 m 1
 94 0 l 1
 189 680 l 1
 191 680 l 1
 96 0 l 1
EndSplineSet
Substitution2: "'c2sc' Capitals to Small Capitals lookup 23 subtable" i.sc.loclTRK
Substitution2: "'aalt' Access All Alternates lookup 0 subtable" i.sc.loclTRK
Position2: "'cpsp' Capital Spacing lookup 0 subtable" dx=5 dy=0 dh=10 dv=0
EndChar

StartChar: dotlessi
Encoding: 305 305 177
Width: 252
GlyphClass: 2
Flags: MW
HStem: 0 21G<89 91 89 89> 497 20G<161 163 163 163>
VStem: 89 74
AnchorPoint: "Anchor-11" 0 0 basechar 0
AnchorPoint: "Anchor-10" 0 0 basechar 0
AnchorPoint: "Anchor-9" 162 517 basechar 0
AnchorPoint: "Anchor-8" 101 0 basechar 0
LayerCount: 2
Fore
SplineSet
91 0 m 1
 89 0 l 1
 161 517 l 1
 163 517 l 1
 91 0 l 1
EndSplineSet
Substitution2: "'smcp' Lowercase to Small Capitals lookup 24 subtable" dotlessi.sc
Substitution2: "'aalt' Access All Alternates lookup 0 subtable" dotlessi.sc
EndChar
StartChar: IJ
Encoding: 306 306 116
Width: 536
GlyphClass: 2
Flags: MW
HStem: 0 21G<94 96 94 94> 660 20G<189 191 191 191 469 471 471 471>
VStem: 94 377
AnchorPoint: "Anchor-14" 0 0 basechar 0
AnchorPoint: "Anchor-13" 0 0 basechar 0
AnchorPoint: "Anchor-12" 471 680 basechar 0
AnchorPoint: "Anchor-11" 105 0 basechar 0
AnchorPoint: "Anchor-10" 95 0 basechar 0
LayerCount: 2
Back
Fore
SplineSet
191 680 m 1
 96 0 l 1
 94 0 l 1
 189 680 l 1
 191 680 l 1
471 680 m 1
 388 85 l 2
 375 -7 350 -50 244 -91 c 1
 243 -89 l 1
 348 -49 373 -6 386 85 c 2
 469 680 l 1
 471 680 l 1
EndSplineSet
Substitution2: "'c2sc' Capitals to Small Capitals lookup 27 subtable" ij.sc
Substitution2: "'aalt' Access All Alternates lookup 0 subtable" ij.sc
Position2: "'cpsp' Capital Spacing lookup 0 subtable" dx=5 dy=0 dh=10 dv=0
EndChar

StartChar: ij
Encoding: 307 307 184
Width: 504
GlyphClass: 2
Flags: MW
HStem: -190 21G<217 217> 0 21G<89 91 89 89> 497 20G<161 163 163 163 413 415 415 415> 694 12<185 189 437 441>
VStem: 89 356
AnchorPoint: "Anchor-11" 0 0 basechar 0
AnchorPoint: "Anchor-10" 0 0 basechar 0
AnchorPoint: "Anchor-9" 414 517 basechar 0
AnchorPoint: "Anchor-8" 101 0 basechar 0
LayerCount: 2
Fore
SplineSet
187 706 m 0
 191 706 193 703 193 700 c 0
 193 697 191 694 187 694 c 0
 183 694 181 697 181 700 c 0
 181 703 183 706 187 706 c 0
439 706 m 0
 443 706 445 703 445 700 c 0
 445 697 443 694 439 694 c 0
 435 694 433 697 433 700 c 0
 433 703 435 706 439 706 c 0
91 0 m 1
 89 0 l 1
 161 517 l 1
 163 517 l 1
 91 0 l 1
343 1 m 2
 326 -118 293 -154 218 -191 c 1
 217 -190 l 1
 291 -153 325 -117 341 1 c 2
 413 517 l 1
 415 517 l 1
 343 1 l 2
EndSplineSet
Substitution2: "'smcp' Lowercase to Small Capitals lookup 24 subtable" ij.sc
Substitution2: "'aalt' Access All Alternates lookup 0 subtable" ij.sc
EndChar

StartChar: Jcircumflex
Encoding: 308 308 55
Width: 274
GlyphClass: 2
Flags: MW
HStem: 660 20G<207 209 209 209>
VStem: -19 355
AnchorPoint: "Anchor-11" 0 0 basechar 0
AnchorPoint: "Anchor-10" 0 0 basechar 0
AnchorPoint: "Anchor-9" 209 680 basechar 0
AnchorPoint: "Anchor-8" 0 0 basechar 0
LayerCount: 2
Fore
SplineSet
237 848 m 1
 120 770 l 1
 118 771 l 1
 236 850 l 1
 238 850 l 1
 336 771 l 1
 334 770 l 1
 237 848 l 1
126 85 m 2
 113 -7 88 -50 -18 -91 c 1
 -19 -89 l 1
 86 -49 111 -6 124 85 c 2
 207 680 l 1
 209 680 l 1
 126 85 l 2
EndSplineSet
Substitution2: "'c2sc' Capitals to Small Capitals lookup 23 subtable" jcircumflex.sc
Substitution2: "'aalt' Access All Alternates lookup 0 subtable" jcircumflex.sc
Position2: "'cpsp' Capital Spacing lookup 0 subtable" dx=5 dy=0 dh=10 dv=0
EndChar

StartChar: jcircumflex
Encoding: 309 309 190
Width: 252
GlyphClass: 2
Flags: MW
HStem: -190 21G<-35 -35> 497 20G<161 163 163 163>
VStem: -35 329
AnchorPoint: "Anchor-11" 0 0 basechar 0
AnchorPoint: "Anchor-10" 0 0 basechar 0
AnchorPoint: "Anchor-9" 162 517 basechar 0
AnchorPoint: "Anchor-8" 0 0 basechar 0
LayerCount: 2
Fore
SplineSet
76 661 m 1
 197 745 l 1
 199 745 l 1
 294 661 l 1
 292 660 l 1
 198 743 l 1
 78 660 l 1
 76 661 l 1
91 1 m 2
 74 -118 41 -154 -34 -191 c 1
 -35 -190 l 1
 39 -153 73 -117 89 1 c 2
 161 517 l 1
 163 517 l 1
 91 1 l 2
EndSplineSet
Substitution2: "'smcp' Lowercase to Small Capitals lookup 24 subtable" jcircumflex.sc
Substitution2: "'aalt' Access All Alternates lookup 0 subtable" jcircumflex.sc
EndChar

StartChar: Kcommaaccent
Encoding: 310 310 57
Width: 504
GlyphClass: 2
Flags: MW
HStem: -117 10<232 234> 0 21G<450 453 450 450> 1 21G<94 96 94 94> 660 20G<189 191 191 191 529 532 532 532>
VStem: 228 10<-113 -110.5 -113 -110.5>
AnchorPoint: "Anchor-11" 248 0 basechar 0
AnchorPoint: "Anchor-10" 0 0 basechar 0
AnchorPoint: "Anchor-9" 343 680 basechar 0
AnchorPoint: "Anchor-8" 0 0 basechar 0
LayerCount: 2
Fore
SplineSet
96 1 m 1xb8
 94 1 l 1
 189 680 l 1
 191 680 l 1
 96 1 l 1xb8
152 366 m 1
 453 0 l 1
 450 0 l 1xd8
 150 366 l 1
 529 680 l 1
 532 680 l 1
 152 366 l 1
233 -107 m 0
 236 -107 238 -109 238 -112 c 0
 238 -114 237 -117 235 -123 c 2
 195 -239 l 1
 194 -239 l 1
 234 -117 l 1
 230 -117 228 -115 228 -112 c 0
 228 -109 230 -107 233 -107 c 0
EndSplineSet
Substitution2: "'c2sc' Capitals to Small Capitals lookup 23 subtable" kcommaaccent.sc
Substitution2: "'aalt' Access All Alternates lookup 0 subtable" kcommaaccent.sc
Position2: "'cpsp' Capital Spacing lookup 0 subtable" dx=5 dy=0 dh=10 dv=0
EndChar

StartChar: kcommaaccent
Encoding: 311 311 192
Width: 509
GlyphClass: 2
Flags: MW
HStem: -117 10<220 222> 0 21G<89 91 89 89 408 410 408 408> 507 20G<321.5 398.5> 710 20G<191 193 193 193>
VStem: 216 10<-113 -110.5 -113 -110.5>
AnchorPoint: "Anchor-11" 228 0 basechar 0
AnchorPoint: "Anchor-10" 0 0 basechar 0
AnchorPoint: "Anchor-9" 0 0 basechar 0
AnchorPoint: "Anchor-8" 0 0 basechar 0
LayerCount: 2
Fore
SplineSet
134 308 m 1
 197 450 280 527 363 527 c 0
 434 527 471 486 471 424 c 0
 471 335 397 281 282 243 c 1
 410 0 l 1
 408 0 l 1
 279 244 l 1
 397 284 469 335 469 424 c 0
 469 485 433 525 363 525 c 0
 279 525 197 446 133 302 c 1
 91 0 l 1
 89 0 l 1
 191 730 l 1
 193 730 l 1
 134 308 l 1
221 -107 m 0
 224 -107 226 -109 226 -112 c 0
 226 -114 225 -117 223 -123 c 2
 183 -239 l 1
 182 -239 l 1
 222 -117 l 1
 218 -117 216 -115 216 -112 c 0
 216 -109 218 -107 221 -107 c 0
EndSplineSet
Substitution2: "'smcp' Lowercase to Small Capitals lookup 24 subtable" kcommaaccent.sc
Substitution2: "'aalt' Access All Alternates lookup 0 subtable" kcommaaccent.sc
EndChar

StartChar: kgreenlandic
Encoding: 312 312 193
Width: 446
GlyphClass: 2
Flags: MW
HStem: 0 21G<89 91 89 89 382 382 382 385> 497 20G<161 163 163 163 427 430 430 430>
VStem: 89 341
LayerCount: 2
Fore
SplineSet
91 0 m 1
 89 0 l 1
 161 517 l 1
 163 517 l 1
 91 0 l 1
137 273 m 1
 385 0 l 1
 382 0 l 1
 134 273 l 1
 427 517 l 1
 430 517 l 1
 137 273 l 1
EndSplineSet
Substitution2: "'smcp' Lowercase to Small Capitals lookup 24 subtable" kgreenlandic.sc
Substitution2: "'aalt' Access All Alternates lookup 0 subtable" kgreenlandic.sc
EndChar
StartChar: Lacute
Encoding: 313 313 143
Width: 445
GlyphClass: 2
Flags: MW
HStem: 0 21G<94 384 94 94> 660 20G<189 191 191 191>
VStem: 94 290<0 2>
AnchorPoint: "Anchor-14" 363 355 basechar 0
AnchorPoint: "Anchor-13" 251 680 basechar 0
AnchorPoint: "Anchor-12" 210 842 basechar 0
AnchorPoint: "Anchor-11" 0 0 basechar 0
AnchorPoint: "Anchor-10" 239 0 basechar 0
LayerCount: 2
Back
Fore
SplineSet
295 842 m 1
 296 840 l 1
 121 771 l 1
 120 773 l 1
 295 842 l 1
191 680 m 1
 96 2 l 1
 384 2 l 1
 384 0 l 1
 94 0 l 1
 189 680 l 1
 191 680 l 1
EndSplineSet
Substitution2: "'c2sc' Capitals to Small Capitals lookup 27 subtable" lacute.sc
Substitution2: "'aalt' Access All Alternates lookup 0 subtable" lacute.sc
Position2: "'cpsp' Capital Spacing lookup 0 subtable" dx=5 dy=0 dh=10 dv=0
EndChar
StartChar: lacute
Encoding: 314 314 512
Width: 275
GlyphClass: 2
Flags: MW
HStem: -9 21G<124 152> -1 21G<187 187> 710 20G<186 188 188 188>
VStem: 91.78 201.22
AnchorPoint: "Anchor-14" 272 375 basechar 0
AnchorPoint: "Anchor-13" 237 727 basechar 0
AnchorPoint: "Anchor-12" 207 892 basechar 0
AnchorPoint: "Anchor-11" 0 0 basechar 0
AnchorPoint: "Anchor-10" 138 0 basechar 0
LayerCount: 2
Back
Fore
SplineSet
292 892 m 1x70
 293 890 l 1
 118 821 l 1
 117 823 l 1
 292 892 l 1x70
188 730 m 1
 95 64 l 2
 89 21 104 -7 145 -7 c 0
 159 -7 174 -4 187 1 c 1
 187 -1 l 1
 174 -6 159 -9 145 -9 c 0
 103 -9 87 19 93 64 c 2xb0
 186 730 l 1
 188 730 l 1
EndSplineSet
Substitution2: "'smcp' Lowercase to Small Capitals lookup 28 subtable" lacute.sc
Substitution2: "'aalt' Access All Alternates lookup 0 subtable" lacute.sc
EndChar

StartChar: Lcommaaccent
Encoding: 315 315 61
Width: 445
GlyphClass: 2
Flags: MW
HStem: -117 119<223 225> 0 21G<94 384 94 94> 660 20G<189 191 191 191>
VStem: 219 10<-113 -110.5 -113 -110.5>
AnchorPoint: "Anchor-11" 239 0 basechar 0
AnchorPoint: "Anchor-10" 0 0 basechar 0
AnchorPoint: "Anchor-9" 190 680 basechar 0
AnchorPoint: "Anchor-8" 0 0 basechar 0
LayerCount: 2
Fore
SplineSet
96 2 m 1xb0
 384 2 l 1
 384 0 l 1
 94 0 l 1x70
 189 680 l 1
 191 680 l 1
 96 2 l 1xb0
224 -107 m 0xb0
 227 -107 229 -109 229 -112 c 0
 229 -114 228 -117 226 -123 c 2
 186 -239 l 1
 185 -239 l 1
 225 -117 l 1
 221 -117 219 -115 219 -112 c 0
 219 -109 221 -107 224 -107 c 0xb0
EndSplineSet
Substitution2: "'c2sc' Capitals to Small Capitals lookup 23 subtable" lcommaaccent.sc
Substitution2: "'aalt' Access All Alternates lookup 0 subtable" lcommaaccent.sc
Position2: "'cpsp' Capital Spacing lookup 0 subtable" dx=5 dy=0 dh=10 dv=0
EndChar
StartChar: lcommaaccent
Encoding: 316 316 518
Width: 275
GlyphClass: 2
Flags: MW
HStem: -117 10<130 132> -9 21G<124 152> -1 21G<187 187> 710 20G<186 188 188 188>
VStem: 126 10<-113 -110.5 -113 -110.5>
AnchorPoint: "Anchor-14" 272 375 basechar 0
AnchorPoint: "Anchor-13" 237 727 basechar 0
AnchorPoint: "Anchor-12" 187 730 basechar 0
AnchorPoint: "Anchor-11" 0 0 basechar 0
AnchorPoint: "Anchor-10" 138 0 basechar 0
LayerCount: 2
Back
Fore
SplineSet
188 730 m 1xb8
 95 64 l 2
 89 21 104 -7 145 -7 c 0
 159 -7 174 -4 187 1 c 1
 187 -1 l 1
 174 -6 159 -9 145 -9 c 0
 103 -9 87 19 93 64 c 2xd8
 186 730 l 1
 188 730 l 1xb8
131 -107 m 0
 134 -107 136 -109 136 -112 c 0
 136 -114 135 -117 133 -123 c 2
 93 -239 l 1
 92 -239 l 1
 132 -117 l 2
 128 -117 126 -115 126 -112 c 0
 126 -109 128 -107 131 -107 c 0
EndSplineSet
Substitution2: "'smcp' Lowercase to Small Capitals lookup 28 subtable" lcommaaccent.sc
Substitution2: "'aalt' Access All Alternates lookup 0 subtable" lcommaaccent.sc
EndChar

StartChar: Lcaron
Encoding: 317 317 60
Width: 445
GlyphClass: 2
Flags: MW
HStem: 0 21G<94 384 94 94> 660 20G<189 191 191 191> 670 20G<314 316 316 316>
VStem: 94 290<0 2>
AnchorPoint: "Anchor-11" 239 0 basechar 0
AnchorPoint: "Anchor-10" 0 0 basechar 0
AnchorPoint: "Anchor-9" 190 680 basechar 0
AnchorPoint: "Anchor-8" 0 0 basechar 0
LayerCount: 2
Fore
SplineSet
316 690 m 1xb0
 278 553 l 1
 276 553 l 1
 314 690 l 1
 316 690 l 1xb0
96 2 m 1
 384 2 l 1
 384 0 l 1
 94 0 l 1
 189 680 l 1
 191 680 l 1xd0
 96 2 l 1
EndSplineSet
Substitution2: "'c2sc' Capitals to Small Capitals lookup 23 subtable" lcaron.sc
Substitution2: "'aalt' Access All Alternates lookup 0 subtable" lcaron.sc
Position2: "'cpsp' Capital Spacing lookup 0 subtable" dx=5 dy=0 dh=10 dv=0
EndChar

StartChar: lcaron
Encoding: 318 318 196
Width: 275
GlyphClass: 2
Flags: MW
HStem: -9 21G<124 152> -1 21G<187 187> 710 20G<186 188 188 188> 717 20G<300 302 302 302>
VStem: 91.78 210.22
AnchorPoint: "Anchor-11" 138 0 basechar 0
AnchorPoint: "Anchor-10" 0 0 basechar 0
AnchorPoint: "Anchor-9" 187 730 basechar 0
AnchorPoint: "Anchor-8" 0 0 basechar 0
LayerCount: 2
Fore
SplineSet
302 737 m 1x58
 264 600 l 1
 262 600 l 1
 300 737 l 1
 302 737 l 1x58
95 64 m 2
 89 21 104 -7 145 -7 c 0
 159 -7 174 -4 187 1 c 1
 187 -1 l 1
 174 -6 159 -9 145 -9 c 0
 103 -9 87 19 93 64 c 2
 186 730 l 1
 188 730 l 1xa8
 95 64 l 2
EndSplineSet
Substitution2: "'smcp' Lowercase to Small Capitals lookup 24 subtable" lcaron.sc
Substitution2: "'aalt' Access All Alternates lookup 0 subtable" lcaron.sc
EndChar

StartChar: Ldot
Encoding: 319 319 62
Width: 445
GlyphClass: 2
Flags: MW
HStem: 0 21G<94 384 94 94> 349 12<361 365> 660 20G<189 191 191 191>
VStem: 94 290<0 2>
AnchorPoint: "Anchor-11" 239 0 basechar 0
AnchorPoint: "Anchor-10" 0 0 basechar 0
AnchorPoint: "Anchor-9" 190 680 basechar 0
AnchorPoint: "Anchor-8" 0 0 basechar 0
LayerCount: 2
Fore
SplineSet
96 2 m 1
 384 2 l 1
 384 0 l 1
 94 0 l 1
 189 680 l 1
 191 680 l 1
 96 2 l 1
363 361 m 0
 367 361 369 358 369 355 c 0
 369 352 367 349 363 349 c 0
 359 349 357 352 357 355 c 0
 357 358 359 361 363 361 c 0
EndSplineSet
Ligature2: "Ligature Substitution lookup 29 subtable" L periodcentered
Substitution2: "'c2sc' Capitals to Small Capitals lookup 23 subtable" ldot.sc
Substitution2: "'aalt' Access All Alternates lookup 0 subtable" ldot.sc
Position2: "'cpsp' Capital Spacing lookup 0 subtable" dx=5 dy=0 dh=10 dv=0
EndChar

StartChar: ldot
Encoding: 320 320 198
Width: 275
GlyphClass: 2
Flags: MW
HStem: -9 21G<88 116> -1 21G<151 151> 369 12<234 238> 710 20G<150 152 152 152>
VStem: 55.78 186.22
AnchorPoint: "Anchor-11" 102 0 basechar 0
AnchorPoint: "Anchor-10" 0 0 basechar 0
AnchorPoint: "Anchor-9" 151 730 basechar 0
AnchorPoint: "Anchor-8" 0 0 basechar 0
LayerCount: 2
Fore
SplineSet
59 64 m 2x78
 53 21 68 -7 109 -7 c 0
 123 -7 138 -4 151 1 c 1
 151 -1 l 1
 138 -6 123 -9 109 -9 c 0
 67 -9 51 19 57 64 c 2xb8
 150 730 l 1
 152 730 l 1
 59 64 l 2x78
236 381 m 0
 240 381 242 378 242 375 c 0
 242 372 240 369 236 369 c 0
 232 369 230 372 230 375 c 0
 230 378 232 381 236 381 c 0
EndSplineSet
Ligature2: "Ligature Substitution lookup 29 subtable" l periodcentered
Substitution2: "'smcp' Lowercase to Small Capitals lookup 24 subtable" ldot.sc
Substitution2: "'aalt' Access All Alternates lookup 0 subtable" ldot.sc
EndChar
StartChar: Lslash
Encoding: 321 321 151
Width: 455
GlyphClass: 2
Flags: MW
HStem: 0 21G<104 394 104 104> 660 20G<199 201 201 201>
VStem: 64 330<0 278>
LayerCount: 2
Back
Fore
SplineSet
394 2 m 1
 394 0 l 1
 104 0 l 1
 149 324 l 1
 65 276 l 1
 64 278 l 1
 149 326 l 1
 199 680 l 1
 201 680 l 1
 151 327 l 1
 378 456 l 1
 379 454 l 1
 151 325 l 1
 106 2 l 1
 394 2 l 1
EndSplineSet
Substitution2: "'c2sc' Capitals to Small Capitals lookup 27 subtable" lslash.sc
Substitution2: "'aalt' Access All Alternates lookup 0 subtable" lslash.sc
Position2: "'cpsp' Capital Spacing lookup 0 subtable" dx=5 dy=0 dh=10 dv=0
EndChar
StartChar: lslash
Encoding: 322 322 527
Width: 275
GlyphClass: 2
Flags: MW
HStem: -9 21G<124 152> -1 21G<187 187> 710 20G<186 188 188 188>
VStem: 61 199<329 442>
AnchorPoint: "Anchor-14" 272 375 basechar 0
AnchorPoint: "Anchor-13" 237 727 basechar 0
AnchorPoint: "Anchor-12" 187 730 basechar 0
AnchorPoint: "Anchor-11" 0 0 basechar 0
AnchorPoint: "Anchor-10" 138 0 basechar 0
LayerCount: 2
Back
Fore
SplineSet
95 64 m 2x70
 89 21 104 -7 145 -7 c 0
 159 -7 174 -4 187 1 c 1
 187 -1 l 1
 174 -6 159 -9 145 -9 c 0
 103 -9 87 19 93 64 c 2xb0
 136 370 l 1
 62 327 l 1
 61 329 l 1
 136 373 l 1
 186 730 l 1
 188 730 l 1
 138 374 l 1
 259 444 l 1
 260 442 l 1
 138 371 l 1
 95 64 l 2x70
EndSplineSet
Substitution2: "'smcp' Lowercase to Small Capitals lookup 28 subtable" lslash.sc
Substitution2: "'aalt' Access All Alternates lookup 0 subtable" lslash.sc
EndChar
StartChar: Nacute
Encoding: 323 323 158
Width: 654
GlyphClass: 2
Flags: MW
HStem: 0 21G<94 96 94 94 485 488 485 485> 660 20G<189 192 192 192 581 583 583 583>
VStem: 94 489
AnchorPoint: "Anchor-14" 0 0 basechar 0
AnchorPoint: "Anchor-13" 0 0 basechar 0
AnchorPoint: "Anchor-12" 410 842 basechar 0
AnchorPoint: "Anchor-11" 0 0 basechar 0
AnchorPoint: "Anchor-10" 285 0 basechar 0
LayerCount: 2
Back
Fore
SplineSet
495 842 m 1
 496 840 l 1
 321 771 l 1
 320 773 l 1
 495 842 l 1
583 680 m 1
 488 0 l 1
 485 0 l 1
 191 677 l 1
 176 572 l 1
 96 0 l 1
 94 0 l 1
 189 680 l 1
 192 680 l 1
 486 4 l 1
 505 136 l 1
 581 680 l 1
 583 680 l 1
EndSplineSet
Substitution2: "'c2sc' Capitals to Small Capitals lookup 27 subtable" nacute.sc
Substitution2: "'locl' Localized Forms in Latin lookup 7 subtable" Nacute.loclPLK
AlternateSubs2: "'aalt' Access All Alternates lookup 1 subtable" Nacute.loclPLK nacute.sc
Position2: "'cpsp' Capital Spacing lookup 0 subtable" dx=5 dy=0 dh=10 dv=0
EndChar
StartChar: nacute
Encoding: 324 324 536
Width: 580
GlyphClass: 2
Flags: MW
HStem: 0 21G<89 91 89 89 422 424 422 422> 497 20G<161 163 163 163> 507 20G<323.5 411.5>
VStem: 89 389.65
AnchorPoint: "Anchor-14" 0 0 basechar 0
AnchorPoint: "Anchor-13" 0 0 basechar 0
AnchorPoint: "Anchor-12" 359 746 basechar 0
AnchorPoint: "Anchor-11" 0 0 basechar 0
AnchorPoint: "Anchor-10" 257 0 basechar 0
LayerCount: 2
Back
Fore
SplineSet
445 746 m 1xb0
 446 744 l 1
 267 662 l 1
 267 664 l 1
 445 746 l 1xb0
368 527 m 0
 455 527 489 467 476 368 c 2
 424 0 l 1
 422 0 l 1
 474 368 l 2
 487 466 454 525 368 525 c 0
 279 525 208 471 137 329 c 1
 91 0 l 1
 89 0 l 1
 161 517 l 1
 163 517 l 1xd0
 138 335 l 1
 207 473 279 527 368 527 c 0
EndSplineSet
Substitution2: "'smcp' Lowercase to Small Capitals lookup 28 subtable" nacute.sc
Substitution2: "'locl' Localized Forms in Latin lookup 7 subtable" nacute.loclPLK
AlternateSubs2: "'aalt' Access All Alternates lookup 1 subtable" nacute.loclPLK nacute.sc
EndChar

StartChar: Ncommaaccent
Encoding: 325 325 68
Width: 654
GlyphClass: 2
Flags: MW
HStem: -117 10<269 271> 0 21G<94 96 94 94 485 488 485 485> 660 20G<189 192 192 192 581 583 583 583>
VStem: 265 10<-113 -110.5 -113 -110.5>
AnchorPoint: "Anchor-11" 285 0 basechar 0
AnchorPoint: "Anchor-10" 0 0 basechar 0
AnchorPoint: "Anchor-9" 390 680 basechar 0
AnchorPoint: "Anchor-8" 0 0 basechar 0
LayerCount: 2
Fore
SplineSet
488 0 m 1
 485 0 l 1
 191 677 l 1
 187 650 183 622 176 572 c 2
 96 0 l 1
 94 0 l 1
 189 680 l 1
 192 680 l 1
 486 4 l 1
 492 45 499 95 505 136 c 2
 581 680 l 1
 583 680 l 1
 488 0 l 1
270 -107 m 0
 273 -107 275 -109 275 -112 c 0
 275 -114 274 -117 272 -123 c 2
 232 -239 l 1
 231 -239 l 1
 271 -117 l 1
 267 -117 265 -115 265 -112 c 0
 265 -109 267 -107 270 -107 c 0
EndSplineSet
Substitution2: "'c2sc' Capitals to Small Capitals lookup 23 subtable" ncommaaccent.sc
Substitution2: "'aalt' Access All Alternates lookup 0 subtable" ncommaaccent.sc
Position2: "'cpsp' Capital Spacing lookup 0 subtable" dx=5 dy=0 dh=10 dv=0
EndChar

StartChar: ncommaaccent
Encoding: 326 326 205
Width: 580
GlyphClass: 2
Flags: MW
HStem: -117 10<246 248> 0 21G<89 91 89 89 422 424 422 422> 497 20G<161 163 163 163> 507 20G<322 411.5>
VStem: 242 10<-113 -110.5 -113 -110.5>
AnchorPoint: "Anchor-11" 254 0 basechar 0
AnchorPoint: "Anchor-10" 0 0 basechar 0
AnchorPoint: "Anchor-9" 326 517 basechar 0
AnchorPoint: "Anchor-8" 0 0 basechar 0
LayerCount: 2
Fore
SplineSet
365 527 m 0xd8
 458 527 489 467 476 368 c 2
 424 0 l 1
 422 0 l 1
 474 368 l 2
 487 466 457 525 365 525 c 0
 279 525 208 471 137 329 c 1
 91 0 l 1
 89 0 l 1
 161 517 l 1
 163 517 l 1xe8
 138 335 l 1
 207 473 279 527 365 527 c 0xd8
247 -107 m 0
 250 -107 252 -109 252 -112 c 0
 252 -114 251 -117 249 -123 c 2
 209 -239 l 1
 208 -239 l 1
 248 -117 l 1
 244 -117 242 -115 242 -112 c 0
 242 -109 244 -107 247 -107 c 0
EndSplineSet
Substitution2: "'smcp' Lowercase to Small Capitals lookup 24 subtable" ncommaaccent.sc
Substitution2: "'aalt' Access All Alternates lookup 0 subtable" ncommaaccent.sc
EndChar
StartChar: Ncaron
Encoding: 327 327 159
Width: 654
GlyphClass: 2
Flags: MW
HStem: 0 21G<94 96 94 94 485 488 485 485> 660 20G<189 192 192 192 581 583 583 583>
VStem: 94 489
AnchorPoint: "Anchor-14" 0 0 basechar 0
AnchorPoint: "Anchor-13" 0 0 basechar 0
AnchorPoint: "Anchor-12" 410 845 basechar 0
AnchorPoint: "Anchor-11" 0 0 basechar 0
AnchorPoint: "Anchor-10" 285 0 basechar 0
LayerCount: 2
Back
Fore
SplineSet
515 845 m 1
 517 844 l 1
 397 765 l 1
 395 765 l 1
 299 844 l 1
 301 845 l 1
 396 767 l 1
 515 845 l 1
583 680 m 1
 488 0 l 1
 485 0 l 1
 191 677 l 1
 176 572 l 1
 96 0 l 1
 94 0 l 1
 189 680 l 1
 192 680 l 1
 486 4 l 1
 505 136 l 1
 581 680 l 1
 583 680 l 1
EndSplineSet
Substitution2: "'c2sc' Capitals to Small Capitals lookup 27 subtable" ncaron.sc
Substitution2: "'aalt' Access All Alternates lookup 0 subtable" ncaron.sc
Position2: "'cpsp' Capital Spacing lookup 0 subtable" dx=5 dy=0 dh=10 dv=0
EndChar
StartChar: ncaron
Encoding: 328 328 538
Width: 580
GlyphClass: 2
Flags: MW
HStem: 0 21G<89 91 89 89 422 424 422 422> 497 20G<161 163 163 163> 507 20G<323.5 411.5> 713 20G<254 254 468 468>
VStem: 89 389.65
AnchorPoint: "Anchor-14" 0 0 basechar 0
AnchorPoint: "Anchor-13" 0 0 basechar 0
AnchorPoint: "Anchor-12" 363 733 basechar 0
AnchorPoint: "Anchor-11" 0 0 basechar 0
AnchorPoint: "Anchor-10" 257 0 basechar 0
LayerCount: 2
Back
Fore
SplineSet
468 733 m 1xb8
 470 732 l 1
 349 648 l 1
 347 648 l 1
 252 732 l 1
 254 733 l 1
 348 650 l 1
 468 733 l 1xb8
368 527 m 0
 455 527 489 467 476 368 c 2
 424 0 l 1
 422 0 l 1
 474 368 l 2
 487 466 454 525 368 525 c 0
 279 525 208 471 137 329 c 1
 91 0 l 1
 89 0 l 1
 161 517 l 1
 163 517 l 1xd8
 138 335 l 1
 207 473 279 527 368 527 c 0
EndSplineSet
Substitution2: "'smcp' Lowercase to Small Capitals lookup 28 subtable" ncaron.sc
Substitution2: "'aalt' Access All Alternates lookup 0 subtable" ncaron.sc
EndChar

StartChar: napostrophe
Encoding: 329 329 203
Width: 676
GlyphClass: 2
Flags: MW
HStem: 0 21G<149 151 149 149 482 484 482 482> 497 20G<221 223 223 223> 507 20G<382 471.5> 713 20G<211.5 214.5>
VStem: 149 389.77
AnchorPoint: "Anchor-11" 314 0 basechar 0
AnchorPoint: "Anchor-10" 0 0 basechar 0
AnchorPoint: "Anchor-9" 386 517 basechar 0
AnchorPoint: "Anchor-8" 0 0 basechar 0
LayerCount: 2
Fore
SplineSet
213 733 m 0xb8
 216 733 218 731 218 728 c 0
 218 726 217 722 215 717 c 2
 174 601 l 1
 173 601 l 1
 213 723 l 1
 210 723 208 725 208 728 c 0
 208 731 210 733 213 733 c 0xb8
425 527 m 0
 518 527 549 467 536 368 c 2
 484 0 l 1
 482 0 l 1
 534 368 l 2
 547 466 517 525 425 525 c 0
 339 525 268 471 197 329 c 1
 151 0 l 1
 149 0 l 1
 221 517 l 1
 223 517 l 1xd8
 198 335 l 1
 267 473 339 527 425 527 c 0
EndSplineSet
Substitution2: "'smcp' Lowercase to Small Capitals lookup 24 subtable" napostrophe.sc
Substitution2: "'aalt' Access All Alternates lookup 0 subtable" napostrophe.sc
EndChar

StartChar: Eng
Encoding: 330 330 69
Width: 654
GlyphClass: 2
Flags: MW
HStem: -189 21G 0 21G<94 96 94 94 485 485.86 485 485> 660 20G<189 192 192 192 581 583 583 583>
VStem: 94 489
AnchorPoint: "Anchor-11" 285 0 basechar 0
AnchorPoint: "Anchor-10" 0 0 basechar 0
AnchorPoint: "Anchor-9" 390 680 basechar 0
AnchorPoint: "Anchor-8" 0 0 basechar 0
LayerCount: 2
Fore
SplineSet
583 680 m 1
 488.001 -0.0107422 l 2
 471.001 -119.011 438.001 -154.011 363.001 -191.011 c 1
 362.001 -189.011 l 1
 435.791 -153.11 469.811 -117.21 485.86 0 c 1
 485 0 l 1
 191 677 l 1
 187 650 183 622 176 572 c 2
 96 0 l 1
 94 0 l 1
 189 680 l 1
 192 680 l 1
 486 4 l 1
 492 45 499 95 505 136 c 2
 581 680 l 1
 583 680 l 1
EndSplineSet
Substitution2: "'c2sc' Capitals to Small Capitals lookup 23 subtable" eng.sc
Substitution2: "'aalt' Access All Alternates lookup 0 subtable" eng.sc
Position2: "'cpsp' Capital Spacing lookup 0 subtable" dx=5 dy=0 dh=10 dv=0
EndChar

StartChar: eng
Encoding: 331 331 206
Width: 580
GlyphClass: 2
Flags: MW
HStem: -189 21G<298 298> 0 21G<89 91 89 89 424 424> 497 20G<161 163 163 163> 507 20G<322 411.5>
VStem: 89 390.06
LayerCount: 2
Fore
SplineSet
365 527 m 0xd8
 458 527 490 467 476 368 c 2
 424 0 l 2
 407 -119 373.79 -154.11 299 -191 c 1
 298 -189 l 1
 372 -153 405 -118 422 1 c 2
 474 368 l 2
 488 466 457 525 365 525 c 0
 279 525 208 476 137 329 c 1
 91 0 l 1
 89 0 l 1
 161 517 l 1
 163 517 l 1xe8
 138 335 l 1
 207 478 279 527 365 527 c 0xd8
EndSplineSet
Substitution2: "'smcp' Lowercase to Small Capitals lookup 24 subtable" eng.sc
Substitution2: "'aalt' Access All Alternates lookup 0 subtable" eng.sc
EndChar

StartChar: Omacron
Encoding: 332 332 78
Width: 687
GlyphClass: 2
Flags: MW
HStem: -9 21G<237.5 428.5> 670 20G<286 472> 688 129<325 471.5>
VStem: 90 531<168.5 512.5>
AnchorPoint: "Anchor-11" 0 0 basechar 0
AnchorPoint: "Anchor-10" 108 517 basechar 0
AnchorPoint: "Anchor-9" 401 680 basechar 0
AnchorPoint: "Anchor-8" 0 0 basechar 0
LayerCount: 2
Fore
SplineSet
325 815 m 1xb0
 325 817 l 1
 515 817 l 1
 515 815 l 1
 325 815 l 1xb0
403 690 m 0xd0
 541 690 621 596 621 429 c 0
 621 261 551 -9 306 -9 c 0
 169 -9 90 86 90 251 c 0
 90 418 169 690 403 690 c 0xd0
403 688 m 0xb0
 170 688 92 415 92 253 c 0
 92 88 170 -7 306 -7 c 0
 550 -7 619 265 619 429 c 0
 619 595 540 688 403 688 c 0xb0
EndSplineSet
Substitution2: "'c2sc' Capitals to Small Capitals lookup 23 subtable" omacron.sc
Substitution2: "'aalt' Access All Alternates lookup 0 subtable" omacron.sc
Position2: "'cpsp' Capital Spacing lookup 0 subtable" dx=5 dy=0 dh=10 dv=0
EndChar

StartChar: omacron
Encoding: 333 333 215
Width: 559
GlyphClass: 2
Flags: MW
HStem: -9 21G<189 334> 507 20G<227 370.5> 525 166<245 370>
VStem: 75 409<128.5 391.5>
AnchorPoint: "Anchor-11" 0 0 basechar 0
AnchorPoint: "Anchor-10" 0 0 basechar 0
AnchorPoint: "Anchor-9" 316 517 basechar 0
AnchorPoint: "Anchor-8" 0 0 basechar 0
LayerCount: 2
Fore
SplineSet
245 689 m 1xb0
 245 691 l 1
 435 691 l 1
 435 689 l 1
 245 689 l 1xb0
318 527 m 0xd0
 423 527 484 455 484 328 c 0
 484 198 426 -9 242 -9 c 0
 136 -9 75 65 75 192 c 0
 75 325 136 527 318 527 c 0xd0
318 525 m 0xb0
 137 525 77 324 77 192 c 0
 77 66 137 -7 242 -7 c 0
 425 -7 482 199 482 328 c 0
 482 454 422 525 318 525 c 0xb0
EndSplineSet
Substitution2: "'smcp' Lowercase to Small Capitals lookup 24 subtable" omacron.sc
Substitution2: "'aalt' Access All Alternates lookup 0 subtable" omacron.sc
EndChar
StartChar: Obreve
Encoding: 334 334 173
Width: 687
GlyphClass: 2
Flags: MW
HStem: -9 21G<237.5 428.5> 670 20G<286 472> 688 86<383.5 438.5 383.5 471.5>
VStem: 90 531<168.5 512.5>
AnchorPoint: "Anchor-14" 0 0 basechar 0
AnchorPoint: "Anchor-13" 577 680 basechar 0
AnchorPoint: "Anchor-12" 421 835 basechar 0
AnchorPoint: "Anchor-11" 0 0 basechar 0
AnchorPoint: "Anchor-10" 306 0 basechar 0
LayerCount: 2
Back
Fore
SplineSet
411 776 m 0xb0
 363 776 333 801 325 835 c 1
 323 834 l 1
 330 805 356 774 411 774 c 0
 466 774 500 805 515 834 c 1
 513 835 l 1
 495 801 459 776 411 776 c 0xb0
403 690 m 0xd0
 541 690 621 596 621 429 c 0
 621 261 551 -9 306 -9 c 0
 169 -9 90 86 90 251 c 0
 90 418 169 690 403 690 c 0xd0
403 688 m 0xb0
 170 688 92 417 92 251 c 0
 92 87 170 -7 306 -7 c 0
 550 -7 619 262 619 429 c 0
 619 595 540 688 403 688 c 0xb0
EndSplineSet
Substitution2: "'c2sc' Capitals to Small Capitals lookup 27 subtable" obreve.sc
Substitution2: "'aalt' Access All Alternates lookup 0 subtable" obreve.sc
Position2: "'cpsp' Capital Spacing lookup 0 subtable" dx=5 dy=0 dh=10 dv=0
EndChar
StartChar: obreve
Encoding: 335 335 554
Width: 559
GlyphClass: 2
Flags: MW
HStem: -9 21G<189 334> 507 20G<227 370.5> 525 143<311 359 311 370> 717 20G<251 251 439 439>
VStem: 75 409<128.5 391.5>
AnchorPoint: "Anchor-14" 0 0 basechar 0
AnchorPoint: "Anchor-13" 467 517 basechar 0
AnchorPoint: "Anchor-12" 347 737 basechar 0
AnchorPoint: "Anchor-11" 0 0 basechar 0
AnchorPoint: "Anchor-10" 242 0 basechar 0
LayerCount: 2
Back
Fore
SplineSet
335 666 m 0xd8
 280 666 254 698 249 736 c 1
 251 737 l 1
 257 693 287 668 335 668 c 0xb8
 383 668 420 693 439 737 c 1
 441 736 l 1
 424 698 390 666 335 666 c 0xd8
318 527 m 0
 423 527 484 455 484 328 c 0
 484 198 426 -9 242 -9 c 0
 136 -9 75 65 75 192 c 0
 75 325 136 527 318 527 c 0
318 525 m 0xb8
 137 525 77 324 77 192 c 0
 77 66 137 -7 242 -7 c 0
 425 -7 482 199 482 328 c 0
 482 454 422 525 318 525 c 0xb8
EndSplineSet
Substitution2: "'smcp' Lowercase to Small Capitals lookup 28 subtable" obreve.sc
Substitution2: "'aalt' Access All Alternates lookup 0 subtable" obreve.sc
EndChar
StartChar: OE
Encoding: 338 338 210
Width: 838
GlyphClass: 2
Flags: MW
HStem: -9 11 0 21G<356 752 356 356> 360 320<587 750 587 587> 678 12
VStem: 89 748<165.5 680> 590 160<360 516>
LayerCount: 2
Back
Fore
SplineSet
837 680 m 1x58
 837 678 l 1x58
 460 678 l 1x54
 547 648 592 561 592 438 c 0
 592 415 591 389 587 362 c 1
 750 362 l 1
 750 360 l 1x64
 587 360 l 1
 570 222 508 46 363 2 c 1xa8
 752 2 l 1
 752 0 l 1
 356 0 l 1x58
 336 -5 314 -9 287 -9 c 0
 162 -9 89 84 89 247 c 0
 89 418 170 690 384 690 c 0x98
 411 690 437 686 454 680 c 1x68
 837 680 l 1x58
590 438 m 0x54
 590 594 516 688 384 688 c 0
 170 688 91 412 91 248 c 0
 91 86 163 -7 287 -7 c 0
 526 -7 590 287 590 438 c 0x54
EndSplineSet
Substitution2: "'c2sc' Capitals to Small Capitals lookup 27 subtable" oe.sc
Substitution2: "'aalt' Access All Alternates lookup 0 subtable" oe.sc
Position2: "'cpsp' Capital Spacing lookup 0 subtable" dx=5 dy=0 dh=10 dv=0
EndChar
StartChar: oe
Encoding: 339 339 592
Width: 917
GlyphClass: 2
Flags: MW
HStem: -9 21G<189 312.5 585 668.5> 507 20G<227 370.5 648 759.5>
VStem: 75 787<128.5 451>
AnchorPoint: "Anchor-14" 0 0 basechar 0
AnchorPoint: "Anchor-13" 0 0 basechar 0
AnchorPoint: "Anchor-12" 499 517 basechar 0
AnchorPoint: "Anchor-11" 0 0 basechar 0
AnchorPoint: "Anchor-10" 451 0 basechar 0
LayerCount: 2
Back
Fore
SplineSet
862 414 m 0
 862 306 745 231 475 218 c 1
 474 208 474 199 474 190 c 0
 474 62 535 -7 636 -7 c 0
 701 -7 745 14 797 52 c 1
 798 50 l 1
 746 12 701 -9 636 -9 c 0
 534 -9 472 61 472 190 c 0
 472 202 473 215 474 229 c 1
 450 113 383 -9 242 -9 c 0
 136 -9 75 65 75 192 c 0
 75 325 136 527 318 527 c 0
 423 527 484 455 484 328 c 0
 484 314 483 299 482 283 c 1
 505 397 574 527 722 527 c 0
 797 527 862 488 862 414 c 0
242 -7 m 0
 425 -7 482 199 482 328 c 0
 482 454 422 525 318 525 c 0
 137 525 77 324 77 192 c 0
 77 66 137 -7 242 -7 c 0
722 525 m 0
 547 525 484 343 475 220 c 1
 745 233 860 308 860 414 c 0
 860 487 796 525 722 525 c 0
EndSplineSet
Substitution2: "'smcp' Lowercase to Small Capitals lookup 28 subtable" oe.sc
Substitution2: "'aalt' Access All Alternates lookup 0 subtable" oe.sc
EndChar
StartChar: Racute
Encoding: 340 340 219
Width: 561
GlyphClass: 2
Flags: MW
HStem: 0 21G<94 96 94 94 467 470 467 467> 660 20G<189 326 326 397>
VStem: 94 425
AnchorPoint: "Anchor-14" 0 0 basechar 0
AnchorPoint: "Anchor-13" 0 0 basechar 0
AnchorPoint: "Anchor-12" 360 842 basechar 0
AnchorPoint: "Anchor-11" 0 0 basechar 0
AnchorPoint: "Anchor-10" 265 0 basechar 0
LayerCount: 2
Back
Fore
SplineSet
446 840 m 1
 271 771 l 1
 270 773 l 1
 445 842 l 1
 446 840 l 1
519 538 m 0
 519 445 464 338 324 334 c 1
 470 0 l 1
 467 0 l 1
 322 334 l 1
 143 334 l 1
 96 0 l 1
 94 0 l 1
 189 680 l 1
 326 680 l 2
 468 680 519 625 519 538 c 0
143 336 m 1
 317 336 l 2
 458 336 517 441 517 538 c 0
 517 624 467 678 326 678 c 2
 191 678 l 1
 143 336 l 1
EndSplineSet
Substitution2: "'c2sc' Capitals to Small Capitals lookup 27 subtable" racute.sc
Substitution2: "'aalt' Access All Alternates lookup 0 subtable" racute.sc
Position2: "'cpsp' Capital Spacing lookup 0 subtable" dx=5 dy=0 dh=10 dv=0
EndChar
StartChar: racute
Encoding: 341 341 604
Width: 361
GlyphClass: 2
Flags: MW
HStem: 0 21G<89 91 89 89> 497 20G<161 163 163 163> 507 20G<286 336> 518 9
VStem: 89 293
AnchorPoint: "Anchor-14" 0 0 basechar 0
AnchorPoint: "Anchor-13" 0 0 basechar 0
AnchorPoint: "Anchor-12" 295 746 basechar 0
AnchorPoint: "Anchor-11" 0 0 basechar 0
AnchorPoint: "Anchor-10" 90 0 basechar 0
LayerCount: 2
Back
Fore
SplineSet
381 746 m 1xa8
 382 744 l 1
 203 662 l 1
 203 664 l 1
 381 746 l 1xa8
327 527 m 0
 345 527 360 524 373 520 c 1
 372 518 l 1
 360 522 344 525 327 525 c 0x98
 246 525 190 485 140 349 c 1
 91 0 l 1
 89 0 l 1
 161 517 l 1
 163 517 l 1xc8
 141 357 l 1
 189 486 245 527 327 527 c 0
EndSplineSet
Substitution2: "'smcp' Lowercase to Small Capitals lookup 28 subtable" racute.sc
Substitution2: "'aalt' Access All Alternates lookup 0 subtable" racute.sc
EndChar
